<?xml version="1.0" encoding="UTF-8" standalone="no"?>
<!-- Created with Inkscape (http://www.inkscape.org/) -->

<svg
   width="93.999878"
   height="55.367725"
   viewBox="0 0 24.8708 14.649378"
   version="1.1"
   id="svg3378"
   inkscape:version="1.2.2 (732a01da63, 2022-12-09, custom)"
   sodipodi:docname="hazy-bg.svg"
   xmlns:inkscape="http://www.inkscape.org/namespaces/inkscape"
   xmlns:sodipodi="http://sodipodi.sourceforge.net/DTD/sodipodi-0.dtd"
   xmlns="http://www.w3.org/2000/svg"
   xmlns:svg="http://www.w3.org/2000/svg">
  <sodipodi:namedview
     id="namedview3380"
     pagecolor="#505050"
     bordercolor="#eeeeee"
     borderopacity="1"
     inkscape:showpageshadow="0"
     inkscape:pageopacity="0"
     inkscape:pagecheckerboard="0"
     inkscape:deskcolor="#505050"
     inkscape:document-units="mm"
     showgrid="false"
     inkscape:zoom="7.319248"
     inkscape:cx="40.304687"
     inkscape:cy="42.968895"
     inkscape:window-width="1504"
     inkscape:window-height="1293"
     inkscape:window-x="26"
     inkscape:window-y="23"
     inkscape:window-maximized="0"
     inkscape:current-layer="layer1" />
  <defs
     id="defs3375" />
  <g
     inkscape:label="Hazy background with birds &amp; tent"
     inkscape:groupmode="layer"
     id="layer1"
     transform="translate(1.0629375,-10.629868)">
    <path
       id="path5914"
       style="fill:#782145;stroke-width:0.15938;stroke-linecap:round;stroke-linejoin:round;stroke-opacity:0.94902"
       d="m 11.372446,11.685243 a 12.435416,13.592666 0 0 0 -3.6953821,0.617534 c 0.030855,0.0048 0.06194,0.0092 0.093018,0.01188 0.036431,0.0031 0.072999,0.0049 0.1095541,0.0062 0.084221,0.0022 0.1684532,0.0021 0.2526977,0.0021 0.092486,-3.65e-4 0.1850171,-7e-6 0.2775018,0 0.02142,-9.25e-4 0.04242,-0.0029 0.06356,-0.0057 0.02114,-0.0028 0.04263,-0.0063 0.06356,-0.01033 0.04187,-0.0081 0.08301,-0.01814 0.124541,-0.02791 0.01939,-0.005 0.03844,-0.01073 0.05736,-0.01705 0.01892,-0.0063 0.03811,-0.01328 0.05684,-0.02015 0.03746,-0.01375 0.0748,-0.02804 0.113171,-0.03927 0.02917,-0.0093 0.05759,-0.0199 0.08578,-0.03152 0.02819,-0.01162 0.05596,-0.02418 0.08423,-0.03566 0.0082,-0.0027 0.01593,-0.0044 0.02377,-0.0057 0.0078,-0.0013 0.01571,-0.002 0.02325,-0.0021 0.01506,-6.1e-5 0.02965,0.0024 0.04392,0.0062 0.01428,0.0038 0.0283,0.0088 0.04237,0.01499 0.01408,0.0062 0.02843,0.01317 0.04289,0.02015 0.04275,0.02462 0.08551,0.04917 0.128158,0.0739 -0.01637,-0.0097 -0.03239,-0.01947 -0.04858,-0.02946 -8.5e-4,-5.25e-4 -0.0017,-0.0014 -0.0021,-0.0016 5.25e-4,-4.01e-4 0.0087,0.0026 0.02067,0.0067 0.008,0.0027 0.01759,0.0053 0.02791,0.0078 0.01031,0.0024 0.02119,0.0047 0.03152,0.0052 0.01348,7.75e-4 0.02609,-7.39e-4 0.03772,-0.0041 0.01163,-0.0035 0.02242,-0.009 0.03307,-0.01499 0.02131,-0.01207 0.04149,-0.02747 0.06408,-0.03876 0.01794,-0.0064 0.03629,-0.01112 0.05478,-0.01499 0.01849,-0.0039 0.03699,-0.0067 0.05581,-0.0088 0.03765,-0.0042 0.076,-0.0053 0.113688,-0.0067 0.02226,3.31e-4 0.04294,0.0024 0.06305,0.0052 0.02011,0.0028 0.03938,0.0064 0.05788,0.01137 0.0185,0.005 0.03632,0.01122 0.05374,0.01809 0.01743,0.0069 0.03478,0.0143 0.05168,0.02274 0.0206,0.01029 0.04131,0.02351 0.062012,0.03566 -0.0029,-0.002 -0.0032,-0.0027 -10e-4,-0.0021 0.0022,5.89e-4 0.0064,0.0018 0.01137,0.0036 0.0098,0.0037 0.02304,0.009 0.02997,0.01033 0.0128,0.0024 0.02523,0.0033 0.03721,0.0031 0.01198,-2.47e-4 0.02359,-0.0014 0.03514,-0.0036 0.02311,-0.0044 0.04539,-0.01189 0.06925,-0.02015 0.01744,-0.0079 0.03469,-0.01653 0.05116,-0.02584 0.01647,-0.0093 0.03239,-0.01953 0.04806,-0.02997 0.03134,-0.02088 0.06125,-0.04378 0.09043,-0.0677 0.05836,-0.04784 0.114021,-0.09972 0.172083,-0.147795 0.01783,-0.01723 0.03641,-0.03295 0.05581,-0.04806 0.0194,-0.01511 0.03961,-0.02942 0.05943,-0.04392 0.01982,-0.0145 0.03932,-0.02904 0.05839,-0.04444 0.01909,-0.0154 0.03757,-0.03179 0.05478,-0.04961 0.03326,-0.03688 0.01585,-0.01917 0.05116,-0.05426 l 0.222209,0.136425 c -0.03485,0.03364 -0.01746,0.01637 -0.05064,0.05374 -0.0174,0.01831 -0.03639,0.03458 -0.05581,0.05013 -0.01942,0.01554 -0.03969,0.03 -0.05995,0.04444 -0.02027,0.01444 -0.0405,0.02895 -0.06046,0.04392 -0.01996,0.01499 -0.03939,0.03035 -0.05788,0.04754 -0.05949,0.04815 -0.115926,0.100722 -0.174666,0.149862 -0.02937,0.02457 -0.05908,0.0484 -0.09043,0.07028 -0.01567,0.01094 -0.03162,0.02162 -0.04806,0.03152 -0.01644,0.0099 -0.03325,0.01928 -0.05064,0.02791 -0.02531,0.0106 -0.04918,0.01803 -0.07131,0.02325 -0.02213,0.0052 -0.04269,0.0078 -0.06253,0.0083 -0.01984,4.38e-4 -0.03892,-0.0014 -0.05736,-0.0052 -0.01844,-0.0038 -0.03632,-0.0097 -0.05426,-0.01705 -0.01794,-0.0074 -0.03592,-0.01648 -0.05426,-0.02687 -0.01834,-0.01039 -0.03721,-0.02231 -0.05684,-0.03514 -0.0032,-0.0021 -0.0076,-0.0046 -0.01085,-0.0067 -0.01058,-0.0022 -0.02127,-0.0042 -0.03204,-0.0057 -0.02503,-0.0035 -0.05055,-0.0061 -0.074931,-0.01085 -0.03637,9.4e-4 -0.07267,0.0021 -0.109037,0.0052 -0.01819,0.0015 -0.03628,0.0033 -0.05426,0.0062 -0.01798,0.0029 -0.03609,0.007 -0.05374,0.01189 -0.01226,0.0053 -0.02349,0.01193 -0.03462,0.01912 -0.01113,0.0072 -0.02202,0.01471 -0.03307,0.0217 -0.01105,0.007 -0.0221,0.01339 -0.03411,0.01809 -0.006,0.0023 -0.01268,0.0043 -0.01912,0.0057 -0.0064,0.0014 -0.01314,0.0019 -0.02015,0.0021 -0.0088,6.35e-4 -0.01783,0.0017 -0.02739,0.0021 -0.0096,4e-4 -0.01912,9.49e-4 -0.02791,-5.17e-4 -0.01284,-0.0024 -0.03182,-0.0097 -0.05374,-0.01964 -0.02192,-0.0099 -0.04701,-0.02224 -0.07286,-0.03617 -0.02253,-0.01214 -0.04015,-0.02396 -0.06201,-0.03669 -3.52e-4,-1.5e-4 -8.13e-4,-3.69e-4 -0.001,-5.17e-4 -0.01271,-0.0053 -0.02565,-0.0097 -0.03927,-0.01189 -0.007,-0.0011 -0.01378,-0.0022 -0.02119,-0.0021 -0.0074,6.3e-5 -0.01534,4.29e-4 -0.02325,0.0021 -0.02906,0.01073 -0.05732,0.02404 -0.08578,0.03617 -0.02846,0.01213 -0.05724,0.02404 -0.08682,0.03359 -0.01948,0.0051 -0.03838,0.01011 -0.05736,0.01654 -0.01898,0.0064 -0.03805,0.01372 -0.05684,0.02067 -0.03758,0.01391 -0.07498,0.02817 -0.113688,0.03927 -0.04241,0.0096 -0.08463,0.02054 -0.127124,0.02946 -0.02125,0.0045 -0.04262,0.0081 -0.06408,0.01137 -0.02146,0.0033 -0.04278,0.0058 -0.0646,0.0072 -0.09237,6.5e-5 -0.18462,1.62e-4 -0.2769857,0 -0.084112,1.05e-4 -0.1685942,8.83e-4 -0.2526977,-5.17e-4 -0.036893,-10e-4 -0.073778,-0.0025 -0.1105876,-0.0052 -0.036809,-0.0026 -0.073592,-0.0064 -0.1100708,-0.0124 -0.046057,-0.0074 -0.091454,-0.01348 -0.1374593,-0.01705 -0.023003,-0.0018 -0.046093,-0.0033 -0.069246,-0.0036 -0.023154,-3.34e-4 -0.046865,4.85e-4 -0.07028,0.0021 -0.098268,-1.74e-4 -0.1962908,2.63e-4 -0.2945557,10e-4 a 12.435416,13.592666 0 0 0 -2.3187215,1.184424 c 0.00981,0.0024 0.019611,0.005 0.029456,0.0072 0.016577,0.0037 0.033326,0.007 0.050126,0.0098 0.0168,0.0028 0.033454,0.0047 0.050643,0.0062 0.018003,0.0032 0.036303,0.0059 0.05426,0.0078 0.017958,0.0019 0.035755,0.0028 0.053744,0.0036 0.035979,0.0015 0.071952,0.0013 0.1085205,0 0.035071,1.9e-4 0.070312,1.57e-4 0.1054199,0.0021 0.017554,8.89e-4 0.035273,0.0021 0.05271,0.0041 0.017437,0.002 0.034956,0.0046 0.052193,0.0083 0.018247,0.0053 0.03636,0.01111 0.05426,0.01757 0.0179,0.0065 0.035364,0.01399 0.05271,0.0217 0.017346,0.0077 0.034577,0.01578 0.05116,0.0248 0.016582,0.009 0.032448,0.01858 0.048059,0.02894 0.015611,0.01036 0.030528,0.02131 0.044958,0.03307 0.014431,0.01177 0.028299,0.0245 0.041341,0.03772 0.013042,0.01322 0.025245,0.02713 0.03669,0.04186 0.011445,0.01473 0.0224,0.03023 0.032039,0.04651 9.56e-4,0.0013 0.00211,0.0024 0.0031,0.0036 0.050515,0.01919 0.1015184,0.03794 0.1524455,0.05581 0.055235,0.01939 0.1102591,0.03845 0.1653646,0.05839 0.026756,0.0097 0.054385,0.01883 0.081649,0.02894 0.027264,0.01011 0.054549,0.02084 0.079582,0.03462 0.022303,0.01227 0.083799,0.04734 0.1384929,0.07855 0.00321,0.0019 0.08548,0.04827 0.1297078,0.07338 -0.020147,-0.0116 -0.049609,-0.02834 -0.1219564,-0.06976 0.00393,0.002 0.01501,0.0082 0.022738,0.01189 0.025977,0.01223 0.050147,0.02653 0.076998,0.03669 0.01726,0.0083 0.03399,0.0151 0.050643,0.02067 0.016652,0.0056 0.032804,0.0098 0.049609,0.01292 0.016806,0.0031 0.033957,0.0048 0.051677,0.0057 0.01772,8.77e-4 0.036416,6.08e-4 0.05581,-5.17e-4 0.052288,0.0019 0.1044114,0.0045 0.1565796,0.0088 0.026084,0.0021 0.052081,0.0049 0.078031,0.0083 0.025951,0.0033 0.051766,0.0075 0.077515,0.0124 0.045462,0.0099 0.078196,0.01706 0.1049031,0.02429 0.026707,0.0072 0.047293,0.0145 0.069763,0.02481 0.02247,0.01028 0.046833,0.02384 0.079582,0.04289 0.032749,0.01905 0.07423,0.04347 0.1317749,0.077 0.00376,0.0022 0.00729,0.0055 0.010335,0.0088 0.00304,0.0032 0.00533,0.007 0.00723,0.01085 0.0019,0.0039 0.00275,0.0085 0.0031,0.01292 3.54e-4,0.0044 3.877e-4,0.0086 0.00103,0.01292 -0.00299,0.0067 -0.00632,0.01287 -0.010335,0.0186 -0.00402,0.0057 -0.00864,0.01099 -0.013436,0.01602 -0.00959,0.01006 -0.020348,0.01919 -0.031523,0.02791 -0.011174,0.0087 -0.022861,0.01703 -0.03359,0.02636 -0.010729,0.0093 -0.020686,0.01917 -0.028939,0.031 -0.014275,0.01328 -0.02905,0.02525 -0.044442,0.03566 -0.015392,0.0104 -0.031369,0.01956 -0.048059,0.02687 -0.01669,0.0073 -0.034026,0.01304 -0.052193,0.01705 -0.018167,0.004 -0.03702,0.0062 -0.056844,0.0067 -0.018047,0.0031 -0.035889,0.0067 -0.05271,0.01137 -0.01682,0.0046 -0.032893,0.01024 -0.048059,0.01757 -0.015166,0.0073 -0.029292,0.01622 -0.042375,0.02739 -0.00654,0.0056 -0.012663,0.01185 -0.018604,0.0186 -0.00594,0.0068 -0.011768,0.01415 -0.017053,0.02222 -0.00915,0.01473 -0.016776,0.02803 -0.022221,0.04031 -0.00544,0.01228 -0.0089,0.02362 -0.00982,0.03514 -4.59e-4,0.0058 -3.091e-4,0.01117 5.168e-4,0.01705 8.259e-4,0.0059 0.00244,0.01238 0.00465,0.0186 0.00443,0.01244 0.011635,0.02525 0.022221,0.04031 0.010497,0.01377 0.020654,0.02533 0.028939,0.03669 0.00828,0.01136 0.014873,0.02237 0.01912,0.03359 0.00212,0.0056 0.00388,0.01105 0.00465,0.01705 7.726e-4,0.006 8.068e-4,0.01244 0,0.01912 -8.067e-4,0.0067 -0.00255,0.01355 -0.00517,0.02119 -0.00261,0.0076 -0.0062,0.01539 -0.010852,0.02429 -0.00934,0.01273 -0.019489,0.0247 -0.029972,0.03462 -0.010483,0.0099 -0.021238,0.0183 -0.033073,0.02584 -0.011835,0.0075 -0.024331,0.01406 -0.037724,0.01964 -0.013392,0.0056 -0.027737,0.01094 -0.042892,0.01499 -0.013823,0.0062 -0.02732,0.0109 -0.040824,0.01499 -0.013505,0.0041 -0.027236,0.0077 -0.040824,0.0093 -0.013588,0.0016 -0.027267,0.0019 -0.041341,5.17e-4 -0.014075,-0.0014 -0.028445,-0.0046 -0.043408,-0.0093 -0.018001,-0.0041 -0.036163,-0.0069 -0.05426,-0.0093 -0.018097,-0.0024 -0.036105,-0.0044 -0.05426,-0.0062 -0.036311,-0.0035 -0.072712,-0.0068 -0.1090373,-0.01344 -0.025617,-0.0061 -0.050717,-0.01341 -0.075448,-0.0217 -0.024731,-0.0083 -0.048878,-0.01723 -0.072864,-0.02739 -0.023986,-0.01016 -0.04793,-0.02137 -0.071313,-0.03307 -0.023382,-0.0117 -0.046328,-0.02429 -0.069246,-0.03721 -0.042569,-0.01624 -0.08537,-0.03044 -0.1286743,-0.04238 -0.021652,-0.006 -0.043574,-0.01129 -0.065629,-0.01602 -0.022055,-0.0047 -0.044057,-0.009 -0.066663,-0.0124 -0.028265,-0.0082 -0.056112,-0.01694 -0.083716,-0.02687 -0.027604,-0.0099 -0.054939,-0.02056 -0.082166,-0.03152 -0.054454,-0.02193 -0.1086555,-0.04562 -0.1632975,-0.06718 -0.041236,-0.0173 -0.082557,-0.03476 -0.1250569,-0.04858 -0.02125,-0.0069 -0.042764,-0.01297 -0.064596,-0.01757 -0.021831,-0.0046 -0.044073,-0.0075 -0.066663,-0.0088 -0.031778,-0.004 -0.063126,-0.01113 -0.094568,-0.01705 -0.015721,-0.003 -0.031732,-0.0068 -0.047542,-0.0088 -0.01581,-0.002 -0.031528,-0.0031 -0.047542,-0.0031 -0.040391,3.35e-4 -0.080553,0.0011 -0.1209228,0.0026 -0.04037,0.0015 -0.080728,0.0049 -0.1209229,0.0093 -0.055536,0.0065 -0.1108135,0.01563 -0.1658813,0.02481 -0.055068,0.0092 -0.1098606,0.01842 -0.1653646,0.0248 -0.043846,0.005 -0.087985,0.0092 -0.1317749,0.01137 -0.043789,0.0022 -0.087595,0.0026 -0.1317749,5.17e-4 -0.08296,-4.76e-4 -0.1656143,-0.0019 -0.2485637,0 -0.037037,0.0014 -0.074816,0.0031 -0.1116211,0.0083 -0.018403,0.0026 -0.036383,0.006 -0.05426,0.01085 -0.017877,0.0049 -0.03567,0.01102 -0.05271,0.01912 -0.036259,0.02497 -0.070149,0.05302 -0.1049031,0.0801 -0.017377,0.01354 -0.035094,0.02676 -0.053227,0.03927 -0.018132,0.01251 -0.036686,0.02417 -0.056327,0.03462 -0.041713,0.03011 -0.081798,0.06307 -0.1224731,0.09457 -0.020338,0.01575 -0.040897,0.0313 -0.062012,0.04599 -0.021114,0.01469 -0.042531,0.02863 -0.065112,0.04134 -0.015569,0.0091 -0.031732,0.01701 -0.048059,0.02377 -0.016327,0.0068 -0.032636,0.01231 -0.049609,0.01705 -0.016973,0.0047 -0.034688,0.0083 -0.052193,0.01137 -0.017506,0.0031 -0.034784,0.0059 -0.05271,0.0078 -0.091263,-1.32e-4 -0.1826276,-5.83e-4 -0.273885,5.17e-4 l -0.030489,-0.02222 a 12.435416,13.592666 0 0 0 -0.9436117,1.0573 l 0.00672,0.0041 c -0.00434,0.0078 -0.00858,0.01545 -0.012919,0.02325 -0.026942,0.04578 -0.050196,0.09489 -0.064079,0.146245 -0.011012,0.05868 -0.032517,0.113192 -0.048059,0.170532 -0.017172,0.05697 -0.03404,0.114515 -0.058911,0.168465 -0.035588,0.05773 -0.073589,0.113782 -0.1105875,0.170532 -0.05288,0.08327 -0.1202513,0.15714 -0.1912028,0.225309 -0.01824,0.01379 -0.054524,0.04264 -0.075448,0.05323 -0.054369,0.02753 -0.11619,0.03815 -0.1736328,0.05684 l -0.00568,-0.0041 a 12.435416,13.592666 0 0 0 -0.99580489,1.775602 c 0.00611,0.03024 0.00494,0.01875 0.00982,0.05788 0.00534,0.03009 0.012778,0.05974 0.021187,0.08888 0.00841,0.02914 0.017488,0.05786 0.025321,0.08733 0.0059,0.01596 0.012586,0.03173 0.020154,0.04703 0.00757,0.0153 0.016132,0.03005 0.025322,0.04444 0.00919,0.0144 0.019208,0.02862 0.029972,0.04186 0.010765,0.01323 0.022326,0.0259 0.034623,0.03772 0.034902,0.02877 0.069454,0.05756 0.1043864,0.0863 0.034642,0.0285 0.06973,0.05705 0.1054199,0.08423 h 5.168e-4 c 0.050102,0.01431 0.1001932,0.0274 0.1503784,0.04134 0.050185,0.01394 0.1002551,0.02829 0.1493449,0.04599 0.043894,0.01341 0.087647,0.02691 0.13177489,0.03824 0.022064,0.0057 0.044292,0.01092 0.066663,0.0155 0.02237,0.0046 0.044855,0.0082 0.067696,0.01137 0.021583,0.0027 0.043038,0.0064 0.064079,0.01085 0.021041,0.0044 0.041618,0.0096 0.062012,0.01602 0.020393,0.0065 0.040304,0.01397 0.059945,0.02274 0.019641,0.0088 0.039095,0.01911 0.057878,0.03049 0.042418,0.02394 0.086037,0.04568 0.1302246,0.06615 0.044188,0.02047 0.08859,0.03974 0.1333252,0.05891 0.042062,0.01328 0.083468,0.02759 0.1240234,0.04393 0.040556,0.01634 0.080427,0.03454 0.1193726,0.05426 0.038946,0.01972 0.076973,0.04115 0.1142049,0.0646 0.037232,0.02342 0.073622,0.04904 0.1090373,0.07648 0.024309,0.01823 0.047921,0.03729 0.070797,0.05736 0.022876,0.02007 0.045266,0.04096 0.066146,0.06305 0.02088,0.02207 0.040589,0.04501 0.058911,0.06925 0.018322,0.02424 0.034925,0.04991 0.050126,0.07648 0.00337,0.01061 0.00582,0.02041 0.00723,0.02946 0.00142,0.0091 0.00194,0.01702 0.00155,0.02481 -3.941e-4,0.0078 -0.00155,0.01543 -0.00362,0.02222 -0.00207,0.0068 -0.00514,0.01306 -0.00878,0.01912 -0.00362,0.0061 -0.00789,0.01146 -0.012919,0.01705 -0.00502,0.0056 -0.010755,0.01114 -0.017053,0.01654 -0.012596,0.0108 -0.027559,0.02143 -0.044442,0.03307 -0.016293,0.01157 -0.033245,0.02222 -0.050643,0.03152 -0.017398,0.0093 -0.034975,0.01731 -0.053227,0.02481 -0.018252,0.0075 -0.036958,0.01406 -0.055811,0.02015 -0.018854,0.0061 -0.038156,0.01191 -0.057361,0.01705 -0.021617,0.0035 -0.042939,0.0057 -0.064596,0.0078 -0.021657,0.002 -0.043427,0.0038 -0.065112,0.0052 -0.043372,0.0027 -0.086801,0.0049 -0.1302246,0.01034 -0.018,0.0035 -0.033581,0.0069 -0.047025,0.01137 -0.013445,0.0045 -0.024988,0.0099 -0.03514,0.01705 -0.010152,0.0071 -0.018751,0.01597 -0.026872,0.02739 -0.00812,0.01142 -0.015385,0.02548 -0.022738,0.04289 -0.00959,0.03431 -0.017198,0.0695 -0.024805,0.104386 -0.00761,0.03488 -0.015276,0.06935 -0.026355,0.103353 -0.00151,0.01765 -0.00252,0.03517 -0.00207,0.05168 4.58e-4,0.0165 0.00233,0.03238 0.0062,0.04754 0.00139,0.0055 0.00321,0.01075 0.00517,0.01602 0.00104,8.3e-5 0.00206,4.36e-4 0.0031,5.16e-4 0.021631,0.0017 0.043482,0.0033 0.065112,0.0062 0.038967,0.005 0.077473,0.01221 0.116272,0.01757 0.0194,0.0027 0.038863,0.0045 0.058394,0.0057 0.019532,0.0011 0.03913,0.0015 0.058911,0 0.033917,4.75e-4 0.067885,7.98e-4 0.1018025,0.0026 0.033918,0.0017 0.067736,0.0048 0.1012859,0.01034 0.02963,0.006 0.058646,0.01512 0.087333,0.02377 0.028687,0.0086 0.057528,0.01657 0.087333,0.0217 0.056467,0.01893 0.1100506,0.04423 0.1663981,0.06356 0.00148,8e-4 0.027923,0.0097 0.063562,0.02377 0.017819,0.0071 0.037789,0.01534 0.058394,0.0248 0.020605,0.0095 0.041423,0.02029 0.060978,0.03152 0.019555,0.01123 0.038041,0.02327 0.05271,0.03566 0.00733,0.0062 0.013726,0.01224 0.01912,0.0186 0.00539,0.0064 0.00943,0.01266 0.012402,0.01912 0.00297,0.0065 0.00458,0.01316 0.00465,0.01964 7.47e-5,0.0065 -0.00135,0.0127 -0.00465,0.01912 -0.0033,0.0064 -0.00834,0.01284 -0.015503,0.01912 -0.00716,0.0063 -0.016405,0.01254 -0.027905,0.0186 -0.00978,0.0032 -0.019613,0.0064 -0.029456,0.0083 -0.00984,0.0019 -0.019569,0.0024 -0.029456,0.0031 -0.019771,0.0014 -0.039583,0.0011 -0.059428,-0.001 -0.019845,-0.0021 -0.03964,-0.0052 -0.059428,-0.0093 -0.019776,-0.0041 -0.039818,-0.009 -0.059417,-0.01344 -0.048071,-0.01299 -0.095632,-0.02876 -0.1436604,-0.04237 -0.024014,-0.0068 -0.047982,-0.01293 -0.072347,-0.01809 -0.024365,-0.0052 -0.04894,-0.0091 -0.073897,-0.01137 -0.02622,-0.0028 -0.052228,-0.0049 -0.078548,-0.0057 -0.02632,-8.27e-4 -0.052692,-7.36e-4 -0.079065,-5.17e-4 -0.052745,4.38e-4 -0.1059795,0.0018 -0.1586466,5.17e-4 -0.094535,1.48e-4 -0.1886517,1.41e-4 -0.2831869,0 -0.089264,10e-5 -0.1789584,7.97e-4 -0.2682006,-0.0016 -0.034055,-0.0011 -0.067914,-0.0033 -0.1018026,-0.0067 -0.033889,-0.0034 -0.067455,-0.0084 -0.1007692,-0.01602 -0.020158,-0.0042 -0.040247,-0.0067 -0.060461,-0.0088 -0.020214,-0.0021 -0.040682,-0.0035 -0.060978,-0.0041 -0.040593,-0.0013 -0.081392,-2.38e-4 -0.12247309,0 -0.041006,-5e-5 -0.081977,-6.41e-4 -0.1229899,-5.16e-4 -0.041013,1.25e-4 -0.082007,8.53e-4 -0.1229899,0.0026 -0.018419,0.0012 -0.036987,0.0036 -0.055294,0.0057 -0.018307,0.002 -0.036281,0.0047 -0.05426,0.0083 -0.01798,0.0035 -0.035788,0.0077 -0.053227,0.01344 -0.017439,0.0057 -0.034476,0.01264 -0.05116,0.02119 -0.039412,0.02124 -0.078179,0.04402 -0.1167887,0.06666 -0.03861,0.02264 -0.077341,0.04537 -0.1173055,0.06563 -0.022543,0.0088 -0.044987,0.01547 -0.067696,0.02067 -0.022709,0.0052 -0.045719,0.0089 -0.06873,0.01137 -0.023011,0.0025 -0.046315,0.0035 -0.069763,0.0041 -0.023448,6.42e-4 -0.046776,7.91e-4 -0.070797,5.16e-4 -0.023646,0.0017 -0.047414,0.0036 -0.070797,0.0067 -0.023383,0.0031 -0.046766,0.0065 -0.069763,0.01137 -0.022998,0.0049 -0.045722,0.01151 -0.068213,0.0186 -0.022491,0.0071 -0.044284,0.01468 -0.066146,0.02429 -0.063137,0.02758 -0.1252386,0.05699 -0.1870687,0.08733 -0.061831,0.03035 -0.1235646,0.06138 -0.1855184,0.09147 v 5.17e-4 l -0.01757,-0.01189 A 12.435416,13.592666 0 0 0 -1.0629375,25.279076 H 23.807863 a 12.435416,13.592666 0 0 0 -0.03152,-0.95498 c -0.0065,0.0155 -0.01258,0.03126 -0.02067,0.04599 -0.01166,0.02122 -0.02499,0.04171 -0.03927,0.0615 -0.01428,0.01978 -0.02978,0.03885 -0.04599,0.05736 -0.05577,0.06937 -0.114476,0.135892 -0.171566,0.204122 -0.01663,0.01883 -0.03393,0.03707 -0.05168,0.05478 -0.01774,0.01771 -0.03585,0.03516 -0.05426,0.05219 -0.03682,0.03406 -0.07481,0.06675 -0.111621,0.10077 -0.01629,0.01181 -0.03165,0.0248 -0.04703,0.03772 -0.01537,0.01293 -0.0305,0.02588 -0.04548,0.03927 -0.02997,0.02678 -0.0599,0.05385 -0.09147,0.07855 -0.01237,0.0086 -0.02484,0.01659 -0.03772,0.02377 -0.01288,0.0072 -0.02593,0.01356 -0.03927,0.01964 -0.0267,0.01216 -0.05437,0.02256 -0.08268,0.03204 -0.03318,0.0094 -0.06585,0.01919 -0.09819,0.03049 -0.03232,0.0113 -0.06437,0.02406 -0.0956,0.03876 -0.04061,0.01712 -0.01986,0.009 -0.06149,0.02325 l -0.216007,-0.146761 c 0.04033,-0.01209 0.02043,-0.0052 0.05994,-0.02067 0.03155,-0.01484 0.06321,-0.02822 0.0956,-0.04031 0.0324,-0.01209 0.06528,-0.02256 0.09922,-0.03101 0.02689,-0.0098 0.05397,-0.01888 0.0801,-0.02946 0.01306,-0.0053 0.02562,-0.01114 0.03824,-0.01757 0.01262,-0.0064 0.02521,-0.0135 0.03721,-0.0217 0.01614,-0.01159 0.03135,-0.02427 0.04651,-0.03721 0.01516,-0.01294 0.03005,-0.02597 0.04496,-0.03927 0.01491,-0.0133 0.03008,-0.02659 0.04547,-0.03927 0.01541,-0.01268 0.03142,-0.02509 0.04806,-0.03617 0.03635,-0.03367 0.07333,-0.06643 0.109554,-0.100252 0.03623,-0.03382 0.0715,-0.06868 0.104904,-0.10542 0.05718,-0.06847 0.115812,-0.135388 0.172082,-0.204638 0.01558,-0.01746 0.03026,-0.03557 0.04392,-0.05426 0.01365,-0.01869 0.02618,-0.03776 0.03721,-0.05788 0.01103,-0.02012 0.02073,-0.0413 0.02842,-0.06305 0.0077,-0.02174 0.0134,-0.04413 0.01705,-0.0677 0.0027,-0.02266 0.0036,-0.04549 0.0031,-0.06821 -5.48e-4,-0.02272 -0.0025,-0.04551 -0.0052,-0.06821 -0.0053,-0.0454 -0.01316,-0.09055 -0.01964,-0.135393 l 0.19327,0.09457 a 12.435416,13.592666 0 0 0 -0.260966,-1.727026 l -0.220142,-0.10542 c -0.0047,-0.01855 -0.0096,-0.03696 -0.01499,-0.05529 -0.0054,-0.01833 -0.01125,-0.03687 -0.01809,-0.05478 -0.01462,-0.04372 -0.02842,-0.08752 -0.04134,-0.131775 -0.01292,-0.04425 -0.02499,-0.08873 -0.03669,-0.133325 -0.01451,-0.05501 -0.02644,-0.110322 -0.03824,-0.165881 -0.0118,-0.05556 -0.02363,-0.111179 -0.03721,-0.166398 -0.0098,-0.0414 -0.01986,-0.08305 -0.03152,-0.124024 -0.01166,-0.04097 -0.02463,-0.08146 -0.03927,-0.121439 -0.01625,-0.04676 -0.02987,-0.09436 -0.04237,-0.142111 -0.0125,-0.04775 -0.02381,-0.0955 -0.03514,-0.14366 -0.0097,-0.04414 -0.0222,-0.08806 -0.03359,-0.131775 -0.0057,-0.02186 -0.011,-0.04361 -0.01602,-0.06563 -0.005,-0.02202 -0.0093,-0.04431 -0.01292,-0.06666 -0.0092,-0.03418 -0.0211,-0.06714 -0.03359,-0.100252 -0.01249,-0.03311 -0.0257,-0.06631 -0.03721,-0.09974 -0.03246,-0.07919 -0.06176,-0.159761 -0.09353,-0.239261 -0.0081,-0.02267 -0.01542,-0.04514 -0.0217,-0.06821 -0.0063,-0.02307 -0.01176,-0.04646 -0.01705,-0.06976 -0.01058,-0.04662 -0.01986,-0.09347 -0.03152,-0.140044 -0.01994,-0.06199 -0.04396,-0.122438 -0.06511,-0.183968 -0.01312,-0.03143 -0.02708,-0.06279 -0.04186,-0.09353 -0.01478,-0.03075 -0.03055,-0.06091 -0.04754,-0.09043 -0.01717,-0.0356 -0.03353,-0.07127 -0.04909,-0.107487 -0.01556,-0.03621 -0.03026,-0.07266 -0.04444,-0.109554 -0.01801,-0.04068 -0.03582,-0.08174 -0.05478,-0.121956 -0.01895,-0.04022 -0.03896,-0.07987 -0.06149,-0.118339 -0.0167,-0.02727 -0.03393,-0.05365 -0.05271,-0.07855 -0.0094,-0.01245 -0.01897,-0.0245 -0.02946,-0.03617 -0.01049,-0.01168 -0.02162,-0.0228 -0.03359,-0.03359 -0.0095,-0.01141 -0.01841,-0.02309 -0.02687,-0.03514 -0.0085,-0.01205 -0.01653,-0.02446 -0.02377,-0.03721 -0.0072,-0.01275 -0.01381,-0.02576 -0.01964,-0.03927 -0.0058,-0.01351 -0.01078,-0.02752 -0.01499,-0.04186 -0.01159,-0.04295 -0.02167,-0.08632 -0.03049,-0.129707 -0.0088,-0.04339 -0.0168,-0.08668 -0.02325,-0.130742 -0.0079,-0.05019 -0.01474,-0.100729 -0.02015,-0.151412 -0.0051,-0.04793 -0.0083,-0.09617 -0.01034,-0.144177 a 12.435416,13.592666 0 0 0 -0.841809,-1.3255 c -0.02002,9.51e-4 -0.04019,0.0014 -0.05994,0.0041 -0.01575,0.0022 -0.03125,0.005 -0.04651,0.0093 -0.01526,0.0043 -0.03048,0.01025 -0.04496,0.01757 -0.01765,0.0111 -0.03428,0.02327 -0.05064,0.03617 -0.01636,0.0129 -0.03207,0.02635 -0.04806,0.03979 -0.01599,0.01344 -0.03206,0.02655 -0.04858,0.03927 -0.01653,0.01273 -0.03369,0.0249 -0.05168,0.03566 -0.02095,0.01516 -0.04226,0.02956 -0.06408,0.04289 -0.02182,0.01333 -0.04393,0.02569 -0.06666,0.03721 -0.02274,0.01151 -0.04607,0.02233 -0.06976,0.03204 -0.0237,0.0097 -0.04815,0.01844 -0.07286,0.02636 -0.02712,0.01173 -0.05431,0.02218 -0.08216,0.03204 -0.02784,0.0099 -0.05612,0.01922 -0.08423,0.02842 -0.02811,0.0092 -0.05631,0.01816 -0.08423,0.02791 -0.02792,0.0097 -0.05541,0.02004 -0.08268,0.03152 -0.0528,0.02253 -0.106688,0.04256 -0.160713,0.06201 -0.05402,0.01945 -0.108559,0.03819 -0.162264,0.0584 -0.09447,0.03555 -0.186207,0.07684 -0.280087,0.113688 -0.04389,0.01765 -0.0881,0.03458 -0.132808,0.05013 -0.02235,0.0078 -0.04449,0.01551 -0.06718,0.02222 -0.02268,0.0067 -0.04563,0.01281 -0.06873,0.01809 -0.02407,0.0055 -0.04848,0.01009 -0.07286,0.01395 -0.02439,0.0039 -0.04879,0.0065 -0.07338,0.0088 -0.02459,0.0023 -0.04921,0.0039 -0.0739,0.0047 -0.02468,7.82e-4 -0.04922,0.0012 -0.0739,5.17e-4 -0.102678,-3.84e-4 -0.205829,-7.54e-4 -0.308508,-5.17e-4 -0.04591,2e-4 -0.09154,-7.4e-5 -0.13746,0.001 -0.04592,0.0012 -0.09173,0.0037 -0.137459,0.0083 -0.02259,0.0028 -0.04497,0.0062 -0.06718,0.01034 -0.02221,0.0042 -0.04426,0.009 -0.06615,0.01447 -0.04378,0.01089 -0.08732,0.02443 -0.130225,0.03979 -0.04533,0.0095 -0.09087,0.01632 -0.136425,0.0248 -0.02278,0.0042 -0.04567,0.0091 -0.06821,0.01447 -0.02254,0.0053 -0.04508,0.01125 -0.06718,0.0186 -0.03933,0.0086 -0.07835,0.0181 -0.117305,0.02842 -0.03895,0.01032 -0.07783,0.02179 -0.116272,0.03359 -0.01683,0.0064 -0.03346,0.01141 -0.05064,0.0155 -0.01719,0.0041 -0.03476,0.007 -0.05219,0.0098 -0.03486,0.0055 -0.07025,0.0094 -0.10542,0.0155 -0.01722,0.0048 -0.03365,0.01059 -0.05013,0.01705 -0.01648,0.0065 -0.03281,0.01373 -0.04858,0.02171 -0.01576,0.008 -0.03092,0.01648 -0.04599,0.02584 -0.01507,0.0094 -0.03004,0.01938 -0.04444,0.02997 -0.01869,0.01391 -0.03785,0.02745 -0.05736,0.04031 -0.01951,0.01286 -0.03955,0.02534 -0.05994,0.03669 -0.02039,0.01135 -0.04118,0.02161 -0.06253,0.03101 -0.02135,0.0094 -0.04327,0.01783 -0.06563,0.02481 -0.02642,0.0093 -0.04939,0.01719 -0.07028,0.02325 -0.02089,0.0061 -0.03928,0.01013 -0.05633,0.01292 -0.01705,0.0028 -0.03266,0.0041 -0.04754,0.0036 -0.01488,-5.17e-4 -0.02901,-0.0029 -0.04341,-0.0067 -0.01439,-0.0039 -0.02937,-0.0093 -0.04496,-0.01654 -0.01558,-0.0072 -0.03219,-0.01623 -0.05064,-0.02687 -0.03691,-0.02129 -0.08105,-0.0491 -0.139527,-0.08423 -0.0043,-0.0061 -0.0075,-0.01223 -0.0093,-0.01809 -0.0018,-0.0059 -0.0023,-0.01148 -0.0021,-0.01705 2.59e-4,-0.0056 0.0011,-0.01125 0.0031,-0.01654 0.002,-0.0053 0.005,-0.01052 0.0083,-0.0155 0.0066,-0.01 0.01526,-0.01921 0.0248,-0.02791 0.0095,-0.0087 0.0196,-0.01645 0.02894,-0.02377 0.01143,-0.01096 0.02387,-0.02137 0.03617,-0.03101 0.0123,-0.0096 0.02487,-0.01854 0.03772,-0.02739 0.0257,-0.0177 0.05203,-0.03438 0.07803,-0.05219 0.01592,-0.01239 0.03231,-0.02403 0.04909,-0.03462 0.01679,-0.0106 0.03374,-0.02004 0.05116,-0.02945 0.03484,-0.01884 0.07101,-0.03643 0.10697,-0.05426 0.05447,-0.0238 0.107154,-0.05066 0.160714,-0.07648 0.02678,-0.01291 0.0538,-0.02556 0.08113,-0.03721 0.02733,-0.01165 0.05531,-0.02231 0.08372,-0.03152 0.06295,-0.02561 0.126479,-0.0493 0.190686,-0.07183 0.06421,-0.02253 0.129225,-0.04398 0.193786,-0.06511 0.07053,-0.02411 0.14157,-0.04567 0.212907,-0.06718 0.07134,-0.02151 0.142676,-0.04276 0.213424,-0.06615 0.006,-0.0019 0.03746,-0.01224 0.06873,-0.02067 0.01563,-0.0042 0.03112,-0.0081 0.04341,-0.01034 0.0048,-8.61e-4 0.0057,2.93e-4 0.0093,0 -0.0036,-0.0032 -0.0075,-0.0065 -0.0098,-0.0098 -0.0034,-0.005 -0.0053,-0.0098 -0.0062,-0.01499 -9.11e-4,-0.0051 -5.79e-4,-0.01032 5.17e-4,-0.0155 0.0011,-0.0052 0.003,-0.01042 0.0057,-0.0155 0.0053,-0.01016 0.01339,-0.02002 0.02222,-0.02894 0.0088,-0.0089 0.01812,-0.0167 0.02687,-0.02325 0.01572,-0.01081 0.03143,-0.02143 0.04702,-0.03152 0.01558,-0.0101 0.0314,-0.01981 0.04754,-0.02842 0.01614,-0.0086 0.03273,-0.01639 0.05013,-0.02274 0.01739,-0.0063 0.03544,-0.01117 0.05478,-0.01447 0.04555,-0.01404 0.09182,-0.02563 0.138492,-0.03566 0.04668,-0.01002 0.09358,-0.01853 0.14056,-0.02636 0.04861,-0.0087 0.09759,-0.01529 0.146245,-0.02377 0.02432,-0.0042 0.04888,-0.0091 0.07286,-0.01499 0.02398,-0.0058 0.04739,-0.01265 0.0708,-0.02119 0.0218,-0.0049 0.04345,-0.01062 0.0646,-0.01705 0.02114,-0.0064 0.04228,-0.01329 0.06305,-0.02067 0.04156,-0.01476 0.08268,-0.03085 0.12454,-0.04599 0.0308,-0.01272 0.06096,-0.02683 0.09147,-0.04031 0.0305,-0.01348 0.0609,-0.02675 0.0925,-0.03721 0.03394,-0.01162 0.06826,-0.02188 0.10232,-0.03307 0.03406,-0.01119 0.06799,-0.02318 0.101285,-0.03669 0.03517,-0.0143 0.06879,-0.0307 0.101803,-0.04857 0.03302,-0.01787 0.06554,-0.03723 0.09818,-0.05633 0.01744,-0.0096 0.03521,-0.01814 0.05323,-0.02635 0.01802,-0.0082 0.03647,-0.01625 0.05478,-0.02377 0.03662,-0.01505 0.07348,-0.02929 0.109554,-0.04599 0.04096,-0.02229 0.08055,-0.04593 0.120406,-0.06976 0.03986,-0.02383 0.08005,-0.04797 0.120406,-0.07131 0.02367,-0.01281 0.04636,-0.02621 0.06925,-0.04031 0.02288,-0.0141 0.04581,-0.02852 0.06821,-0.04341 0.03982,-0.02646 0.07869,-0.05394 0.118339,-0.08062 A 12.435416,13.592666 0 0 0 20.37399,15.903475 c -0.01872,-0.01845 -0.03741,-0.0362 -0.05736,-0.05323 -0.02209,-0.01886 -0.04506,-0.03693 -0.06925,-0.05323 0.06016,0.03358 0.03793,0.02113 0.0677,0.03772 a 12.435416,13.592666 0 0 0 -0.0016,-0.0015 c -0.02599,-0.01462 -0.03597,-0.02057 -0.0646,-0.03669 -0.0161,-0.0091 -0.0201,-0.01139 -0.03566,-0.02015 -0.003,-0.0012 -0.0021,-8.3e-4 -0.0062,-0.0026 -0.02133,-0.01183 -0.04237,-0.0241 -0.06356,-0.03617 -0.131709,-0.07487 -0.176241,-0.09804 -0.202055,-0.112138 -0.01291,-0.0071 -0.0215,-0.01154 -0.03359,-0.01964 -0.01209,-0.0081 -0.02794,-0.01982 -0.05633,-0.03979 -0.02932,-0.02187 -0.05983,-0.04146 -0.09043,-0.0615 -0.0306,-0.02003 -0.06109,-0.04015 -0.09043,-0.06201 -0.0473,-0.03873 -0.09319,-0.07958 -0.140043,-0.118856 -0.01459,-0.01402 -0.02803,-0.02888 -0.04134,-0.04393 -0.01331,-0.01503 -0.02624,-0.03031 -0.03876,-0.04599 -0.02504,-0.03137 -0.04905,-0.06377 -0.0739,-0.0956 -0.02737,-0.03554 -0.05471,-0.07074 -0.08423,-0.104386 -0.01476,-0.01682 -0.02994,-0.03349 -0.04599,-0.04909 -0.01606,-0.01561 -0.03279,-0.03054 -0.05064,-0.04444 -0.03965,-0.03027 -0.07928,-0.06044 -0.117822,-0.09198 -0.03854,-0.03155 -0.07614,-0.06457 -0.112138,-0.09922 -0.01699,-0.01438 -0.033,-0.02928 -0.04858,-0.04496 -0.01558,-0.01568 -0.031,-0.03182 -0.04599,-0.04806 -0.01499,-0.01624 -0.02971,-0.03254 -0.04496,-0.04858 -0.01525,-0.01604 -0.03069,-0.03193 -0.04703,-0.04703 -0.02943,-0.02859 -0.05716,-0.05858 -0.08475,-0.08888 -0.02759,-0.03031 -0.05522,-0.06091 -0.08423,-0.08992 -0.03149,-0.03023 -0.06288,-0.0601 -0.09612,-0.08785 -0.01662,-0.01387 -0.03404,-0.02714 -0.05168,-0.03979 -0.01745,-0.01251 -0.03544,-0.02422 -0.05426,-0.03514 l -5.17e-4,-5.17e-4 c -0.01612,-0.0089 -0.03262,-0.01717 -0.04858,-0.02636 -0.03221,-0.0185 -0.06386,-0.03735 -0.09509,-0.05736 -0.03125,-0.02001 -0.06217,-0.04091 -0.09198,-0.06305 -0.04097,-0.03376 -0.07975,-0.06954 -0.118339,-0.105936 -0.03859,-0.0364 -0.07703,-0.0738 -0.115755,-0.110071 -0.02256,-0.02368 -0.04604,-0.04574 -0.07028,-0.0677 -0.02424,-0.02195 -0.04899,-0.04338 -0.07338,-0.06511 -0.0211,-0.01638 -0.05061,-0.03896 -0.077,-0.05943 -0.0024,-0.0019 -0.0028,-0.0028 -0.0052,-0.0047 -0.0028,-0.0018 -0.006,-0.0028 -0.0088,-0.0047 -0.03148,-0.01229 -0.04655,-0.01835 -0.05633,-0.02274 -0.0098,-0.0044 -0.01426,-0.0075 -0.02377,-0.01395 -0.0061,-0.0041 -0.02191,-0.01389 -0.03514,-0.02222 -0.01488,-0.0084 -0.02449,-0.01377 -0.03669,-0.02067 -0.08604,-0.04869 -0.172182,-0.0968 -0.258382,-0.145211 -0.01622,-0.0098 -0.02213,-0.01361 -0.02429,-0.01499 l -5.17e-4,-5.17e-4 c -0.06442,-0.02753 -0.128165,-0.05534 -0.192236,-0.08371 -0.01515,-0.0051 -0.02963,-0.01157 -0.04393,-0.0186 -0.01429,-0.007 -0.02872,-0.01439 -0.04289,-0.0217 -0.01417,-0.0073 -0.02811,-0.01477 -0.04289,-0.02067 -0.01478,-0.0059 -0.03039,-0.01061 -0.04651,-0.01344 -0.01782,-0.0066 -0.03463,-0.01338 -0.05116,-0.02119 -0.01653,-0.0078 -0.03265,-0.01629 -0.04909,-0.02584 -0.05259,-0.03053 -0.106333,-0.05896 -0.158646,-0.08888 -0.02616,-0.01496 -0.05188,-0.02998 -0.077,-0.04651 -0.02511,-0.01653 -0.04944,-0.03451 -0.07286,-0.05374 -0.05927,-0.05628 -0.120017,-0.110655 -0.179317,-0.166915 -0.02603,-0.02523 -0.05302,-0.0502 -0.0801,-0.07441 -0.0075,-0.0067 -0.01515,-0.01304 -0.02274,-0.01964 a 12.435416,13.592666 0 0 0 -0.611849,-0.261999 c -0.05026,-0.0085 -0.09995,-0.01901 -0.149345,-0.03204 l -0.06356,-0.04961 a 12.435416,13.592666 0 0 0 -4.011642,-0.728121 z m 12.373893,12.249221 -0.19327,-0.09457 c 0.0065,0.04484 0.01436,0.08999 0.01964,0.135392 0.0026,0.0227 0.0046,0.04549 0.0052,0.06821 5.47e-4,0.02272 -3.64e-4,0.04556 -0.0031,0.06821 -0.0037,0.02357 -0.0094,0.04595 -0.01705,0.0677 -0.0077,0.02174 -0.0174,0.04293 -0.02842,0.06304 -0.01103,0.02012 -0.02355,0.03919 -0.03721,0.05788 -0.01365,0.01869 -0.02835,0.0368 -0.04393,0.05426 -0.05627,0.06925 -0.114904,0.136166 -0.172083,0.204639 -0.0334,0.03674 -0.06867,0.0716 -0.104903,0.105419 -0.03623,0.03382 -0.0732,0.06658 -0.109554,0.100253 -0.01664,0.01108 -0.03265,0.02349 -0.04806,0.03617 -0.01541,0.01268 -0.03056,0.02597 -0.04548,0.03927 -0.01491,0.0133 -0.0298,0.02634 -0.04496,0.03927 -0.01516,0.01294 -0.03037,0.02562 -0.04651,0.03721 -0.01199,0.0082 -0.02459,0.01528 -0.03721,0.02171 -0.01262,0.0064 -0.02518,0.01228 -0.03824,0.01757 -0.02613,0.01058 -0.05321,0.01961 -0.0801,0.02946 -0.03393,0.0084 -0.06682,0.01892 -0.09922,0.03101 -0.0324,0.01209 -0.06405,0.02547 -0.0956,0.04031 -0.03951,0.01546 -0.01961,0.0086 -0.05994,0.02067 l 0.216008,0.146761 c 0.04163,-0.01425 0.02088,-0.0061 0.06149,-0.02325 0.03124,-0.01469 0.06328,-0.02746 0.0956,-0.03876 0.03232,-0.0113 0.06501,-0.02105 0.09819,-0.03049 0.02831,-0.0095 0.05598,-0.01988 0.08268,-0.03204 0.01335,-0.0061 0.02639,-0.01246 0.03927,-0.01964 0.01288,-0.0072 0.02535,-0.01521 0.03772,-0.02377 0.03157,-0.0247 0.0615,-0.05177 0.09147,-0.07855 0.01498,-0.01339 0.0301,-0.02635 0.04547,-0.03927 0.01537,-0.01293 0.03074,-0.02591 0.04703,-0.03772 0.03681,-0.03402 0.0748,-0.06671 0.111621,-0.100769 0.01841,-0.01703 0.03652,-0.03448 0.05426,-0.05219 0.01774,-0.01771 0.03505,-0.03594 0.05168,-0.05478 0.05709,-0.06823 0.115797,-0.134757 0.171565,-0.204122 0.01621,-0.01852 0.03171,-0.03758 0.04599,-0.05736 0.01428,-0.01978 0.02762,-0.04027 0.03927,-0.0615 0.0081,-0.01474 0.01412,-0.03049 0.02067,-0.04599 a 12.435416,13.592666 0 0 0 -0.02997,-0.38964 z"
       inkscape:label="Circle" />
    <path
       id="path2391"
       style="fill:#1a1a1a;fill-opacity:1;stroke:none;stroke-width:0.020505;stroke-linecap:round;stroke-linejoin:round;stroke-dasharray:none;stroke-opacity:0.94902"
       d="m 13.694951,24.474452 c 0,0 -2.35331,-3.818148 -2.30611,-3.9943 0.0472,-0.176152 0,3.9943 0,3.9943 z m -4.6788844,0 c 0,0 2.3533104,-3.818148 2.3061104,-3.9943 -0.0472,-0.176152 0,3.9943 0,3.9943 z m 4.9605264,0 c 0,0 -2.855539,-4.670751 -2.60413,-5.20826 m -2.6041303,5.20826 c 0,0 2.8555383,-4.670751 2.6041303,-5.20826"
       inkscape:label="Tent" />
    <path
       id="path2512"
       style="fill:#1a1a1a;stroke-width:2.1;stroke-linecap:round;stroke-linejoin:round;stroke-opacity:0.94902"
       d="M 11.923867,24.180604 A 10.711263,1.0663242 0 0 0 11.25104,24.181121 10.711263,1.0663242 0 0 0 0.98396648,25.279245 H 11.700625 22.392996 a 10.711263,1.0663242 0 0 0 -0.0031,-0.07648 10.711263,1.0663242 0 0 0 -10.466028,-1.02216 z"
       inkscape:label="Ground" />
    <g
       id="g2680"
       inkscape:label="Birds">
      <path
         id="path1983"
         style="fill:#1a1a1a;stroke:#1a1a1a;stroke-width:0.0301293;stroke-linecap:round;stroke-linejoin:round;stroke-opacity:1"
         d="m 5.8404362,12.912056 c -0.00348,-0.0063 -0.0054,-0.01152 -0.00428,-0.01152 0.00118,0 0.1926716,-0.03411 0.4256186,-0.07579 0.4587054,-0.08208 0.4518466,-0.08089 0.4489739,-0.0779 -0.00391,0.0041 -0.2006025,0.05526 -0.322807,0.08401 -0.1968615,0.04632 -0.3995627,0.08238 -0.5073238,0.09025 l -0.033871,0.0025 z m 0.87038,-0.165232 c 0,0 0.2444774,0.407277 0.4989754,0.590476 0.254498,0.183198 1.017992,0.397056 1.017992,0.397056 0,0 -1.2922136,0.142479 -1.6386495,-0.02036 -0.3464353,-0.162839 -0.7486979,-0.80194 -0.7486979,-0.80194 m 0.7486979,-0.317773 -0.8355492,-6.95e-4 c 0,0 0.010341,0.09194 -0.1423596,0.15322 -0.1526986,0.06128 -0.5185396,-0.193459 -0.6004564,0 -0.081917,0.193458 -0.041354,0.529776 0.1320211,0.478416 0.1733766,-0.05136 0.3053977,-0.397016 0.5193345,-0.305318 0.2139379,0.0917 1.0486917,-0.173098 1.0486917,-0.173098 M 6.5891341,12.594265 c 0,0 -0.1523806,-0.570156 -0.2446364,-0.671955 -0.092255,-0.101799 -0.8048501,-1.277381 -0.8048501,-1.277381 0,0 -0.010336,1.713797 0.2139373,1.948655 m 0.8355492,6.96e-4 c 0,0 0.6306781,-0.203519 0.7324775,-0.142479 0.1017994,0.06104 0.3260757,0.1729 0.3260757,0.1729 0,0 -0.1829207,0.05082 -0.3053977,0.02036 -0.1224774,-0.03046 -0.529674,0.06104 -0.6314734,0.101759"
         inkscape:label="Bird 1" />
      <path
         id="path2401"
         style="fill:#1a1a1a;stroke:#1a1a1a;stroke-width:0.0133713;stroke-linecap:round;stroke-linejoin:round;stroke-opacity:1"
         d="m 9.3983037,14.114899 c -0.00155,-0.0028 -0.0024,-0.0051 -0.0019,-0.0051 5.237e-4,0 0.085507,-0.01514 0.1888873,-0.03363 0.2035711,-0.03642 0.200527,-0.0359 0.1992522,-0.03457 -0.00172,0.0018 -0.089026,0.02452 -0.1432599,0.03728 -0.087366,0.02056 -0.1773239,0.03656 -0.2251478,0.04005 l -0.015032,0.0011 z m 0.38627,-0.07333 c 0,0 0.1084978,0.180747 0.2214423,0.262051 0.112946,0.0813 0.45178,0.176211 0.45178,0.176211 0,0 -0.5734775,0.06323 -0.7272243,-0.009 -0.1537459,-0.07227 -0.332268,-0.355899 -0.332268,-0.355899 m 0.332268,-0.141027 -0.3708122,-3.08e-4 c 0,0 0.00459,0.04081 -0.063179,0.068 -0.067767,0.0272 -0.2301252,-0.08586 -0.2664795,0 -0.036354,0.08586 -0.018353,0.235112 0.05859,0.212319 0.076944,-0.0228 0.1355339,-0.176194 0.230478,-0.135498 0.094945,0.0407 0.4654037,-0.07682 0.4654037,-0.07682 m -0.054004,-0.0677 c 0,0 -0.067625,-0.253033 -0.1085681,-0.29821 -0.040942,-0.04518 -0.3571883,-0.566896 -0.3571883,-0.566896 0,0 -0.00459,0.760575 0.094944,0.864803 m 0.3708121,3.09e-4 c 0,0 0.2798916,-0.09032 0.3250696,-0.06323 0.04518,0.02709 0.14471,0.07673 0.14471,0.07673 0,0 -0.08118,0.02255 -0.135533,0.009 -0.05436,-0.01352 -0.2350666,0.02709 -0.2802447,0.04516"
         inkscape:label="Bird 2" />
      <path
         id="path2403"
         style="fill:#1a1a1a;stroke:#1a1a1a;stroke-width:0.0133713;stroke-linecap:round;stroke-linejoin:round;stroke-opacity:1"
         d="m 7.8695606,15.571783 c -0.00155,-0.0028 -0.0024,-0.0051 -0.0019,-0.0051 5.237e-4,0 0.085507,-0.01514 0.1888873,-0.03363 0.2035711,-0.03642 0.200527,-0.0359 0.1992522,-0.03457 -0.00172,0.0018 -0.089026,0.02452 -0.1432599,0.03728 -0.087366,0.02056 -0.1773239,0.03656 -0.2251478,0.04005 l -0.015032,0.0011 z m 0.38627,-0.07333 c 0,0 0.1084978,0.180747 0.2214423,0.262051 0.112946,0.0813 0.45178,0.176211 0.45178,0.176211 0,0 -0.5734775,0.06323 -0.7272243,-0.009 -0.1537459,-0.07227 -0.332268,-0.355899 -0.332268,-0.355899 m 0.332268,-0.141027 -0.3708122,-3.08e-4 c 0,0 0.00459,0.04081 -0.063179,0.068 -0.067767,0.0272 -0.2301252,-0.08586 -0.2664795,0 -0.036354,0.08586 -0.018353,0.235112 0.05859,0.212319 0.076944,-0.0228 0.1355339,-0.176194 0.230478,-0.135498 0.094945,0.0407 0.4654037,-0.07682 0.4654037,-0.07682 m -0.054004,-0.0677 c 0,0 -0.067625,-0.253033 -0.1085681,-0.29821 -0.040942,-0.04518 -0.3571883,-0.566896 -0.3571883,-0.566896 0,0 -0.00459,0.760575 0.094944,0.864803 m 0.3708121,3.09e-4 c 0,0 0.2798916,-0.09032 0.3250696,-0.06323 0.04518,0.02709 0.14471,0.07673 0.14471,0.07673 0,0 -0.08118,0.02255 -0.135533,0.009 -0.05436,-0.01352 -0.2350666,0.02709 -0.2802447,0.04516"
         inkscape:label="Bird 3" />
    </g>
  </g>
</svg>
