<?xml version="1.0" encoding="UTF-8" standalone="no"?>
<!-- Created with Inkscape (http://www.inkscape.org/) -->

<svg
   width="719.91089"
   height="1080"
   viewBox="0 0 190.47642 285.74999"
   version="1.1"
   id="svg7111"
   inkscape:version="1.2.2 (732a01da63, 2022-12-09, custom)"
   sodipodi:docname="layout.svg"
   xmlns:inkscape="http://www.inkscape.org/namespaces/inkscape"
   xmlns:sodipodi="http://sodipodi.sourceforge.net/DTD/sodipodi-0.dtd"
   xmlns="http://www.w3.org/2000/svg"
   xmlns:svg="http://www.w3.org/2000/svg">
  <sodipodi:namedview
     id="namedview7113"
     pagecolor="#505050"
     bordercolor="#eeeeee"
     borderopacity="1"
     inkscape:showpageshadow="0"
     inkscape:pageopacity="0"
     inkscape:pagecheckerboard="0"
     inkscape:deskcolor="#505050"
     inkscape:document-units="mm"
     showgrid="false"
     inkscape:zoom="0.32346812"
     inkscape:cx="660.03413"
     inkscape:cy="1085.1147"
     inkscape:window-width="1697"
     inkscape:window-height="1392"
     inkscape:window-x="26"
     inkscape:window-y="23"
     inkscape:window-maximized="0"
     inkscape:current-layer="layer1" />
  <defs
     id="defs7108" />
  <g
     inkscape:groupmode="layer"
     id="layer12"
     inkscape:label="desktop"
     style="display:inline">
    <path
       id="path8500"
       style="fill:#808080;stroke-width:1"
       d="M 0.90891391,305.73354 H 507.96683 c 0.26083,0 0.47105,0.0788 0.47105,0.17661 v 285.39677 c 0,0.0978 -0.21016,0.17662 -0.47105,0.17662 H 0.90891391 c -0.26095548,0 -0.47103867,-0.0788 -0.47103867,-0.17662 V 305.91015 c 0,-0.0978 0.21008332,-0.17661 0.47103867,-0.17661 z" />
    <path
       id="path8503"
       style="fill:#333333;stroke-width:0.999711"
       d="M 1.2030618,305.73354 H 507.96683 c 0.26068,0 0.47077,0.0788 0.47077,0.17661 v 19.58971 c 0,0.0978 -0.21004,0.17661 -0.47077,0.17661 H 1.2030618 c -0.26080359,0 -0.47076559,-0.0788 -0.47076559,-0.17661 v -19.58971 c 0,-0.0978 0.2099628,-0.17661 0.47076559,-0.17661 z" />
    <path
       id="path8505"
       style="fill:#800000"
       d="M 5.2106421,310.05786 H 16.42282 c 0.09785,0 0.176618,0.0788 0.176618,0.17662 v 11.21217 c 0,0.0979 -0.07877,0.17662 -0.176618,0.17662 H 5.2106421 c -0.097846,0 -0.1766177,-0.0788 -0.1766177,-0.17662 v -11.21217 c 0,-0.0978 0.078771,-0.17662 0.1766177,-0.17662 z" />
    <path
       style="fill:#ffcc00;stroke:#ffcc00;stroke-width:1"
       d="m 546.62927,315.41525 -38.19139,0.57951"
       id="path8513" />
    <text
       xml:space="preserve"
       style="font-size:13.6604px;font-family:'Liberation Serif';-inkscape-font-specification:'Liberation Serif, Normal';text-align:end;text-anchor:end;fill:none;stroke:#ffd42a;stroke-width:0.553176"
       x="588.56036"
       y="319.10254"
       id="text8517"><tspan
         sodipodi:role="line"
         id="tspan8515"
         style="fill:#ffcc00;stroke:none;stroke-width:0.553176"
         x="588.56036"
         y="319.10254">header</tspan></text>
    <rect
       style="fill:#1a1a1a;stroke:none;stroke-width:0.95187"
       id="rect8527"
       width="229.57814"
       height="265.80707"
       x="278.3887"
       y="325.67645"
       ry="0.17661765" />
    <path
       style="fill:#ffcc00;stroke:#ffcc00;stroke-width:1"
       d="m 546.62927,429.11141 -38.19139,0.57951"
       id="path8529" />
    <text
       xml:space="preserve"
       style="font-size:13.6604px;font-family:'Liberation Serif';-inkscape-font-specification:'Liberation Serif, Normal';text-align:end;text-anchor:end;fill:none;stroke:#ffd42a;stroke-width:0.553176"
       x="589.61871"
       y="432.79871"
       id="text8533"><tspan
         sodipodi:role="line"
         id="tspan8531"
         style="fill:#ffcc00;stroke:none;stroke-width:0.553176"
         x="589.61871"
         y="432.79871">picture</tspan></text>
    <rect
       style="fill:#333333;stroke:none;stroke-width:1.33808"
       id="rect8697"
       width="217.92075"
       height="164.96657"
       x="27.581659"
       y="402.6416"
       ry="0.21654008" />
    <path
       id="path8677"
       style="fill:#1a1a1a;stroke-width:1.40214"
       d="M 22.462219,358.92765 H 177.81165 c 0.19247,0 0.34723,0.0788 0.34723,0.17662 v 8.89864 c 0,0.0978 -0.15492,0.17662 -0.34723,0.17662 H 22.462219 c -0.192374,0 -0.34723,-0.0788 -0.34723,-0.17662 v -8.89864 c 0,-0.0978 0.154862,-0.17662 0.34723,-0.17662 z" />
    <path
       id="path8673"
       style="fill:#1a1a1a;stroke-width:1.21529"
       d="M 5.6140113,334.62876 H 220.39853 c 0.14445,0 0.26086,0.0788 0.26086,0.17662 v 11.79508 c 0,0.0978 -0.11638,0.17662 -0.26086,0.17662 H 5.6140113 c -0.1445115,0 -0.2608516,-0.0788 -0.2608516,-0.17662 v -11.79508 c 0,-0.0978 0.1163391,-0.17662 0.2608516,-0.17662 z" />
    <path
       id="path8675"
       style="fill:#1a1a1a"
       d="M 5.5297774,358.92765 H 16.741956 c 0.09785,0 0.176618,0.0788 0.176618,0.17662 v 8.89864 c 0,0.0978 -0.07877,0.17662 -0.176618,0.17662 H 5.5297774 c -0.097846,0 -0.1766177,-0.0788 -0.1766177,-0.17662 v -8.89864 c 0,-0.0978 0.078771,-0.17662 0.1766177,-0.17662 z" />
    <path
       style="fill:#ffcc00;stroke:#ffcc00;stroke-width:1"
       d="M 0.43787511,315.34514 -37.753519,315.92466"
       id="path8507" />
    <text
       xml:space="preserve"
       style="font-size:13.6604px;font-family:'Liberation Serif';-inkscape-font-specification:'Liberation Serif, Normal';text-align:end;text-anchor:end;fill:none;stroke:#ffd42a;stroke-width:0.553176"
       x="-43.823658"
       y="319.10254"
       id="text8511"><tspan
         sodipodi:role="line"
         id="tspan8509"
         style="fill:#ffcc00;stroke:none;stroke-width:0.553176"
         x="-43.823662"
         y="319.10254">section icon</tspan></text>
    <path
       style="fill:none;stroke:#ffd42a;stroke-width:1"
       d="M 61.800519,368.17953 V 389.0036 H -32.838234"
       id="path8679" />
    <text
       xml:space="preserve"
       style="font-size:13.6604px;font-family:'Liberation Serif';-inkscape-font-specification:'Liberation Serif, Normal';text-align:end;text-anchor:end;fill:none;stroke:#ffd42a;stroke-width:0.553176"
       x="-37.287529"
       y="394.17603"
       id="text8683"><tspan
         sodipodi:role="line"
         id="tspan8681"
         style="fill:#ffcc00;stroke:none;stroke-width:0.553176"
         x="-37.287529"
         y="394.17603">section title</tspan></text>
    <text
       xml:space="preserve"
       style="font-size:13.6604px;font-family:'Liberation Serif';-inkscape-font-specification:'Liberation Serif, Normal';text-align:end;text-anchor:end;fill:none;stroke:#ffd42a;stroke-width:0.553176"
       x="-39.03511"
       y="367.72607"
       id="text8687"><tspan
         sodipodi:role="line"
         id="tspan8685"
         style="fill:#ffcc00;stroke:none;stroke-width:0.553176"
         x="-39.03511"
         y="367.72607">counter</tspan></text>
    <path
       style="fill:#ffcc00;stroke:#ffcc00;stroke-width:1"
       d="m 5.3531596,341.28413 -38.1913936,0.57951"
       id="path8689" />
    <text
       xml:space="preserve"
       style="font-size:13.6604px;font-family:'Liberation Serif';-inkscape-font-specification:'Liberation Serif, Normal';text-align:end;text-anchor:end;fill:none;stroke:#ffd42a;stroke-width:0.553176"
       x="-39.03511"
       y="344.56281"
       id="text8693"><tspan
         sodipodi:role="line"
         id="tspan8691"
         style="fill:#ffcc00;stroke:none;stroke-width:0.553176"
         x="-39.03511"
         y="344.56281">hook text</tspan></text>
    <path
       style="fill:#ffcc00;stroke:#ffcc00;stroke-width:1"
       d="M 5.3531596,363.55359 -32.838234,364.1331"
       id="path8695" />
    <path
       style="fill:#ffcc00;stroke:#ffcc00;stroke-width:1"
       d="m 3.7795819,525.8398 -38.1913999,0.57952"
       id="path8699" />
    <text
       xml:space="preserve"
       style="font-size:13.6604px;font-family:'Liberation Serif';-inkscape-font-specification:'Liberation Serif, Normal';text-align:end;text-anchor:end;fill:none;stroke:#ffd42a;stroke-width:0.553176"
       x="-45.698559"
       y="529.79547"
       id="text8703"><tspan
         sodipodi:role="line"
         id="tspan8701"
         style="fill:#ffcc00;stroke:none;stroke-width:0.553176"
         x="-45.698559"
         y="529.79547">main</tspan></text>
    <text
       xml:space="preserve"
       style="font-size:13.6604px;font-family:'Liberation Serif';-inkscape-font-specification:'Liberation Serif, Normal';text-align:end;text-anchor:end;fill:none;stroke:#ffd42a;stroke-width:0.553176"
       x="198.34935"
       y="627.12183"
       id="text8707"><tspan
         sodipodi:role="line"
         id="tspan8705"
         style="fill:#ffcc00;stroke:none;stroke-width:0.553176"
         x="198.34933"
         y="627.12183">specific section contents</tspan></text>
    <path
       style="fill:#ffcc00;stroke:#ffcc00;stroke-width:1"
       d="m 122.42893,605.79957 -0.57952,-38.1914"
       id="path8709" />
  </g>
  <g
     inkscape:label="mobile"
     inkscape:groupmode="layer"
     id="layer1"
     style="display:inline">
    <path
       id="rect7232"
       style="fill:#808080;stroke-width:0.612335"
       d="M 0.17661765,0 H 190.29981 c 0.0978,0 0.17662,0.07877147 0.17662,0.17661765 V 285.57338 c 0,0.0978 -0.0788,0.17662 -0.17662,0.17662 H 0.17661765 C 0.07877147,285.75 0,285.67123 0,285.57338 V 0.17661765 C 0,0.07877147 0.07877147,0 0.17661765,0 Z" />
    <path
       id="rect7286"
       style="fill:#333333;stroke-width:0.612335"
       d="M 0.17661765,0 H 190.29981 c 0.0978,0 0.17662,0.07877147 0.17662,0.17661765 V 19.76632 c 0,0.09785 -0.0788,0.176618 -0.17662,0.176618 H 0.17661765 C 0.07877147,19.942938 0,19.864166 0,19.76632 V 0.17661765 C 0,0.07877147 0.07877147,0 0.17661765,0 Z" />
    <path
       id="rect7392"
       style="fill:#800000"
       d="M 4.4783459,4.3243213 H 15.690524 c 0.09785,0 0.176618,0.078771 0.176618,0.1766176 V 15.713117 c 0,0.09785 -0.07877,0.176618 -0.176618,0.176618 H 4.4783459 c -0.097846,0 -0.1766177,-0.07877 -0.1766177,-0.176618 V 4.5009389 c 0,-0.097846 0.078771,-0.1766176 0.1766177,-0.1766176 z" />
    <path
       id="rect7446"
       style="fill:#1a1a1a"
       d="M 4.4783459,30.351585 H 149.90491 c 0.0978,0 0.17662,0.07877 0.17662,0.176618 v 11.79508 c 0,0.09785 -0.0788,0.176618 -0.17662,0.176618 H 4.4783459 c -0.097846,0 -0.1766177,-0.07877 -0.1766177,-0.176618 v -11.79508 c 0,-0.09785 0.078771,-0.176618 0.1766177,-0.176618 z" />
    <path
       id="rect7500"
       style="fill:#1a1a1a"
       d="M 4.4783459,54.650475 H 15.690524 c 0.09785,0 0.176618,0.07877 0.176618,0.176617 v 8.898644 c 0,0.09785 -0.07877,0.176617 -0.176618,0.176617 H 4.4783459 c -0.097846,0 -0.1766177,-0.07877 -0.1766177,-0.176617 v -8.898644 c 0,-0.09785 0.078771,-0.176617 0.1766177,-0.176617 z" />
    <path
       id="rect7502"
       style="fill:#1a1a1a"
       d="M 21.240174,54.650475 H 100.258 c 0.0979,0 0.17662,0.07877 0.17662,0.176617 v 8.898644 c 0,0.09785 -0.0788,0.176617 -0.17662,0.176617 H 21.240174 c -0.09785,0 -0.176617,-0.07877 -0.176617,-0.176617 v -8.898644 c 0,-0.09785 0.07877,-0.176617 0.176617,-0.176617 z" />
    <path
       style="fill:none;stroke:#ffd42a;stroke-width:1"
       d="M 60.749087,63.902351 V 84.726424 H -33.889666"
       id="path7590" />
    <text
       xml:space="preserve"
       style="font-size:13.6604px;font-family:'Liberation Serif';-inkscape-font-specification:'Liberation Serif, Normal';text-align:end;text-anchor:end;fill:none;stroke:#ffd42a;stroke-width:0.553176"
       x="-38.338959"
       y="89.898842"
       id="text7700"><tspan
         sodipodi:role="line"
         id="tspan7698"
         style="fill:#ffcc00;stroke:none;stroke-width:0.553176"
         x="-38.338959"
         y="89.898842">section title</tspan></text>
    <text
       xml:space="preserve"
       style="font-size:13.6604px;font-family:'Liberation Serif';-inkscape-font-specification:'Liberation Serif, Normal';text-align:end;text-anchor:end;fill:none;stroke:#ffd42a;stroke-width:0.553176"
       x="-40.08654"
       y="63.448887"
       id="text7700-5"><tspan
         sodipodi:role="line"
         id="tspan7698-0"
         style="fill:#ffcc00;stroke:none;stroke-width:0.553176"
         x="-40.08654"
         y="63.448887">counter</tspan></text>
    <path
       style="fill:#ffcc00;stroke:#ffcc00;stroke-width:1"
       d="M 4.3017281,59.276413 -33.889666,59.855927"
       id="path7756" />
    <path
       style="fill:#ffcc00;stroke:#ffcc00;stroke-width:1"
       d="M 4.3017281,37.006949 -33.889666,37.586463"
       id="path7942" />
    <text
       xml:space="preserve"
       style="font-size:13.6604px;font-family:'Liberation Serif';-inkscape-font-specification:'Liberation Serif, Normal';text-align:end;text-anchor:end;fill:none;stroke:#ffd42a;stroke-width:0.553176"
       x="-40.08654"
       y="40.285629"
       id="text7962"><tspan
         sodipodi:role="line"
         id="tspan7960"
         style="fill:#ffcc00;stroke:none;stroke-width:0.553176"
         x="-40.08654"
         y="40.285629">hook text</tspan></text>
    <path
       style="fill:#ffcc00;stroke:#ffcc00;stroke-width:1"
       d="M 4.3017282,9.6116046 -33.889666,10.191119"
       id="path7964" />
    <text
       xml:space="preserve"
       style="font-size:13.6604px;font-family:'Liberation Serif';-inkscape-font-specification:'Liberation Serif, Normal';text-align:end;text-anchor:end;fill:none;stroke:#ffd42a;stroke-width:0.553176"
       x="-39.959808"
       y="13.369"
       id="text8033"><tspan
         sodipodi:role="line"
         id="tspan8031"
         style="fill:#ffcc00;stroke:none;stroke-width:0.553176"
         x="-39.959812"
         y="13.369">section icon</tspan></text>
    <path
       style="fill:#ffcc00;stroke:#ffcc00;stroke-width:1"
       d="m 228.8248,9.681712 -38.19139,0.579514"
       id="path8035" />
    <text
       xml:space="preserve"
       style="font-size:13.6604px;font-family:'Liberation Serif';-inkscape-font-specification:'Liberation Serif, Normal';text-align:end;text-anchor:end;fill:none;stroke:#ffd42a;stroke-width:0.553176"
       x="270.75589"
       y="13.369"
       id="text8039"><tspan
         sodipodi:role="line"
         id="tspan8037"
         style="fill:#ffcc00;stroke:none;stroke-width:0.553176"
         x="270.75589"
         y="13.369">header</tspan></text>
    <path
       style="fill:#ffcc00;stroke:#ffcc00;stroke-width:1"
       d="M 4.3017281,59.276413 -33.889666,59.855927"
       id="path8244" />
    <path
       style="fill:#ffcc00;stroke:#ffcc00;stroke-width:1"
       d="m 228.67541,120.2031 -38.1914,0.57952"
       id="path8246" />
    <text
       xml:space="preserve"
       style="font-size:13.6604px;font-family:'Liberation Serif';-inkscape-font-specification:'Liberation Serif, Normal';text-align:end;text-anchor:end;fill:none;stroke:#ffd42a;stroke-width:0.553176"
       x="270.75589"
       y="124.37557"
       id="text8250"><tspan
         sodipodi:role="line"
         id="tspan8248"
         style="fill:#ffcc00;stroke:none;stroke-width:0.553176"
         x="270.75589"
         y="124.37557">main</tspan></text>
    <rect
       style="fill:#333333;stroke:none;stroke-width:1"
       id="rect8304"
       width="149.22507"
       height="134.55249"
       x="21.063557"
       y="128.20374"
       ry="0.17661765" />
    <path
       style="fill:#ffcc00;stroke:#ffcc00;stroke-width:1"
       d="m 208.48002,194.90046 -38.1914,0.57952"
       id="path8358" />
    <text
       xml:space="preserve"
       style="font-size:13.6604px;font-family:'Liberation Serif';-inkscape-font-specification:'Liberation Serif, Normal';text-align:end;text-anchor:end;fill:none;stroke:#ffd42a;stroke-width:0.553176"
       x="345.11655"
       y="198.57298"
       id="text8362"><tspan
         sodipodi:role="line"
         id="tspan8360"
         style="fill:#ffcc00;stroke:none;stroke-width:0.553176"
         x="345.11655"
         y="198.57298">specific section contents</tspan></text>
  </g>
</svg>
