<?xml version="1.0" encoding="UTF-8" standalone="no"?>
<!-- Created with Inkscape (http://www.inkscape.org/) -->

<svg
   width="210mm"
   height="297mm"
   viewBox="0 0 210 297"
   version="1.1"
   id="svg5"
   xml:space="preserve"
   inkscape:version="1.2.2 (732a01da63, 2022-12-09, custom)"
   sodipodi:docname="CV.svg"
   xmlns:inkscape="http://www.inkscape.org/namespaces/inkscape"
   xmlns:sodipodi="http://sodipodi.sourceforge.net/DTD/sodipodi-0.dtd"
   xmlns="http://www.w3.org/2000/svg"
   xmlns:svg="http://www.w3.org/2000/svg"><sodipodi:namedview
     id="namedview7"
     pagecolor="#505050"
     bordercolor="#eeeeee"
     borderopacity="1"
     inkscape:showpageshadow="0"
     inkscape:pageopacity="0"
     inkscape:pagecheckerboard="0"
     inkscape:deskcolor="#505050"
     inkscape:document-units="mm"
     showgrid="false"
     inkscape:zoom="0.64693624"
     inkscape:cx="708.72518"
     inkscape:cy="360.15914"
     inkscape:window-width="2109"
     inkscape:window-height="1400"
     inkscape:window-x="26"
     inkscape:window-y="23"
     inkscape:window-maximized="0"
     inkscape:current-layer="layer1" /><defs
     id="defs2" /><g
     inkscape:label="Layer 1"
     inkscape:groupmode="layer"
     id="layer1"><rect
       style="fill:#ffffff;stroke:none;stroke-width:2.1;stroke-linecap:round;stroke-linejoin:round;stroke-opacity:0.94902;fill-opacity:1"
       id="rect184"
       width="210"
       height="297"
       x="0"
       y="0"
       ry="2.8532848" /><path
       style="fill:#e5e5e5;fill-opacity:1;stroke:#e5e5e5;stroke-width:0.3;stroke-linecap:round;stroke-linejoin:round;stroke-dasharray:none;stroke-opacity:0.94902"
       id="path1422"
       sodipodi:type="arc"
       sodipodi:cx="27.570374"
       sodipodi:cy="25.300259"
       sodipodi:rx="16.187963"
       sodipodi:ry="16.187963"
       sodipodi:start="2.5280952"
       sodipodi:end="2.5245423"
       sodipodi:arc-type="arc"
       d="m 14.334456,34.620165 a 16.187963,16.187963 0 0 1 3.904258,-22.54754 16.187963,16.187963 0 0 1 22.551,3.884229 16.187963,16.187963 0 0 1 -3.864198,22.55444 16.187963,16.187963 0 0 1 -22.557864,-3.844162"
       sodipodi:open="true" /><path
       style="fill:#ffffff;fill-opacity:1;stroke:#e5e5e5;stroke-width:0.3;stroke-linecap:round;stroke-linejoin:round;stroke-dasharray:none;stroke-opacity:0.94902"
       d="M 144.13953,9.111804 V 287.8882"
       id="path1260" /><path
       id="path2194"
       style="fill:#999999;stroke-width:0.0377034;opacity:1"
       d="M 27.534753 11.777576 C 26.469424 11.779162 25.410272 12.062117 24.506514 12.620935 C 23.03744 13.52932 22.069097 14.914768 21.703585 16.63206 C 21.591355 17.159573 21.580569 18.314164 21.682914 18.838127 C 21.824121 19.561279 22.096086 20.29221 22.433256 20.855058 C 23.422764 22.506849 25.026482 23.5383 26.967863 23.771159 C 27.030077 23.778879 27.276122 23.786146 27.5146 23.789246 C 30.358006 23.821463 32.792478 21.834532 33.402612 18.983854 C 33.479452 18.62461 33.490312 18.473272 33.488912 17.763257 C 33.487532 17.072556 33.475126 16.898537 33.405196 16.585034 C 32.99433 14.74259 31.882291 13.271263 30.266886 12.43335 C 29.419486 11.993809 28.47475 11.776176 27.534753 11.777576 z M 28.802893 26.742037 C 28.384233 26.742065 27.899795 26.742813 27.345101 26.745138 C 24.49203 26.757178 24.104353 26.766003 23.811983 26.824202 C 22.524471 27.080356 21.421073 27.655335 20.525362 28.537276 C 19.603253 29.445183 19.025115 30.498025 18.722371 31.819763 L 18.638656 32.184599 L 18.626253 37.058203 L 18.621602 38.9816 C 18.694748 39.033277 27.299121 45.085193 36.525936 38.940259 L 36.525936 37.410636 C 36.525936 34.506914 36.511765 32.750637 36.486145 32.499825 C 36.177798 29.477775 33.887662 27.126992 30.908191 26.774076 C 30.722211 26.752014 30.058873 26.741951 28.802893 26.742037 z " /><rect
       style="opacity:1;fill:#e5e5e5;fill-opacity:1;stroke:none;stroke-width:0.3;stroke-linecap:round;stroke-linejoin:round;stroke-dasharray:none;stroke-opacity:0.94902"
       id="rect2767"
       width="51.74646"
       height="16.971031"
       x="52.854141"
       y="16.81473"
       ry="3.0705385" /><rect
       style="opacity:1;fill:#d9739c;fill-opacity:1;stroke:none;stroke-width:0.196777;stroke-linecap:round;stroke-linejoin:round;stroke-dasharray:none;stroke-opacity:0.94902"
       id="rect2830"
       width="50.875015"
       height="7.4265714"
       x="11.088428"
       y="56.427231"
       ry="1.3436763" /><rect
       style="opacity:1;fill:#e5e5e5;fill-opacity:1;stroke:none;stroke-width:0.550011;stroke-linecap:round;stroke-linejoin:round;stroke-dasharray:none;stroke-opacity:0.94902"
       id="rect2832"
       width="119.11912"
       height="24.78034"
       x="14.274056"
       y="72.052628"
       ry="4.4834628" /><rect
       style="opacity:1;fill:#d9739c;fill-opacity:1;stroke:none;stroke-width:0.196777;stroke-linecap:round;stroke-linejoin:round;stroke-dasharray:none;stroke-opacity:0.94902"
       id="rect2968"
       width="50.875015"
       height="7.4265714"
       x="11.088428"
       y="109.21604"
       ry="1.3436763" /><rect
       style="opacity:1;fill:#e5e5e5;fill-opacity:1;stroke:none;stroke-width:0.981146;stroke-linecap:round;stroke-linejoin:round;stroke-dasharray:none;stroke-opacity:0.94902"
       id="rect2970"
       width="119.11912"
       height="78.855827"
       x="14.274056"
       y="124.84144"
       ry="14.267241" /><rect
       style="opacity:1;fill:#d9739c;fill-opacity:1;stroke:none;stroke-width:0.196777;stroke-linecap:round;stroke-linejoin:round;stroke-dasharray:none;stroke-opacity:0.94902"
       id="rect2972"
       width="50.875015"
       height="7.4265714"
       x="11.088428"
       y="216.08034"
       ry="1.3436763" /><rect
       style="opacity:1;fill:#e5e5e5;fill-opacity:1;stroke:none;stroke-width:0.794225;stroke-linecap:round;stroke-linejoin:round;stroke-dasharray:none;stroke-opacity:0.94902"
       id="rect2974"
       width="119.11912"
       height="51.671803"
       x="14.274056"
       y="231.70573"
       ry="9.3488846" /><rect
       style="opacity:1;fill:#e5e5e5;fill-opacity:1;stroke:none;stroke-width:0.359445;stroke-linecap:round;stroke-linejoin:round;stroke-dasharray:none;stroke-opacity:0.94902"
       id="rect3072"
       width="50.875015"
       height="24.78034"
       x="153.35725"
       y="31.276581"
       ry="5.7815771" /><rect
       style="opacity:1;fill:#d9739c;fill-opacity:1;stroke:none;stroke-width:0.196777;stroke-linecap:round;stroke-linejoin:round;stroke-dasharray:none;stroke-opacity:0.94902"
       id="rect3126"
       width="50.875015"
       height="7.4265714"
       x="153.35725"
       y="17.672138"
       ry="1.3436763" /><rect
       style="opacity:1;fill:#d9739c;fill-opacity:1;stroke:none;stroke-width:0.196777;stroke-linecap:round;stroke-linejoin:round;stroke-dasharray:none;stroke-opacity:0.94902"
       id="rect3128"
       width="50.875015"
       height="7.4265714"
       x="153.35725"
       y="75.564613"
       ry="1.3436763" /><g
       id="g3488"><path
         id="rect3130"
         style="opacity:1;fill:#d9739c;fill-opacity:1;stroke:none;stroke-width:0.107476;stroke-linecap:round;stroke-linejoin:round;stroke-dasharray:none;stroke-opacity:0.94902"
         d="M 153.35705 96.832849 L 153.35705 99.048218 L 178.79477 99.048218 L 178.79477 96.832849 L 153.35705 96.832849 z " /><path
         id="path3135"
         style="opacity:1;fill:#e5e5e5;fill-opacity:1;stroke:none;stroke-width:0.107476;stroke-linecap:round;stroke-linejoin:round;stroke-dasharray:none;stroke-opacity:0.94902"
         d="m 178.79455,96.832849 v 2.215369 h 25.43772 v -2.215369 z" /></g><g
       id="g3492"><path
         id="path3137"
         style="opacity:1;fill:#d9739c;fill-opacity:1;stroke:none;stroke-width:0.151151;stroke-linecap:round;stroke-linejoin:round;stroke-dasharray:none;stroke-opacity:0.94902"
         d="m 153.51521,103.53408 v 2.21537 h 50.31272 v -2.21537 z" /><path
         id="path3163"
         style="opacity:1;fill:#e5e5e5;fill-opacity:1;stroke:none;stroke-width:0.0809328;stroke-linecap:round;stroke-linejoin:round;stroke-dasharray:none;stroke-opacity:0.94902"
         d="m 190.80279,103.43987 v 2.40379 h 13.29392 v -2.40379 z" /></g><g
       id="g3496"><path
         id="path3165"
         style="opacity:1;fill:#d9739c;fill-opacity:1;stroke:none;stroke-width:0.151151;stroke-linecap:round;stroke-linejoin:round;stroke-dasharray:none;stroke-opacity:0.94902"
         d="M 153.51518 110.23513 L 153.51518 112.4505 L 166.07617 112.4505 L 166.07617 110.23513 L 153.51518 110.23513 z " /><path
         id="path3482"
         style="opacity:1;fill:#e5e5e5;fill-opacity:1;stroke:none;stroke-width:0.131396;stroke-linecap:round;stroke-linejoin:round;stroke-dasharray:none;stroke-opacity:0.94902"
         d="m 166.07591,110.23531 v 2.21537 h 38.0208 v -2.21537 z" /></g><rect
       style="opacity:1;fill:#d9739c;fill-opacity:1;stroke:none;stroke-width:0.196777;stroke-linecap:round;stroke-linejoin:round;stroke-dasharray:none;stroke-opacity:0.94902"
       id="rect3498"
       width="50.875015"
       height="7.4265714"
       x="153.35725"
       y="155.91901"
       ry="1.3436763" /><g
       id="g3504"
       transform="translate(0,80.354391)"><path
         id="path3500"
         style="opacity:1;fill:#d9739c;fill-opacity:1;stroke:none;stroke-width:0.107476;stroke-linecap:round;stroke-linejoin:round;stroke-dasharray:none;stroke-opacity:0.94902"
         d="m 153.35705,96.832849 v 2.215369 h 25.43772 v -2.215369 z" /><path
         id="path3502"
         style="opacity:1;fill:#e5e5e5;fill-opacity:1;stroke:none;stroke-width:0.107476;stroke-linecap:round;stroke-linejoin:round;stroke-dasharray:none;stroke-opacity:0.94902"
         d="m 178.79455,96.832849 v 2.215369 h 25.43772 v -2.215369 z" /></g><g
       id="g3510"
       transform="translate(0,80.354391)"><path
         id="path3506"
         style="opacity:1;fill:#d9739c;fill-opacity:1;stroke:none;stroke-width:0.151151;stroke-linecap:round;stroke-linejoin:round;stroke-dasharray:none;stroke-opacity:0.94902"
         d="m 153.51521,103.53408 v 2.21537 h 50.31272 v -2.21537 z" /><path
         id="path3508"
         style="opacity:1;fill:#e5e5e5;fill-opacity:1;stroke:none;stroke-width:0.0809328;stroke-linecap:round;stroke-linejoin:round;stroke-dasharray:none;stroke-opacity:0.94902"
         d="m 190.80279,103.43987 v 2.40379 h 13.29392 v -2.40379 z" /></g><g
       id="g3516"
       transform="translate(0,80.354391)"><path
         id="path3512"
         style="opacity:1;fill:#d9739c;fill-opacity:1;stroke:none;stroke-width:0.151151;stroke-linecap:round;stroke-linejoin:round;stroke-dasharray:none;stroke-opacity:0.94902"
         d="m 153.51518,110.23513 v 2.21537 h 12.56099 v -2.21537 z" /><path
         id="path3514"
         style="opacity:1;fill:#e5e5e5;fill-opacity:1;stroke:none;stroke-width:0.131396;stroke-linecap:round;stroke-linejoin:round;stroke-dasharray:none;stroke-opacity:0.94902"
         d="m 166.07591,110.23531 v 2.21537 h 38.0208 v -2.21537 z" /></g><rect
       style="opacity:1;fill:#d9739c;fill-opacity:1;stroke:none;stroke-width:0.196777;stroke-linecap:round;stroke-linejoin:round;stroke-dasharray:none;stroke-opacity:0.94902"
       id="rect3664"
       width="50.875015"
       height="7.4265714"
       x="153.35725"
       y="236.27339"
       ry="1.3436763" /><g
       id="g3670"
       transform="translate(0,160.70879)"><path
         id="path3666"
         style="opacity:1;fill:#d9739c;fill-opacity:1;stroke:none;stroke-width:0.107476;stroke-linecap:round;stroke-linejoin:round;stroke-dasharray:none;stroke-opacity:0.94902"
         d="m 153.35705,96.832849 v 2.215369 h 25.43772 v -2.215369 z" /><path
         id="path3668"
         style="opacity:1;fill:#e5e5e5;fill-opacity:1;stroke:none;stroke-width:0.107476;stroke-linecap:round;stroke-linejoin:round;stroke-dasharray:none;stroke-opacity:0.94902"
         d="m 178.79455,96.832849 v 2.215369 h 25.43772 v -2.215369 z" /></g><g
       id="g3676"
       transform="translate(0,160.70879)"><path
         id="path3672"
         style="opacity:1;fill:#d9739c;fill-opacity:1;stroke:none;stroke-width:0.151151;stroke-linecap:round;stroke-linejoin:round;stroke-dasharray:none;stroke-opacity:0.94902"
         d="m 153.51521,103.53408 v 2.21537 h 50.31272 v -2.21537 z" /><path
         id="path3674"
         style="opacity:1;fill:#e5e5e5;fill-opacity:1;stroke:none;stroke-width:0.0809328;stroke-linecap:round;stroke-linejoin:round;stroke-dasharray:none;stroke-opacity:0.94902"
         d="m 190.80279,103.43987 v 2.40379 h 13.29392 v -2.40379 z" /></g><g
       id="g3682"
       transform="translate(0,160.70879)"><path
         id="path3678"
         style="opacity:1;fill:#d9739c;fill-opacity:1;stroke:none;stroke-width:0.151151;stroke-linecap:round;stroke-linejoin:round;stroke-dasharray:none;stroke-opacity:0.94902"
         d="m 153.51518,110.23513 v 2.21537 h 12.56099 v -2.21537 z" /><path
         id="path3680"
         style="opacity:1;fill:#e5e5e5;fill-opacity:1;stroke:none;stroke-width:0.131396;stroke-linecap:round;stroke-linejoin:round;stroke-dasharray:none;stroke-opacity:0.94902"
         d="m 166.07591,110.23531 v 2.21537 h 38.0208 v -2.21537 z" /></g></g></svg>
