<?xml version="1.0" encoding="UTF-8" standalone="no"?>
<!-- Created with Inkscape (http://www.inkscape.org/) -->

<svg
   width="210mm"
   height="297mm"
   viewBox="0 0 210 297"
   version="1.1"
   id="svg5"
   xml:space="preserve"
   inkscape:version="1.2.2 (732a01da63, 2022-12-09, custom)"
   sodipodi:docname="CV_layout.svg"
   xmlns:inkscape="http://www.inkscape.org/namespaces/inkscape"
   xmlns:sodipodi="http://sodipodi.sourceforge.net/DTD/sodipodi-0.dtd"
   xmlns="http://www.w3.org/2000/svg"
   xmlns:svg="http://www.w3.org/2000/svg"><sodipodi:namedview
     id="namedview7"
     pagecolor="#505050"
     bordercolor="#eeeeee"
     borderopacity="1"
     inkscape:showpageshadow="0"
     inkscape:pageopacity="0"
     inkscape:pagecheckerboard="0"
     inkscape:deskcolor="#505050"
     inkscape:document-units="mm"
     showgrid="false"
     inkscape:zoom="0.64693624"
     inkscape:cx="1544.2016"
     inkscape:cy="764.37208"
     inkscape:window-width="5120"
     inkscape:window-height="1403"
     inkscape:window-x="0"
     inkscape:window-y="0"
     inkscape:window-maximized="1"
     inkscape:current-layer="layer1" /><defs
     id="defs2" /><g
     inkscape:label="Layer 1"
     inkscape:groupmode="layer"
     id="layer1"><g
       id="g377"><rect
         style="fill:#ffffff;fill-opacity:1;stroke:none;stroke-width:2.10035;stroke-linecap:round;stroke-linejoin:round;stroke-opacity:0.94902"
         id="rect184"
         width="210"
         height="297.10001"
         x="0"
         y="0"
         ry="2.8542454" /><path
         style="fill:#e5e5e5;fill-opacity:1;stroke:none;stroke-width:0.300051;stroke-linecap:round;stroke-linejoin:round;stroke-dasharray:none;stroke-opacity:0.94902"
         id="path1422"
         sodipodi:type="arc"
         sodipodi:cx="27.570374"
         sodipodi:cy="25.308777"
         sodipodi:rx="16.187963"
         sodipodi:ry="16.193415"
         sodipodi:start="2.5280952"
         sodipodi:end="2.5245423"
         sodipodi:arc-type="arc"
         d="m 14.334456,34.631822 a 16.187963,16.193415 0 0 1 3.904258,-22.555133 16.187963,16.193415 0 0 1 22.551,3.885537 16.187963,16.193415 0 0 1 -3.864198,22.562035 16.187963,16.193415 0 0 1 -22.557864,-3.845456"
         sodipodi:open="true" /><path
         style="fill:#ffffff;fill-opacity:1;stroke:none;stroke-width:0.300051;stroke-linecap:round;stroke-linejoin:round;stroke-dasharray:none;stroke-opacity:0.94902"
         d="M 144.13953,9.1148719 V 287.98513"
         id="path1260" /><path
         id="path2194"
         style="opacity:1;fill:#999999;stroke:none;stroke-width:0.0377097"
         d="m 27.534753,11.781542 c -1.065329,0.0016 -2.124481,0.284636 -3.028239,0.843642 -1.469074,0.908691 -2.437417,2.294606 -2.802929,4.012476 -0.11223,0.527691 -0.123016,1.68267 -0.02067,2.20681 0.141207,0.723395 0.413172,1.454572 0.750342,2.01761 0.989508,1.652347 2.593226,2.684145 4.534607,2.917083 0.06221,0.0077 0.308259,0.01499 0.546737,0.01809 2.843406,0.03223 5.277878,-1.955372 5.888012,-4.80701 0.07684,-0.359365 0.0877,-0.510754 0.0863,-1.221008 -0.0014,-0.690934 -0.01379,-0.865011 -0.08372,-1.17862 -0.410866,-1.843064 -1.522905,-3.314887 -3.13831,-4.153082 -0.8474,-0.439689 -1.792136,-0.657395 -2.732133,-0.655994 z m 1.26814,14.969499 c -0.41866,2.8e-5 -0.903098,7.76e-4 -1.457792,0.0031 -2.853071,0.01204 -3.240748,0.02087 -3.533118,0.07909 -1.287512,0.25624 -2.39091,0.831413 -3.286621,1.713651 -0.922109,0.908212 -1.500247,1.961409 -1.802991,3.283592 l -0.08371,0.364959 -0.0124,4.875245 -0.0047,1.924044 c 0.07315,0.05169 8.677519,6.105648 17.904334,-0.04136 v -1.530138 c 0,-2.9047 -0.01417,-4.661568 -0.03979,-4.912464 -0.308347,-3.023068 -2.598483,-5.374642 -5.577954,-5.727677 -0.18598,-0.02207 -0.849318,-0.03214 -2.105298,-0.03205 z" /><rect
         style="opacity:1;fill:#e5e5e5;fill-opacity:1;stroke:none;stroke-width:0.300051;stroke-linecap:round;stroke-linejoin:round;stroke-dasharray:none;stroke-opacity:0.94902"
         id="rect2767"
         width="51.74646"
         height="16.976746"
         x="52.854141"
         y="16.820391"
         ry="3.0715723" /><rect
         style="opacity:1;fill:#d9739c;fill-opacity:1;stroke:none;stroke-width:0.19681;stroke-linecap:round;stroke-linejoin:round;stroke-dasharray:none;stroke-opacity:0.94902"
         id="rect2830"
         width="50.875015"
         height="7.4290719"
         x="11.088428"
         y="56.446228"
         ry="1.3441287" /><rect
         style="opacity:1;fill:#e5e5e5;fill-opacity:1;stroke:none;stroke-width:0.550104;stroke-linecap:round;stroke-linejoin:round;stroke-dasharray:none;stroke-opacity:0.94902"
         id="rect2832"
         width="119.11912"
         height="24.788683"
         x="14.274056"
         y="72.076889"
         ry="4.4849725" /><rect
         style="opacity:1;fill:#d9739c;fill-opacity:1;stroke:none;stroke-width:0.19681;stroke-linecap:round;stroke-linejoin:round;stroke-dasharray:none;stroke-opacity:0.94902"
         id="rect2968"
         width="50.875015"
         height="7.4290719"
         x="11.088428"
         y="109.25282"
         ry="1.3441287" /><rect
         style="opacity:1;fill:#e5e5e5;fill-opacity:1;stroke:none;stroke-width:0.981311;stroke-linecap:round;stroke-linejoin:round;stroke-dasharray:none;stroke-opacity:0.94902"
         id="rect2970"
         width="119.11912"
         height="78.882378"
         x="14.274056"
         y="124.88348"
         ry="14.272044" /><rect
         style="opacity:1;fill:#d9739c;fill-opacity:1;stroke:none;stroke-width:0.19681;stroke-linecap:round;stroke-linejoin:round;stroke-dasharray:none;stroke-opacity:0.94902"
         id="rect2972"
         width="50.875015"
         height="7.4290719"
         x="11.088428"
         y="216.15309"
         ry="1.3441287" /><rect
         style="opacity:1;fill:#e5e5e5;fill-opacity:1;stroke:none;stroke-width:0.794359;stroke-linecap:round;stroke-linejoin:round;stroke-dasharray:none;stroke-opacity:0.94902"
         id="rect2974"
         width="119.11912"
         height="51.689201"
         x="14.274056"
         y="231.78375"
         ry="9.3520327" /><rect
         style="opacity:1;fill:#e5e5e5;fill-opacity:1;stroke:none;stroke-width:0.359506;stroke-linecap:round;stroke-linejoin:round;stroke-dasharray:none;stroke-opacity:0.94902"
         id="rect3072"
         width="50.875015"
         height="24.788683"
         x="153.35725"
         y="31.287111"
         ry="5.7835236" /><rect
         style="opacity:1;fill:#d9739c;fill-opacity:1;stroke:none;stroke-width:0.19681;stroke-linecap:round;stroke-linejoin:round;stroke-dasharray:none;stroke-opacity:0.94902"
         id="rect3126"
         width="50.875015"
         height="7.4290719"
         x="153.35725"
         y="17.678089"
         ry="1.3441287" /><rect
         style="opacity:1;fill:#d9739c;fill-opacity:1;stroke:none;stroke-width:0.19681;stroke-linecap:round;stroke-linejoin:round;stroke-dasharray:none;stroke-opacity:0.94902"
         id="rect3128"
         width="50.875015"
         height="7.4290719"
         x="153.35725"
         y="75.590057"
         ry="1.3441287" /><path
         id="rect3130"
         style="fill:#d9739c;fill-opacity:1;stroke:none;stroke-width:0.107494;stroke-linecap:round;stroke-linejoin:round;stroke-dasharray:none;stroke-opacity:0.94902"
         d="m 153.35705,96.865453 v 2.216115 h 25.43772 v -2.216115 z" /><path
         id="path3135"
         style="fill:#e5e5e5;fill-opacity:1;stroke:none;stroke-width:0.107494;stroke-linecap:round;stroke-linejoin:round;stroke-dasharray:none;stroke-opacity:0.94902"
         d="m 178.79455,96.865453 v 2.216115 h 25.43772 v -2.216115 z" /><path
         id="path3137"
         style="fill:#d9739c;fill-opacity:1;stroke:none;stroke-width:0.151176;stroke-linecap:round;stroke-linejoin:round;stroke-dasharray:none;stroke-opacity:0.94902"
         d="m 153.51521,103.56894 v 2.21612 h 50.31272 v -2.21612 z" /><path
         id="path3163"
         style="fill:#e5e5e5;fill-opacity:1;stroke:none;stroke-width:0.0809464;stroke-linecap:round;stroke-linejoin:round;stroke-dasharray:none;stroke-opacity:0.94902"
         d="m 190.80279,103.4747 v 2.4046 h 13.29392 v -2.4046 z" /><path
         id="path3165"
         style="fill:#d9739c;fill-opacity:1;stroke:none;stroke-width:0.151176;stroke-linecap:round;stroke-linejoin:round;stroke-dasharray:none;stroke-opacity:0.94902"
         d="m 153.51518,110.27225 v 2.21611 h 12.56099 v -2.21611 z" /><path
         id="path3482"
         style="fill:#e5e5e5;fill-opacity:1;stroke:none;stroke-width:0.131418;stroke-linecap:round;stroke-linejoin:round;stroke-dasharray:none;stroke-opacity:0.94902"
         d="m 166.07591,110.27243 v 2.21611 h 38.0208 v -2.21611 z" /><rect
         style="opacity:1;fill:#d9739c;fill-opacity:1;stroke:none;stroke-width:0.19681;stroke-linecap:round;stroke-linejoin:round;stroke-dasharray:none;stroke-opacity:0.94902"
         id="rect3498"
         width="50.875015"
         height="7.4290719"
         x="153.35725"
         y="155.97151"
         ry="1.3441287" /><path
         id="path3500"
         style="fill:#d9739c;fill-opacity:1;stroke:none;stroke-width:0.107494;stroke-linecap:round;stroke-linejoin:round;stroke-dasharray:none;stroke-opacity:0.94902"
         d="m 153.35705,177.2469 v 2.21611 h 25.43772 v -2.21611 z" /><path
         id="path3502"
         style="fill:#e5e5e5;fill-opacity:1;stroke:none;stroke-width:0.107494;stroke-linecap:round;stroke-linejoin:round;stroke-dasharray:none;stroke-opacity:0.94902"
         d="m 178.79455,177.2469 v 2.21611 h 25.43772 v -2.21611 z" /><path
         id="path3506"
         style="fill:#d9739c;fill-opacity:1;stroke:none;stroke-width:0.151176;stroke-linecap:round;stroke-linejoin:round;stroke-dasharray:none;stroke-opacity:0.94902"
         d="m 153.51521,183.95039 v 2.21611 h 50.31272 v -2.21611 z" /><path
         id="path3508"
         style="fill:#e5e5e5;fill-opacity:1;stroke:none;stroke-width:0.0809464;stroke-linecap:round;stroke-linejoin:round;stroke-dasharray:none;stroke-opacity:0.94902"
         d="m 190.80279,183.85614 v 2.4046 h 13.29392 v -2.4046 z" /><path
         id="path3512"
         style="fill:#d9739c;fill-opacity:1;stroke:none;stroke-width:0.151176;stroke-linecap:round;stroke-linejoin:round;stroke-dasharray:none;stroke-opacity:0.94902"
         d="m 153.51518,190.65369 v 2.21612 h 12.56099 v -2.21612 z" /><path
         id="path3514"
         style="fill:#e5e5e5;fill-opacity:1;stroke:none;stroke-width:0.131418;stroke-linecap:round;stroke-linejoin:round;stroke-dasharray:none;stroke-opacity:0.94902"
         d="m 166.07591,190.65387 v 2.21612 h 38.0208 v -2.21612 z" /><rect
         style="opacity:1;fill:#d9739c;fill-opacity:1;stroke:none;stroke-width:0.19681;stroke-linecap:round;stroke-linejoin:round;stroke-dasharray:none;stroke-opacity:0.94902"
         id="rect3664"
         width="50.875015"
         height="7.4290719"
         x="153.35725"
         y="236.35295"
         ry="1.3441287" /><path
         id="path3666"
         style="fill:#d9739c;fill-opacity:1;stroke:none;stroke-width:0.107494;stroke-linecap:round;stroke-linejoin:round;stroke-dasharray:none;stroke-opacity:0.94902"
         d="m 153.35705,257.62835 v 2.21612 h 25.43772 v -2.21612 z" /><path
         id="path3668"
         style="fill:#e5e5e5;fill-opacity:1;stroke:none;stroke-width:0.107494;stroke-linecap:round;stroke-linejoin:round;stroke-dasharray:none;stroke-opacity:0.94902"
         d="m 178.79455,257.62835 v 2.21612 h 25.43772 v -2.21612 z" /><path
         id="path3672"
         style="fill:#d9739c;fill-opacity:1;stroke:none;stroke-width:0.151176;stroke-linecap:round;stroke-linejoin:round;stroke-dasharray:none;stroke-opacity:0.94902"
         d="m 153.51521,264.33184 v 2.21612 h 50.31272 v -2.21612 z" /><path
         id="path3674"
         style="fill:#e5e5e5;fill-opacity:1;stroke:none;stroke-width:0.0809464;stroke-linecap:round;stroke-linejoin:round;stroke-dasharray:none;stroke-opacity:0.94902"
         d="m 190.80279,264.2376 v 2.4046 h 13.29392 v -2.4046 z" /><path
         id="path3678"
         style="fill:#d9739c;fill-opacity:1;stroke:none;stroke-width:0.151176;stroke-linecap:round;stroke-linejoin:round;stroke-dasharray:none;stroke-opacity:0.94902"
         d="m 153.51518,271.03515 v 2.21611 h 12.56099 v -2.21611 z" /><path
         id="path3680"
         style="fill:#e5e5e5;fill-opacity:1;stroke:none;stroke-width:0.131418;stroke-linecap:round;stroke-linejoin:round;stroke-dasharray:none;stroke-opacity:0.94902"
         d="m 166.07591,271.03533 v 2.21611 h 38.0208 v -2.21611 z" /></g></g></svg>
