<?xml version="1.0" encoding="UTF-8" standalone="no"?>
<!-- Created with Inkscape (http://www.inkscape.org/) -->

<svg
   width="64.369049mm"
   height="91.632248mm"
   viewBox="0 0 64.369049 91.632248"
   version="1.1"
   id="svg2594"
   inkscape:version="1.2.2 (732a01da63, 2022-12-09, custom)"
   sodipodi:docname="localization.svg"
   xmlns:inkscape="http://www.inkscape.org/namespaces/inkscape"
   xmlns:sodipodi="http://sodipodi.sourceforge.net/DTD/sodipodi-0.dtd"
   xmlns="http://www.w3.org/2000/svg"
   xmlns:svg="http://www.w3.org/2000/svg">
  <sodipodi:namedview
     id="namedview2596"
     pagecolor="#505050"
     bordercolor="#eeeeee"
     borderopacity="1"
     showgrid="false"/>
  <g
        transform="translate(-136.22224,-22.379374)">
    <path
       id="path3446"
       style="fill:#000000;stroke:#000000;stroke-width:0.953191"
       d="m 168.40988,22.855969 c -0.54915,0 -1.09499,0.01406 -1.63711,0.04134 -0.54211,0.02728 -1.08046,0.06804 -1.61489,0.121957 -0.53442,0.05391 -1.06452,0.120615 -1.5906,0.200504 -0.52608,0.07989 -1.0482,0.172808 -1.56528,0.27802 -0.51708,0.105212 -1.02944,0.223066 -1.53686,0.35295 -0.50743,0.129882 -1.00976,0.271913 -1.50688,0.425813 -0.49713,0.153902 -0.98868,0.319345 -1.47485,0.496611 -0.48616,0.177266 -0.96671,0.366396 -1.44126,0.566374 -0.47455,0.199976 -0.9433,0.410999 -1.40559,0.633036 -0.4623,0.222036 -0.9185,0.454707 -1.36788,0.698148 -0.44937,0.243442 -0.89176,0.497516 -1.32757,0.761711 -0.4358,0.264195 -0.86464,0.538394 -1.28622,0.822689 -0.42159,0.284294 -0.83611,0.578893 -1.24282,0.882633 -0.40671,0.303741 -0.80565,0.616943 -1.19683,0.939478 -0.39118,0.322535 -0.7748,0.654097 -1.1498,0.994771 -0.37499,0.340676 -0.74151,0.690352 -1.09967,1.048515 -0.35816,0.358163 -0.70784,0.725194 -1.04852,1.100191 -0.34067,0.374998 -0.67223,0.758106 -0.99477,1.149284 -0.32253,0.391179 -0.63625,0.790119 -0.93999,1.196826 -0.30374,0.406708 -0.59782,0.821236 -0.88212,1.242818 -0.28429,0.421584 -0.55849,0.850421 -0.82269,1.286227 -0.26419,0.435805 -0.51827,0.878192 -0.76171,1.327567 -0.24344,0.449376 -0.47611,0.905583 -0.69815,1.367876 -0.22203,0.462296 -0.43357,0.931049 -0.63355,1.405599 -0.19998,0.474559 -0.38859,0.955086 -0.56586,1.441255 -0.17726,0.48616 -0.34323,0.977726 -0.49713,1.474846 -0.15389,0.497129 -0.29592,0.999455 -0.42581,1.506884 -0.12988,0.50743 -0.24722,1.020295 -0.35243,1.537374 -0.10521,0.51708 -0.19813,1.038683 -0.27802,1.564763 -0.0799,0.526079 -0.14711,1.056698 -0.20102,1.591117 -0.0539,0.534429 -0.0947,1.072769 -0.12196,1.614888 -0.0253,0.50293 -0.0557,1.010077 -0.0377,1.518771 0.003,0.07839 0.2181,0.729871 0.63148,2.025199 0.21798,0.68304 0.48752,1.515056 0.80564,2.474785 0.31813,0.959739 0.68472,2.04742 1.09709,3.240629 0.41238,1.193208 0.87026,2.492273 1.37098,3.875732 0.50071,1.383469 1.04412,2.851146 1.62729,4.381645 0.58318,1.530498 1.20629,3.12353 1.86603,4.757849 0.32986,0.817159 0.66858,1.644943 1.01648,2.479952 0.3479,0.835009 0.70503,1.677451 1.07022,2.52491 0.3652,0.847459 0.73774,1.699977 1.11724,2.554366 0.3795,0.85439 0.76582,1.71088 1.1591,2.566769 0.39327,0.855879 0.79341,1.711202 1.19993,2.563151 0.40651,0.851939 0.81945,1.700428 1.23868,2.542997 0.41923,0.842579 0.84448,1.679055 1.2759,2.506824 0.43141,0.827769 0.86898,1.646584 1.31206,2.454114 0.44307,0.807529 0.89197,1.603524 1.34617,2.385384 0.4542,0.781849 0.91394,1.549888 1.37873,2.300639 0.4648,0.75075 0.93435,1.48463 1.40921,2.19883 0.47486,0.71421 0.95479,1.40878 1.43919,2.08101 0.4844,0.67224 0.97369,1.32183 1.4671,1.94665 0.2467,0.31242 0.49424,0.61875 0.7431,0.91829 0.24885,0.29955 0.49889,0.59251 0.74983,0.8785 0.25095,0.28599 0.50307,0.56488 0.75603,0.83664 0.25295,0.27177 0.50679,0.53637 0.76171,0.79323 0.25492,0.25685 0.51058,0.50598 0.76739,0.74725 0.2568,0.24126 0.51445,0.47469 0.77308,0.69969 0.25862,0.225 0.51838,0.44153 0.77876,0.64958 0.26038,0.20805 0.52135,0.40746 0.78342,0.59789 0.26206,0.19043 0.52541,0.37204 0.7891,0.54416 0.2637,0.17212 0.52798,0.33467 0.79323,0.48782 0.26525,-0.15315 0.5299,-0.3157 0.79427,-0.48782 0.26438,-0.17212 0.52828,-0.35373 0.79168,-0.54416 0.2634,-0.19043 0.52627,-0.38984 0.78858,-0.59789 0.26231,-0.20805 0.52438,-0.42458 0.78549,-0.64958 0.2611,-0.225 0.52154,-0.45843 0.78134,-0.69969 0.2598,-0.24127 0.51885,-0.4904 0.77722,-0.74725 0.25838,-0.25686 0.51571,-0.52146 0.77256,-0.79323 0.25684,-0.27176 0.51324,-0.55065 0.76843,-0.83664 0.2552,-0.28599 0.50929,-0.57895 0.76274,-0.8785 0.25344,-0.29954 0.50599,-0.60587 0.75758,-0.91829 0.50316,-0.62482 1.00254,-1.27441 1.49758,-1.94665 0.49504,-0.67223 0.98571,-1.3668 1.47175,-2.08101 0.48604,-0.7142 0.96769,-1.44808 1.44384,-2.19883 0.47614,-0.750751 0.94693,-1.51879 1.41231,-2.300639 0.46538,-0.78186 0.92501,-1.577855 1.37873,-2.385384 0.45371,-0.80753 0.90137,-1.626345 1.34255,-2.454114 0.44118,-0.827769 0.87605,-1.664245 1.3038,-2.506824 0.42775,-0.842569 0.8485,-1.691058 1.26194,-2.542997 0.41343,-0.851949 0.81977,-1.707272 1.21801,-2.563151 0.39824,-0.855889 0.78831,-1.712379 1.17047,-2.566769 0.38216,-0.854389 0.75618,-1.706907 1.12138,-2.554366 0.36519,-0.847459 0.7218,-1.689901 1.0697,-2.52491 0.3479,-0.835009 0.68714,-1.662793 1.017,-2.479952 0.65974,-1.634319 1.28285,-3.227351 1.86603,-4.757849 0.58317,-1.530499 1.12657,-2.998176 1.62729,-4.381645 0.50072,-1.383459 0.9586,-2.682524 1.37098,-3.875732 0.41237,-1.193209 0.77896,-2.28089 1.09709,-3.240629 0.31812,-0.959729 0.58765,-1.791745 0.80563,-2.474785 0.41214,-1.291429 0.60626,-1.939978 0.62994,-2.018998 -0.002,-0.511109 -0.0128,-1.019992 -0.0382,-1.524972 -0.0273,-0.542119 -0.068,-1.080459 -0.12196,-1.614888 -0.0539,-0.534419 -0.12114,-1.065038 -0.20102,-1.591117 -0.0799,-0.52608 -0.1723,-1.047683 -0.2775,-1.564763 -0.1052,-0.517079 -0.22309,-1.029944 -0.35295,-1.537374 -0.12987,-0.507429 -0.27192,-1.009755 -0.42581,-1.506884 -0.15388,-0.49712 -0.31937,-0.988686 -0.49661,-1.474846 -0.17724,-0.486169 -0.36643,-0.966696 -0.56638,-1.441255 -0.19996,-0.47455 -0.41103,-0.943303 -0.63303,-1.405599 -0.22201,-0.462293 -0.45473,-0.9185 -0.69815,-1.367876 -0.24341,-0.449375 -0.49754,-0.891762 -0.76171,-1.327567 -0.26416,-0.435806 -0.53842,-0.864643 -0.82269,-1.286227 -0.28426,-0.421582 -0.57841,-0.83611 -0.88212,-1.242818 -0.30371,-0.406707 -0.61698,-0.805647 -0.93948,-1.196826 -0.3225,-0.391178 -0.65413,-0.774286 -0.99477,-1.149284 -0.34065,-0.374997 -0.69037,-0.742028 -1.04851,-1.100191 -0.35813,-0.358163 -0.72471,-0.707839 -1.09968,-1.048515 -0.37497,-0.340674 -0.75814,-0.672236 -1.14928,-0.994771 -0.39115,-0.322535 -0.79015,-0.635737 -1.19683,-0.939478 -0.40668,-0.30374 -0.82126,-0.598339 -1.24282,-0.882633 -0.42155,-0.284295 -0.85044,-0.558494 -1.28622,-0.822689 -0.43577,-0.264195 -0.87822,-0.518269 -1.32757,-0.761711 -0.44935,-0.243441 -0.90561,-0.476112 -1.36788,-0.698148 -0.46226,-0.222037 -0.93055,-0.43306 -1.40508,-0.633036 -0.47453,-0.199978 -0.9551,-0.389108 -1.44125,-0.566374 -0.48614,-0.177266 -0.97826,-0.342709 -1.47537,-0.496611 -0.49709,-0.1539 -0.99947,-0.295931 -1.50688,-0.425813 -0.50742,-0.129884 -1.01979,-0.247738 -1.53686,-0.35295 -0.51707,-0.105212 -1.03869,-0.198131 -1.56476,-0.27802 -0.52607,-0.07989 -1.0567,-0.146592 -1.59112,-0.200504 -0.53442,-0.05391 -1.07277,-0.09467 -1.61489,-0.121957 -0.5421,-0.02728 -1.08795,-0.04134 -1.6371,-0.04134 z m 0.0811,15.474508 A 12.475458,12.475458 0 0 1 180.96673,50.806201 12.475458,12.475458 0 0 1 168.49101,63.281409 12.475458,12.475458 0 0 1 156.0158,50.806201 12.475458,12.475458 0 0 1 168.49101,38.330477 Z"
      />
  </g>
</svg>
