<?xml version="1.0" encoding="UTF-8" standalone="no"?>
<!-- Created with Inkscape (http://www.inkscape.org/) -->

<svg
   width="95.999992"
   height="71.781898"
   viewBox="0 0 25.399997 18.992294"
   version="1.1"
   id="svg8268"
   inkscape:version="1.2.2 (732a01da63, 2022-12-09, custom)"
   sodipodi:docname="briefcase.svg"
   xmlns:inkscape="http://www.inkscape.org/namespaces/inkscape"
   xmlns:sodipodi="http://sodipodi.sourceforge.net/DTD/sodipodi-0.dtd"
   xmlns="http://www.w3.org/2000/svg"
   xmlns:svg="http://www.w3.org/2000/svg">
  <sodipodi:namedview
     id="namedview8270"
     pagecolor="#505050"
     bordercolor="#eeeeee"
     borderopacity="1"
     inkscape:showpageshadow="0"
     inkscape:pageopacity="0"
     inkscape:pagecheckerboard="0"
     inkscape:deskcolor="#505050"
     inkscape:document-units="mm"
     showgrid="false"
     inkscape:zoom="3.6596241"
     inkscape:cx="69.132784"
     inkscape:cy="59.56896"
     inkscape:window-width="1504"
     inkscape:window-height="1282"
     inkscape:window-x="26"
     inkscape:window-y="23"
     inkscape:window-maximized="0"
     inkscape:current-layer="layer1" />
  <defs
     id="defs8265" />
  <g
     inkscape:label="Briefcase"
     inkscape:groupmode="layer"
     id="layer1"
     transform="translate(-5.4224224e-7,-6.4077053)">
    <g
       id="g9937"
       transform="matrix(0.28569767,0,0,0.28569767,-25.237006,-4.2175832)"
       inkscape:label="Briefcase"
       inkscape:export-filename="../7d37d41b/96px_black.png"
       inkscape:export-xdpi="96"
       inkscape:export-ydpi="96">
      <path
         id="path9694"
         style="stroke-width:0.600001"
         d="m 177.23621,61.875293 v 0.15968 H 138.1342 a 5.4157763,5.4157763 0 0 1 -0.0357,0.359668 5.4157763,5.4157763 0 0 1 -0.30799,1.015959 5.4157763,5.4157763 0 0 1 -0.50075,0.936377 5.4157763,5.4157763 0 0 1 -0.67334,0.820621 5.4157763,5.4157763 0 0 1 -0.82062,0.673344 5.4157763,5.4157763 0 0 1 -0.93638,0.500745 5.4157763,5.4157763 0 0 1 -1.01596,0.307992 5.4157763,5.4157763 0 0 1 -1.05627,0.104386 5.4157763,5.4157763 0 0 1 -1.05678,-0.104386 5.4157763,5.4157763 0 0 1 -1.01596,-0.307992 5.4157763,5.4157763 0 0 1 -0.93638,-0.500745 5.4157763,5.4157763 0 0 1 -0.82062,-0.673344 5.4157763,5.4157763 0 0 1 -0.67334,-0.820621 5.4157763,5.4157763 0 0 1 -0.50075,-0.936377 5.4157763,5.4157763 0 0 1 -0.30799,-1.015959 5.4157763,5.4157763 0 0 1 -0.0357,-0.359668 H 88.33466 v 28.332121 c 0,7.368236 5.931731,13.300476 13.29996,13.300476 h 62.30524 c 7.36825,0 13.29997,-5.93224 13.29997,-13.300476 V 62.021021 c 0,-0.0489 -0.003,-0.09696 -0.004,-0.145728 z m -49.79644,0.15968 a 5.4157763,5.4157763 0 0 0 0.0357,0.359668 5.4157763,5.4157763 0 0 0 0.30799,1.015959 5.4157763,5.4157763 0 0 0 0.50075,0.936377 5.4157763,5.4157763 0 0 0 0.67334,0.820621 5.4157763,5.4157763 0 0 0 0.82062,0.673344 5.4157763,5.4157763 0 0 0 0.93638,0.500745 5.4157763,5.4157763 0 0 0 1.01596,0.307992 5.4157763,5.4157763 0 0 0 1.05678,0.104386 5.4157763,5.4157763 0 0 0 1.05627,-0.104386 5.4157763,5.4157763 0 0 0 1.01596,-0.307992 5.4157763,5.4157763 0 0 0 0.93638,-0.500745 5.4157763,5.4157763 0 0 0 0.82062,-0.673344 5.4157763,5.4157763 0 0 0 0.67334,-0.820621 5.4157763,5.4157763 0 0 0 0.50075,-0.936377 5.4157763,5.4157763 0 0 0 0.30799,-1.015959 5.4157763,5.4157763 0 0 0 0.0357,-0.359668 z"
         inkscape:label="Bottom part" />
      <path
         id="path9690"
         style="stroke-width:0.600001"
         d="m 101.63462,48.721057 c -7.171784,0 -12.980734,5.620342 -13.285491,12.71447 h 39.031731 a 5.4157763,5.4157763 0 0 1 -0.01,-0.09767 5.4157763,5.4157763 0 0 1 0.10438,-1.056266 5.4157763,5.4157763 0 0 1 0.30799,-1.015959 5.4157763,5.4157763 0 0 1 0.50075,-0.936377 5.4157763,5.4157763 0 0 1 0.67334,-0.820622 5.4157763,5.4157763 0 0 1 0.82062,-0.67386 5.4157763,5.4157763 0 0 1 0.93638,-0.500228 5.4157763,5.4157763 0 0 1 1.01596,-0.307992 5.4157763,5.4157763 0 0 1 1.05678,-0.104386 5.4157763,5.4157763 0 0 1 0.35399,0.01189 5.4157763,5.4157763 0 0 1 0.35243,0.03462 5.4157763,5.4157763 0 0 1 0.34985,0.05788 5.4157763,5.4157763 0 0 1 0.3452,0.0801 5.4157763,5.4157763 0 0 1 0.339,0.102836 5.4157763,5.4157763 0 0 1 0.33176,0.125057 5.4157763,5.4157763 0 0 1 0.32298,0.146244 5.4157763,5.4157763 0 0 1 0.31264,0.166915 5.4157763,5.4157763 0 0 1 0.30076,0.187069 5.4157763,5.4157763 0 0 1 0.28783,0.206705 5.4157763,5.4157763 0 0 1 0.27441,0.224793 5.4157763,5.4157763 0 0 1 0.25838,0.242362 5.4157763,5.4157763 0 0 1 0.24236,0.258383 5.4157763,5.4157763 0 0 1 0.22479,0.273885 5.4157763,5.4157763 0 0 1 0.20619,0.288354 5.4157763,5.4157763 0 0 1 0.18759,0.300757 5.4157763,5.4157763 0 0 1 0.16691,0.312642 5.4157763,5.4157763 0 0 1 0.14625,0.322978 5.4157763,5.4157763 0 0 1 0.12454,0.331763 5.4157763,5.4157763 0 0 1 0.10335,0.338997 5.4157763,5.4157763 0 0 1 0.0801,0.345199 5.4157763,5.4157763 0 0 1 0.0579,0.349332 5.4157763,5.4157763 0 0 1 0.0346,0.352951 5.4157763,5.4157763 0 0 1 0.0119,0.353983 5.4157763,5.4157763 0 0 1 -0.01,0.09767 h 39.03224 c -0.30476,-7.094128 -6.1137,-12.71447 -13.2855,-12.71447 z"
         inkscape:label="Upper part" />
      <path
         style="opacity:0.89;fill:#000000;stroke:none;stroke-width:0.655804"
         d="m 117.0273,47.197306 v -1.523614 l 2.53043,-1.296998 c 9.54673,-4.893276 19.90469,-4.927933 29.31358,-0.09808 l 2.42522,1.244934 0.0884,1.521235 c 0.0486,0.836678 -0.0164,1.46871 -0.1446,1.404514 -2.84837,-1.426678 -5.56835,-2.606498 -7.09903,-3.079274 -8.34734,-2.578232 -17.31699,-1.782765 -24.94019,2.2118 l -2.17385,1.139098 z"
         id="path8736"
         inkscape:label="Bottom handle" />
      <path
         style="opacity:0.89;fill:#000000;stroke:none;stroke-width:0.655804"
         d="m 117.0273,43.706668 v -1.523614 l 2.53043,-1.296998 c 9.54673,-4.893276 19.90469,-4.927933 29.31358,-0.09808 l 2.42522,1.244934 0.0884,1.521235 c 0.0486,0.836678 -0.0164,1.46871 -0.1446,1.404514 -2.84837,-1.426678 -5.56835,-2.606498 -7.09903,-3.079274 -8.34734,-2.578232 -17.31699,-1.782765 -24.94019,2.2118 l -2.17385,1.139098 z"
         id="path8756"
         inkscape:label="Top handle" />
    </g>
  </g>
</svg>
