<?xml version="1.0" encoding="UTF-8" standalone="no"?>
<!-- Created with Inkscape (http://www.inkscape.org/) -->

<svg
   width="96"
   height="96"
   viewBox="0 0 25.399999 25.4"
   version="1.1"
   id="svg58425"
   sodipodi:docname="student-hat.svg"
   inkscape:version="1.2.2 (732a01da63, 2022-12-09, custom)"
   xmlns:inkscape="http://www.inkscape.org/namespaces/inkscape"
   xmlns:sodipodi="http://sodipodi.sourceforge.net/DTD/sodipodi-0.dtd"
   xmlns="http://www.w3.org/2000/svg"
   xmlns:svg="http://www.w3.org/2000/svg">
  <sodipodi:namedview
     id="namedview58427"
     pagecolor="#505050"
     bordercolor="#eeeeee"
     borderopacity="1"
     inkscape:showpageshadow="0"
     inkscape:pageopacity="0"
     inkscape:pagecheckerboard="0"
     inkscape:deskcolor="#505050"
     inkscape:document-units="mm"
     showgrid="false"
     inkscape:zoom="2.5877449"
     inkscape:cx="156.50692"
     inkscape:cy="106.65657"
     inkscape:window-width="1504"
     inkscape:window-height="1282"
     inkscape:window-x="26"
     inkscape:window-y="23"
     inkscape:window-maximized="0"
     inkscape:current-layer="layer1" />
  <defs
     id="defs58422" />
  <g
     inkscape:label="student hat"
     inkscape:groupmode="layer"
     id="layer1">
    <g
       id="g58731"
       transform="matrix(0.24130426,0,0,0.20903232,-13.358034,-9.4762378)"
       inkscape:label="student hat"
       inkscape:export-filename="../4ac2df67/96px_white.png"
       inkscape:export-xdpi="96"
       inkscape:export-ydpi="96"
       style="fill:#000000">
      <path
         id="path58711"
         style="opacity:0.89;fill:#000000;stroke-width:0.601599"
         d="m 71.848603,135.92732 a 5.364861,5.364861 0 0 1 -5.364861,5.36486 5.364861,5.364861 0 0 1 -5.364861,-5.36486 5.364861,5.364861 0 0 1 5.364861,-5.36486 5.364861,5.364861 0 0 1 5.364861,5.36486 z"
         inkscape:label="circle" />
      <path
         id="path58608"
         style="opacity:0.89;fill:#000000;stroke-width:0.429663"
         d="m 86.594714,127.23771 v 28.19053 a 28.185472,11.417997 0 0 0 28.185876,11.41791 28.185472,11.417997 0 0 0 28.18536,-11.41791 v -27.90579 l -31.21567,14.31799 z"
         inkscape:label="bottom" />
      <path
         style="opacity:0.89;fill:#000000;stroke:none;stroke-width:0.600001"
         d="m 111.45633,137.21474 49.16261,-23.42228 -43.115,-28.332269 -47.372416,27.350479 z"
         id="path58629"
         sodipodi:nodetypes="ccccc"
         inkscape:label="top" />
      <path
         style="opacity:0.89;fill:#000000;stroke:none;stroke-width:0.600001"
         d="m 77.042702,116.89202 c 0,0 -14.748978,9.03746 -14.455267,20.32272 C 62.881147,148.5 55.35764,148.5 55.35764,148.5 c 0,0 2.304497,4.61916 5.783837,6.35431 3.47934,1.73515 10.750298,-17.92424 8.990047,-19.95197 -1.760252,-2.02774 9.605716,-16.41908 11.716848,-15.17237 2.111134,1.24671 -4.80567,-2.83795 -4.80567,-2.83795 z"
         id="path58702"
         inkscape:label="band" />
    </g>
  </g>
</svg>
