<?xml version="1.0" encoding="UTF-8" standalone="no"?>
<!-- Created with Inkscape (http://www.inkscape.org/) -->

<svg
   width="95.999794"
   height="69.385628"
   viewBox="0 0 25.399944 18.358281"
   version="1.1"
   id="svg2026"
   inkscape:version="1.2.2 (732a01da63, 2022-12-09, custom)"
   sodipodi:docname="controller.svg"
   xmlns:inkscape="http://www.inkscape.org/namespaces/inkscape"
   xmlns:sodipodi="http://sodipodi.sourceforge.net/DTD/sodipodi-0.dtd"
   xmlns="http://www.w3.org/2000/svg"
   xmlns:svg="http://www.w3.org/2000/svg">
  <sodipodi:namedview
     id="namedview2028"
     pagecolor="#505050"
     bordercolor="#eeeeee"
     borderopacity="1"
     inkscape:showpageshadow="0"
     inkscape:pageopacity="0"
     inkscape:pagecheckerboard="0"
     inkscape:deskcolor="#505050"
     inkscape:document-units="mm"
     showgrid="false"
     inkscape:zoom="1.829812"
     inkscape:cx="-74.597828"
     inkscape:cy="131.70752"
     inkscape:window-width="1529"
     inkscape:window-height="1398"
     inkscape:window-x="26"
     inkscape:window-y="23"
     inkscape:window-maximized="0"
     inkscape:current-layer="layer3" />
  <defs
     id="defs2023" />
  <g
     inkscape:groupmode="layer"
     id="layer3"
     inkscape:label="controller"
     transform="translate(0.24321131,-7.0417192)">
    <path
       id="path2984"
       style="fill:#000000;stroke-width:0.164229"
       d="m 5.0211663,7.0421408 c -0.064621,0.00106 -0.1284637,0.00421 -0.191671,0.0093 -0.06321,0.00498 -0.1258064,0.011763 -0.1876079,0.020417 -0.061801,0.00852 -0.1229248,0.019034 -0.183405,0.031129 -0.060479,0.01214 -0.120321,0.025829 -0.1794812,0.041266 -0.059157,0.015426 -0.1175765,0.032502 -0.1754191,0.051126 -0.057843,0.018624 -0.115108,0.038898 -0.1716353,0.060544 -0.056529,0.021646 -0.1123574,0.04473 -0.1675725,0.069253 -0.055217,0.024534 -0.1097441,0.050429 -0.1636484,0.077685 -0.053903,0.027234 -0.1071295,0.055851 -0.1597264,0.085686 -0.052599,0.029824 -0.1046493,0.060842 -0.1559427,0.093101 -0.051294,0.032258 -0.101887,0.065723 -0.1518805,0.1002383 -0.04999,0.034527 -0.099264,0.07016 -0.1479567,0.1068116 -0.048694,0.03664 -0.096777,0.074332 -0.1441738,0.1129457 -0.047396,0.03861 -0.094147,0.078106 -0.14025,0.1185198 -0.046101,0.040414 -0.091516,0.081713 -0.136328,0.1237973 -0.044815,0.042074 -0.08902,0.084923 -0.1325441,0.1285137 -0.043525,0.04359 -0.086384,0.088 -0.1286221,0.132943 -0.042239,0.04494 -0.083888,0.0905 -0.1248384,0.136651 -0.040951,0.04616 -0.081277,0.09277 -0.1209152,0.139939 -0.039637,0.04719 -0.078659,0.09489 -0.116993,0.142936 -0.076659,0.09608 -0.1506514,0.193713 -0.222075,0.2923 -0.071422,0.09859 -0.1401761,0.198048 -0.2063833,0.297868 -0.066203,0.09982 -0.1298225,0.199947 -0.19083,0.299723 -0.06101,0.09977 -0.119453,0.19926 -0.1752781,0.2977248 -0.055826,0.09847 -0.109066,0.195994 -0.15972647,0.291872 -0.05066,0.09588 -0.098798,0.190149 -0.1443139,0.282158 -0.045518,0.09203 -0.088375,0.18171 -0.1287612,0.268597 -0.040387,0.08688 -0.078216,0.170981 -0.1134901,0.251459 -0.035281,0.08047 -0.06803,0.15738 -0.098218,0.230182 -0.0603658,0.145607 -0.11051472,0.274581 -0.15061836,0.381832 -0.0400998,0.107254 -0.070109,0.192884 -0.0900916,0.251603 -0.0184059,0.05408 -0.0261566,0.07878 -0.0275998,0.08339 -6.7756e-4,0.0053 -0.0254866,0.201882 -0.0644463,0.555755 -0.0197448,0.179299 -0.0429524,0.397153 -0.0680905,0.647139 -0.0251381,0.249986 -0.0521721,0.532166 -0.0797208,0.8402 -0.0275476,0.308021 -0.055548,0.641834 -0.0825288,0.99527 -0.026983,0.353437 -0.0529387,0.726453 -0.0763623,1.112649 -0.0117042,0.193099 -0.0228068,0.389535 -0.0330713,0.588454 -0.0102611,0.198919 -0.0197199,0.400286 -0.0281654,0.603445 -0.008436,0.20316 -0.0158923,0.408051 -0.0221369,0.61387 -0.006254,0.205822 -0.0113155,0.412684 -0.0149878,0.619581 -0.003659,0.206899 -0.005821,0.413907 -0.006612,0.620298 -7.3228e-4,0.206387 6.961e-5,0.412164 0.002692,0.616439 0.002617,0.204273 0.006863,0.407037 0.013169,0.607587 0.006254,0.200553 0.0144829,0.3988 0.0247982,0.594022 0.0103155,0.195222 0.0228329,0.387453 0.0375514,0.575743 0.0147174,0.188286 0.0316705,0.372734 0.0511373,0.552468 0.0194755,0.179745 0.0414039,0.35474 0.0659948,0.524339 0.0122992,0.0848 0.0253119,0.168215 0.038951,0.250175 0.0136381,0.08196 0.0279732,0.162541 0.0430131,0.241464 0.0150399,0.07891 0.0307313,0.156229 0.0472153,0.231898 0.016484,0.07567 0.0337488,0.1497 0.051703,0.221901 0.0179618,0.07221 0.0366034,0.142527 0.0560442,0.21105 0.0194494,0.06852 0.0397165,0.135135 0.060671,0.199767 0.0209544,0.06464 0.0426744,0.127246 0.06515,0.187775 0.0224854,0.06052 0.0456051,0.118991 0.0696388,0.175208 0.0240339,0.05622 0.048945,0.110242 0.0745349,0.161929 0.0255996,0.05168 0.0519821,0.101123 0.0791638,0.148075 0.027182,0.04694 0.054939,0.09131 0.083504,0.133226 0.028565,0.04192 0.057835,0.0814 0.087849,0.118235 0.030018,0.03683 0.060793,0.07102 0.092333,0.102662 0.03154,0.03165 0.063959,0.06072 0.097096,0.0871 0.03314,0.02639 0.067047,0.05005 0.10186103,0.07111 0.034819,0.02106 0.070483,0.03949 0.1070448,0.05512 0.036568,0.01564 0.074126,0.02842 0.112508,0.03854 0.038385,0.01018 0.077693,0.01756 0.1179739,0.02213 0.042474,0.0049 0.084852,0.0083 0.1272198,0.0104 0.042371,0.0022 0.084678,0.0029 0.1269408,0.0024 0.042256,-5.53e-4 0.084504,-0.0022 0.1266596,-0.0052 0.042152,-0.003 0.084191,-0.0073 0.1262397,-0.0127 0.042048,-0.0054 0.084016,-0.01202 0.1259595,-0.01984 0.041935,-0.0079 0.083851,-0.01686 0.1256794,-0.02699 0.041831,-0.01018 0.083538,-0.02134 0.1252585,-0.0337 0.041718,-0.01238 0.083504,-0.02586 0.1251194,-0.04041 0.041612,-0.01454 0.08306,-0.03019 0.1245573,-0.04683 0.041499,-0.01667 0.083034,-0.03429 0.1244191,-0.05297 0.041386,-0.01868 0.082721,-0.03832 0.1239971,-0.05897 0.041274,-0.02064 0.082416,-0.0423 0.123578,-0.06484 0.08233,-0.04506 0.1644436,-0.09388 0.2463138,-0.146077 0.081868,-0.0522 0.163505,-0.107863 0.2449136,-0.166641 0.081407,-0.05877 0.1625967,-0.120639 0.2433719,-0.185348 0.080773,-0.06469 0.1611713,-0.1322 0.2412706,-0.202192 0.080094,-0.06999 0.1597891,-0.142404 0.2391682,-0.217049 0.079381,-0.07464 0.1584478,-0.151516 0.2370677,-0.230183 0.078615,-0.07867 0.156869,-0.159126 0.234685,-0.241175 0.077814,-0.08206 0.1551946,-0.165662 0.2321635,-0.250463 0.076971,-0.0848 0.1535601,-0.170826 0.2296408,-0.257743 0.076084,-0.0869 0.1516901,-0.174774 0.2268393,-0.26317 0.1502982,-0.17678 0.2986586,-0.35588 0.4451313,-0.534762 0.1464712,-0.178878 0.2910538,-0.357548 0.4335019,-0.533476 0.1424472,-0.175927 0.282806,-0.34912 0.4210318,-0.517055 0.1382267,-0.167934 0.2743338,-0.330598 0.4081426,-0.485499 0.066907,-0.07745 0.1331044,-0.153032 0.1988168,-0.226328 0.065716,-0.07329 0.1308618,-0.144259 0.195454,-0.212763 0.064594,-0.06851 0.1286907,-0.134556 0.192232,-0.197625 0.063542,-0.06308 0.1265866,-0.123202 0.1891494,-0.180206 0.062567,-0.057 0.1246921,-0.110778 0.1863467,-0.161072 0.061654,-0.0503 0.1228681,-0.09714 0.1836851,-0.140081 0.060818,-0.04295 0.1212522,-0.08199 0.1813031,-0.116948 0.030023,-0.01746 0.059971,-0.03391 0.089809,-0.04927 0.029849,-0.01536 0.05958,-0.02967 0.089256,-0.04284 0.057006,-0.02529 0.1142069,-0.0496 0.1716345,-0.0731 0.05743,-0.02353 0.1150494,-0.04618 0.172756,-0.06797 0.1154143,-0.04359 0.2312446,-0.08382 0.3469151,-0.120948 0.1156684,-0.03713 0.2311425,-0.07122 0.3459324,-0.102374 0.1147991,-0.03116 0.2289531,-0.05939 0.3417311,-0.0851 0.11278,-0.02573 0.224257,-0.04891 0.333884,-0.0697 0.10962,-0.02077 0.217335,-0.03908 0.322674,-0.05541 0.105347,-0.01632 0.208325,-0.03058 0.308243,-0.04297 0.09992,-0.01242 0.196813,-0.023 0.290169,-0.03198 0.09336,-0.009 0.183068,-0.01648 0.268731,-0.02255 0.08566,-0.0061 0.167241,-0.01095 0.244076,-0.01456 0.153665,-0.0073 0.288482,-0.01029 0.400015,-0.01114 0.111528,-8.28e-4 0.199736,5.55e-4 0.260043,0.0022 0.05804,0.0018 0.08689,0.0032 0.08926,0.0032 0.0029,-1.36e-4 0.0348,-0.0018 0.09919,-0.003 0.06722,-0.0013 0.165365,-0.0024 0.288769,-0.0013 0.123402,0.0011 0.272125,0.0048 0.440648,0.01257 0.08427,0.004 0.173439,0.009 0.266909,0.01528 0.09347,0.0063 0.191115,0.01403 0.292411,0.02326 0.101298,0.0093 0.206247,0.02003 0.313988,0.0327 0.107736,0.01266 0.218277,0.02723 0.331081,0.04383 0.112804,0.01658 0.227906,0.03526 0.344393,0.05625 0.116487,0.02099 0.234433,0.04433 0.353217,0.07026 0.118785,0.02593 0.238419,0.05434 0.358122,0.08569 0.11971,0.03135 0.239443,0.06568 0.358685,0.10295 0.05961,0.01863 0.119112,0.03806 0.178362,0.05825 0.05925,0.02023 0.118261,0.04111 0.176958,0.06297 0.05869,0.02187 0.117155,0.04455 0.175138,0.06811 0.05797,0.02355 0.115528,0.04807 0.172615,0.07339 0.02967,0.01316 0.05939,0.02732 0.08924,0.04269 0.02985,0.01536 0.05978,0.03178 0.08981,0.04927 0.06007,0.03496 0.120463,0.07414 0.181302,0.117096 0.06085,0.04295 0.12214,0.08965 0.183824,0.139937 0.06169,0.0503 0.123893,0.104078 0.186489,0.161072 0.0626,0.057 0.125574,0.117281 0.189149,0.180348 0.06356,0.06308 0.127616,0.128978 0.192232,0.197481 0.06463,0.06851 0.129866,0.139613 0.195594,0.212907 0.06571,0.07329 0.132054,0.148734 0.198958,0.226184 0.133807,0.154899 0.269823,0.31771 0.408002,0.485642 0.138167,0.167936 0.278509,0.341127 0.420892,0.517055 0.142372,0.175926 0.286796,0.354455 0.433221,0.533337 0.146423,0.17888 0.294833,0.358113 0.445132,0.534905 0.07515,0.0884 0.150758,0.176111 0.226837,0.263025 0.07608,0.0869 0.152532,0.172943 0.229502,0.257743 0.07698,0.0848 0.154488,0.168412 0.232304,0.25046 0.07781,0.08206 0.156065,0.162514 0.234685,0.24118 0.07861,0.07867 0.157546,0.155536 0.236927,0.230182 0.07939,0.07464 0.159208,0.147197 0.239308,0.21719 0.08012,0.06999 0.160495,0.137491 0.241272,0.202195 0.08077,0.06471 0.161823,0.126567 0.24323,0.185348 0.08142,0.05877 0.163044,0.114432 0.244912,0.166637 0.08187,0.0522 0.16399,0.100869 0.246317,0.145935 0.04115,0.02252 0.08245,0.04419 0.123717,0.06483 0.04127,0.02064 0.08261,0.04029 0.123999,0.05897 0.04138,0.01868 0.08278,0.03633 0.124278,0.05297 0.0415,0.01663 0.08309,0.03228 0.124699,0.04683 0.04162,0.01454 0.08327,0.02804 0.124976,0.0404 0.04172,0.01238 0.08357,0.0237 0.125399,0.03384 0.04184,0.01018 0.0836,0.01903 0.125538,0.02687 0.04194,0.0079 0.08391,0.01454 0.125961,0.01999 0.04205,0.0054 0.08423,0.0095 0.126381,0.01257 0.04215,0.003 0.0844,0.0049 0.126659,0.0053 0.04226,5.53e-4 0.08457,-5.53e-4 0.12694,-0.0024 0.04237,-0.0022 0.08475,-0.0055 0.12722,-0.0104 0.04029,-0.0045 0.0796,-0.0119 0.11797,-0.022 0.03839,-0.01018 0.0758,-0.02307 0.112366,-0.0387 0.03657,-0.01564 0.07223,-0.03393 0.107043,-0.05498 0.03482,-0.02106 0.06885,-0.04486 0.102002,-0.07126 0.03316,-0.02638 0.06541,-0.05545 0.09695,-0.0871 0.03154,-0.03165 0.06232,-0.06583 0.09233,-0.102662 0.03003,-0.03683 0.05928,-0.07617 0.08786,-0.118099 0.02857,-0.04192 0.05646,-0.08643 0.08365,-0.13337 0.02718,-0.04694 0.05356,-0.09639 0.07915,-0.148076 0.02559,-0.05169 0.05038,-0.105561 0.07441,-0.161784 0.02403,-0.05622 0.04728,-0.11468 0.06977,-0.175208 0.02248,-0.06052 0.04419,-0.12314 0.06515,-0.187775 0.02097,-0.06464 0.04107,-0.131246 0.06052,-0.199767 0.01944,-0.06852 0.03822,-0.138994 0.05618,-0.211194 0.01794,-0.07221 0.03507,-0.146236 0.05155,-0.2219 0.01648,-0.07567 0.03231,-0.152975 0.04735,-0.231896 0.01505,-0.07892 0.02938,-0.159364 0.04301,-0.241323 0.01364,-0.08197 0.0265,-0.165377 0.03881,-0.250176 0.0246,-0.169598 0.04666,-0.344731 0.06612,-0.524479 0.01947,-0.179745 0.03643,-0.36418 0.05113,-0.552468 0.01474,-0.188286 0.02709,-0.38038 0.0374,-0.575602 0.01031,-0.195225 0.01853,-0.393613 0.02482,-0.594166 0.0063,-0.200552 0.01053,-0.403316 0.01317,-0.607586 0.0027,-0.204275 0.0034,-0.410052 0.0028,-0.61644 -8.12e-4,-0.206391 -0.003,-0.413398 -0.0068,-0.620298 -0.0037,-0.206888 -0.0088,-0.413618 -0.01499,-0.619437 -0.0063,-0.20582 -0.01373,-0.410713 -0.02217,-0.613871 -0.0083,-0.203161 -0.0179,-0.404666 -0.02817,-0.603589 -0.01031,-0.198918 -0.02124,-0.395213 -0.03292,-0.588309 -0.02342,-0.3862 -0.04938,-0.759213 -0.07637,-1.112649 -0.02697,-0.353437 -0.05498,-0.687381 -0.08252,-0.995414 -0.02753,-0.30803 -0.05471,-0.590211 -0.07985,-0.840197 -0.02514,-0.249987 -0.04835,-0.467698 -0.0681,-0.646999 -0.03902,-0.35442 -0.06386,-0.551908 -0.06445,-0.556611 -0.0018,-0.0049 -0.0091,-0.02936 -0.02746,-0.08325 -0.01998,-0.05873 -0.04999,-0.144206 -0.09009,-0.251461 -0.0401,-0.107243 -0.09024,-0.236223 -0.150619,-0.381828 -0.03017,-0.07279 -0.06293,-0.149704 -0.09822,-0.230185 -0.03525,-0.08043 -0.07307,-0.164517 -0.113461,-0.251404 -0.0404,-0.08688 -0.08339,-0.176572 -0.1289,-0.268594 -0.04552,-0.09203 -0.09351,-0.186282 -0.144176,-0.282162 -0.05067,-0.09588 -0.103892,-0.193407 -0.159726,-0.291872 -0.05582,-0.09847 -0.114276,-0.1979468 -0.175278,-0.2977238 -0.06101,-0.09977 -0.124623,-0.199905 -0.190831,-0.299725 -0.06621,-0.09982 -0.135099,-0.199282 -0.206521,-0.297868 -0.07141,-0.09859 -0.14542,-0.196216 -0.222076,-0.292296 -0.03833,-0.04804 -0.07736,-0.09577 -0.116986,-0.142938 -0.03963,-0.04719 -0.07983,-0.09393 -0.120777,-0.14008 -0.04096,-0.04616 -0.0826,-0.09172 -0.12484,-0.136652 -0.04224,-0.04494 -0.0851,-0.08922 -0.128623,-0.132801 -0.04352,-0.04359 -0.08773,-0.086439 -0.132542,-0.1285116 -0.04481,-0.042063 -0.09022,-0.083407 -0.136328,-0.1238095 -0.04611,-0.040403 -0.09286,-0.079921 -0.140252,-0.1185197 -0.04741,-0.038588 -0.09549,-0.07618 -0.144174,-0.1128096 -0.04869,-0.036629 -0.09797,-0.072307 -0.147955,-0.1068117 -0.04999,-0.034516 -0.100722,-0.067858 -0.15202,-0.1001055 -0.0513,-0.032236 -0.103198,-0.063288 -0.155805,-0.093101 -0.05261,-0.029813 -0.105815,-0.058441 -0.159726,-0.085686 -0.0539,-0.027245 -0.108587,-0.053173 -0.163787,-0.077685 -0.05521,-0.024512 -0.111042,-0.047618 -0.167575,-0.069253 -0.05652,-0.021646 -0.113656,-0.041797 -0.171492,-0.060411 -0.05784,-0.018591 -0.116403,-0.035545 -0.175561,-0.050971 -0.05916,-0.015404 -0.119003,-0.029315 -0.179481,-0.04141 -0.06048,-0.012018 -0.121598,-0.022387 -0.183403,-0.030986 -0.06181,-0.00852 -0.124261,-0.015426 -0.187468,-0.020428 -0.06322,-0.00498 -0.127191,-0.0083 -0.191811,-0.00941 -0.0646,-0.00106 -0.129833,-5.522e-4 -0.195875,0.00221 -0.06602,0.00277 -0.132886,0.00753 -0.200358,0.014419 -0.06748,0.00686 -0.135649,0.015692 -0.204562,0.026836 -0.06891,0.011144 -0.138544,0.024534 -0.208904,0.040126 -0.07036,0.015581 -0.141431,0.033487 -0.213248,0.053683 -0.07181,0.020207 -0.144309,0.042683 -0.21759,0.067681 -0.07329,0.02501 -0.147319,0.052443 -0.222076,0.082388 -0.07475,0.029956 -0.15032,0.062458 -0.226559,0.097527 -0.07625,0.035069 -0.153171,0.072739 -0.230903,0.113094 -0.07772,0.040359 -0.156293,0.083418 -0.235525,0.1292276 -0.07923,0.045814 -0.159126,0.094351 -0.239869,0.1457937 -0.08074,0.051436 -0.162231,0.105694 -0.244493,0.1629276 -0.08227,0.057224 -0.16533,0.1174419 -0.249117,0.1806326 -0.0838,0.063188 -0.168285,0.1294561 -0.253599,0.1987701 l -0.05085,-0.0651 0.04076,0.07211 c -0.07859,0.04625 -0.156829,0.09099 -0.234687,0.13437 -0.07787,0.04338 -0.155326,0.08534 -0.232442,0.125943 -0.07711,0.04059 -0.153847,0.07992 -0.230204,0.117802 -0.07636,0.03788 -0.152378,0.0743 -0.227958,0.109522 -0.07557,0.03521 -0.15079,0.06916 -0.225578,0.10181 -0.07478,0.03265 -0.149216,0.064 -0.223196,0.09411 -0.07397,0.03011 -0.147517,0.05899 -0.220673,0.08667 -0.07315,0.02768 -0.145836,0.0541 -0.218156,0.07939 -0.07231,0.02529 -0.144308,0.04943 -0.215767,0.07241 -0.07147,0.02296 -0.142382,0.04482 -0.212968,0.06553 -0.07059,0.02073 -0.14075,0.04029 -0.210447,0.05884 -0.06969,0.01854 -0.138992,0.03598 -0.207785,0.0524 -0.0688,0.01641 -0.137108,0.03188 -0.20498,0.04627 -0.06786,0.01436 -0.135245,0.02772 -0.202178,0.04013 -0.06693,0.01242 -0.133398,0.02379 -0.19938,0.03427 -0.06599,0.01051 -0.13156,0.02005 -0.196576,0.02871 -0.065,0.0086 -0.129464,0.01641 -0.193491,0.02326 -0.06403,0.007 -0.127666,0.01283 -0.190692,0.01798 -0.126051,0.01029 -0.250045,0.01737 -0.371993,0.02128 -0.121947,0.0039 -0.241807,0.0049 -0.359523,0.0029 -0.117715,-0.002 -0.233284,-0.007 -0.346635,-0.01429 -0.113351,-0.0073 -0.22446,-0.01724 -0.333323,-0.0294 -0.108865,-0.01214 -0.215489,-0.02669 -0.319732,-0.04314 -0.10424,-0.01644 -0.206089,-0.0348 -0.30558,-0.05498 -0.0995,-0.02017 -0.19654,-0.04204 -0.291151,-0.06539 -0.09461,-0.02335 -0.186783,-0.04824 -0.276437,-0.07424 -0.08966,-0.02603 -0.176871,-0.05312 -0.261445,-0.08125 -0.08458,-0.02813 -0.166531,-0.05727 -0.245898,-0.08696 -0.07936,-0.02969 -0.156035,-0.05997 -0.230058,-0.09068 -0.07402,-0.0307 -0.1453914,-0.06179 -0.2139498,-0.09296 -0.06856,-0.03116 -0.1344512,-0.06246 -0.1974176,-0.09352 -0.062967,-0.03107 -0.1230792,-0.06195 -0.1803233,-0.09239 -0.057245,-0.03043 -0.1115531,-0.06041 -0.1629488,-0.08967 -0.1027742,-0.05852 -0.1937475,-0.11416 -0.2723738,-0.164642 -0.078625,-0.05047 -0.1449566,-0.09576 -0.1983969,-0.133797 -0.053445,-0.03806 -0.093969,-0.06889 -0.1211953,-0.0901 -0.026506,-0.02064 -0.039204,-0.03137 -0.039935,-0.03198 l -1.399e-4,1.44e-4 C 8.0786924,8.2882832 7.9942025,8.2221632 7.9104143,8.1589757 7.8266234,8.0957884 7.7435586,8.0355745 7.6612978,7.978342 7.5790384,7.9211128 7.4975484,7.8668449 7.4168053,7.8154144 7.3360592,7.7639706 7.2560272,7.7152889 7.176796,7.669479 7.0975628,7.6236757 7.0191406,7.5807496 6.94141,7.5403909 6.8636816,7.5000322 6.7866076,7.4622298 6.7103676,7.4271608 6.6341269,7.3920918 6.5587054,7.3597229 6.4839486,7.3297776 6.4091954,7.2998212 6.3351541,7.2723768 6.2618735,7.2473892 6.1885895,7.2223794 6.1160965,7.199771 6.0442822,7.1795529 5.9724696,7.159357 5.9012515,7.1414518 5.8308933,7.1258704 5.7605324,7.1102891 5.6910391,7.0970207 5.6221291,7.085888 5.5532211,7.0747443 5.4848993,7.0656146 5.4174272,7.0587535 c -0.067473,-0.00686 -0.1341768,-0.01152 -0.2002179,-0.014287 -0.066037,-0.00277 -0.131396,-0.00332 -0.196015,-0.00221 z M 19.64843,11.668373 a 0.89225087,0.92892484 0 0 1 0.892224,0.929015 0.89225087,0.92892484 0 0 1 -0.892224,0.928872 0.89225087,0.92892484 0 0 1 -0.892365,-0.928872 0.89225087,0.92892484 0 0 1 0.892365,-0.929015 z M 5.6454989,12.025216 c 0.035846,0 0.071369,8.29e-4 0.1067646,0.0028 0.035402,0.002 0.070596,0.0048 0.1055017,0.0083 0.034915,0.0035 0.069586,0.0081 0.103961,0.01342 0.034385,0.0053 0.068473,0.01152 0.1022812,0.01857 0.033809,0.007 0.067412,0.01502 0.1005992,0.0237 0.033184,0.0086 0.065968,0.01824 0.098498,0.02856 0.032523,0.01029 0.064716,0.02139 0.096536,0.03328 0.03182,0.0119 0.063368,0.02457 0.094437,0.03799 0.03107,0.0134 0.061637,0.02752 0.091913,0.04242 0.030278,0.01486 0.060227,0.03053 0.08967,0.04683 0.058888,0.03261 0.1160778,0.06801 0.1713552,0.106092 0.055277,0.03808 0.1086867,0.07877 0.1600066,0.12194 0.051321,0.04317 0.1005221,0.08887 0.1475364,0.136795 0.047015,0.04792 0.091725,0.09806 0.1340856,0.150363 0.042361,0.0523 0.082294,0.106735 0.1196548,0.16307 0.037351,0.05634 0.07224,0.114618 0.1042422,0.174637 0.016006,0.03001 0.031219,0.06039 0.045814,0.09124 0.014596,0.03085 0.028461,0.06215 0.041613,0.09382 0.013151,0.03166 0.025609,0.06367 0.037272,0.0961 0.011657,0.03244 0.022519,0.06524 0.032646,0.09838 0.01012,0.03314 0.019475,0.06671 0.028025,0.100537 0.00853,0.03382 0.016335,0.06794 0.02326,0.102374 0.00696,0.03445 0.013099,0.0692 0.018353,0.104233 0.00521,0.03504 0.00964,0.07038 0.013169,0.10596 0.00356,0.03559 0.00618,0.07145 0.00801,0.107531 0.00183,0.03609 0.00278,0.07242 0.00278,0.108947 0,0.03653 -0.00104,0.07287 -0.00278,0.108959 -0.00183,0.03609 -0.00444,0.07181 -0.00801,0.107387 -0.00356,0.03559 -0.00792,0.07091 -0.013169,0.105959 -0.00521,0.03505 -0.011425,0.06993 -0.018353,0.104388 -0.00696,0.03446 -0.014708,0.06856 -0.02326,0.102386 -0.00853,0.03383 -0.017901,0.06737 -0.028025,0.100526 -0.01012,0.03316 -0.020989,0.06594 -0.032646,0.09839 -0.011657,0.03245 -0.024121,0.06443 -0.037272,0.0961 -0.013153,0.03167 -0.027017,0.06296 -0.041613,0.09382 -0.014595,0.03086 -0.029818,0.06137 -0.045814,0.0914 -0.032002,0.06002 -0.066891,0.118285 -0.1042422,0.174635 -0.037359,0.05635 -0.077293,0.110754 -0.1196548,0.16307 -0.042361,0.05232 -0.087071,0.102562 -0.1340856,0.150504 -0.047015,0.04794 -0.096215,0.09361 -0.1475364,0.136796 -0.051321,0.04319 -0.1047309,0.08386 -0.1600066,0.121951 -0.055277,0.03809 -0.1124703,0.0736 -0.1713552,0.106237 -0.029443,0.0163 -0.059392,0.0318 -0.08967,0.0467 -0.030279,0.01489 -0.060845,0.02915 -0.091913,0.04255 -0.03107,0.0134 -0.062611,0.02608 -0.094437,0.03799 -0.03182,0.0119 -0.064011,0.02293 -0.096536,0.03328 -0.032523,0.01029 -0.065306,0.01984 -0.098498,0.02856 -0.033184,0.0086 -0.066794,0.01663 -0.1005992,0.0237 -0.033801,0.007 -0.0679,0.0132 -0.1022812,0.01857 -0.034377,0.0053 -0.069048,0.01 -0.103961,0.01357 -0.034915,0.0035 -0.070101,0.0063 -0.1055017,0.0082 -0.035401,0.002 -0.070927,0.0028 -0.1067646,0.0028 -0.035837,0 -0.0715,-8.29e-4 -0.1069036,-0.0028 -0.035402,-0.002 -0.070586,-0.0045 -0.1055028,-0.0082 -0.034915,-0.0035 -0.069579,-0.0083 -0.1039621,-0.01357 -0.034385,-0.0053 -0.068473,-0.01152 -0.1022812,-0.01857 -0.033811,-0.0071 -0.067403,-0.01502 -0.1005992,-0.0237 -0.033194,-0.0086 -0.065969,-0.01824 -0.098498,-0.02856 -0.032533,-0.01029 -0.064707,-0.02139 -0.096537,-0.03328 -0.031827,-0.0119 -0.063359,-0.02457 -0.094435,-0.03799 -0.031079,-0.0134 -0.061767,-0.02768 -0.092052,-0.04255 -0.030287,-0.0149 -0.060079,-0.03039 -0.089531,-0.0467 C 4.5963,15.972993 4.538994,15.937453 4.4837018,15.899376 4.4284068,15.861296 4.3750334,15.820606 4.3236953,15.777425 4.2723583,15.734235 4.2230515,15.688565 4.1760185,15.640629 4.1289875,15.592689 4.0843085,15.542449 4.041933,15.490125 3.999555,15.437815 3.959508,15.383412 3.9221385,15.327055 3.8847705,15.270705 3.8500555,15.212451 3.8180357,15.15242 3.8020307,15.12241 3.7866877,15.0919 3.7720817,15.06102 3.7574777,15.03016 3.7436207,14.99887 3.7304687,14.9672 3.7173157,14.93553 3.7048597,14.90355 3.6931967,14.8711 3.6815277,14.83865 3.6706847,14.80587 3.6605517,14.77271 3.6504097,14.73954 3.6409377,14.706 3.6323857,14.672184 c -0.00853,-0.03383 -0.016188,-0.06792 -0.023119,-0.102386 -0.00696,-0.03446 -0.013092,-0.06934 -0.018353,-0.104388 -0.00531,-0.03505 -0.00964,-0.07037 -0.013169,-0.105959 -0.00356,-0.03558 -0.00634,-0.0713 -0.00809,-0.107387 -0.00183,-0.03609 -0.00271,-0.07242 -0.00271,-0.108948 0,-0.03653 8.67e-4,-0.07287 0.00271,-0.108958 0.00182,-0.03609 0.0046,-0.07194 0.00809,-0.107531 0.00356,-0.03558 0.00792,-0.07091 0.013169,-0.10596 0.00521,-0.03505 0.011425,-0.06978 0.018353,-0.104233 0.00696,-0.03446 0.01457,-0.06857 0.023119,-0.102374 0.00853,-0.03382 0.018033,-0.06738 0.028166,-0.100537 0.01012,-0.03314 0.02098,-0.06594 0.032645,-0.09838 0.011668,-0.03245 0.024112,-0.06443 0.037272,-0.0961 0.013153,-0.03166 0.027008,-0.06297 0.041613,-0.09381 0.014604,-0.03085 0.029948,-0.06124 0.045954,-0.09124 0.032018,-0.06001 0.066733,-0.118297 0.1041021,-0.174636 0.037367,-0.05634 0.077415,-0.110766 0.1197945,-0.163068 0.04238,-0.0523 0.087055,-0.102452 0.1340855,-0.150364 0.047033,-0.04792 0.09634,-0.09362 0.1476768,-0.136796 0.051337,-0.04317 0.1047134,-0.08387 0.1600065,-0.121939 0.055295,-0.03808 0.1125967,-0.07348 0.1714952,-0.106093 0.029452,-0.0163 0.059245,-0.03196 0.089531,-0.04683 0.030287,-0.01486 0.060975,-0.02902 0.092052,-0.04242 0.031079,-0.0134 0.06261,-0.02612 0.094435,-0.03799 0.031827,-0.0119 0.064002,-0.02295 0.096537,-0.03328 0.032532,-0.01029 0.065306,-0.01984 0.098498,-0.02856 0.033191,-0.0086 0.066785,-0.01663 0.1005992,-0.0237 0.03381,-0.007 0.0679,-0.0132 0.1022812,-0.01857 0.034385,-0.0053 0.069048,-0.0097 0.1039621,-0.01342 0.034915,-0.0035 0.0701,-0.0064 0.1055028,-0.0083 0.035401,-0.002 0.071066,-0.0028 0.1069036,-0.0028 z m 15.7272701,1.400663 a 0.89225087,0.92892484 0 0 1 0.892226,0.928873 0.89225087,0.92892484 0 0 1 -0.892226,0.928872 0.89225087,0.92892484 0 0 1 -0.892221,-0.928872 0.89225087,0.92892484 0 0 1 0.892221,-0.928873 z m -3.252807,0.239747 a 0.89225087,0.92892484 0 0 1 0.892363,0.928875 0.89225087,0.92892484 0 0 1 -0.892363,0.928873 0.89225087,0.92892484 0 0 1 -0.892221,-0.928873 0.89225087,0.92892484 0 0 1 0.892221,-0.928875 z m 1.724483,1.518756 a 0.89225087,0.92892484 0 0 1 0.892222,0.928872 0.89225087,0.92892484 0 0 1 -0.892222,0.928874 0.89225087,0.92892484 0 0 1 -0.892367,-0.928874 0.89225087,0.92892484 0 0 1 0.892367,-0.928872 z M 5.6454989,13.148428 c -0.033672,0 -0.066968,0.0018 -0.099758,0.0051 -0.032792,0.0033 -0.065072,0.0083 -0.096816,0.01502 -0.03174,0.0065 -0.062914,0.01475 -0.093453,0.02442 -0.03053,0.0096 -0.060506,0.02086 -0.08967,0.03341 -0.029166,0.01257 -0.057557,0.02656 -0.085192,0.04184 -0.027626,0.01528 -0.054494,0.03185 -0.080425,0.04969 -0.025929,0.01785 -0.050885,0.03703 -0.074961,0.05726 -0.024068,0.02025 -0.047163,0.04164 -0.069214,0.06412 -0.02205,0.02245 -0.043048,0.046 -0.062905,0.07054 -0.019858,0.02453 -0.038673,0.04996 -0.056182,0.0764 -0.01751,0.02643 -0.033758,0.0538 -0.048763,0.08197 -0.015004,0.02815 -0.02873,0.0571 -0.041057,0.0868 -0.012325,0.02974 -0.023293,0.06028 -0.032783,0.0914 -0.00949,0.03112 -0.017474,0.06289 -0.023963,0.09525 -0.00653,0.03235 -0.011522,0.06526 -0.014848,0.09867 -0.0033,0.03342 -0.00488,0.06735 -0.00488,0.101677 0,0.03432 0.00156,0.06826 0.00488,0.101677 0.0033,0.03342 0.00835,0.06632 0.014848,0.09867 0.00652,0.03235 0.014475,0.06412 0.023963,0.09525 0.00949,0.03112 0.020458,0.06153 0.032783,0.09124 0.012325,0.02972 0.026051,0.05881 0.041057,0.08697 0.015006,0.02815 0.031244,0.0554 0.048763,0.08182 0.01751,0.02643 0.036324,0.05201 0.056182,0.07654 0.019858,0.02453 0.040865,0.04806 0.062905,0.07054 0.02205,0.02248 0.045145,0.04388 0.069214,0.06412 0.024067,0.02025 0.049033,0.03926 0.074961,0.05711 0.02593,0.01785 0.052799,0.03455 0.080425,0.04983 0.027626,0.01528 0.056026,0.02914 0.085192,0.0417 0.029165,0.01257 0.059138,0.02375 0.08967,0.03341 0.03054,0.0096 0.061715,0.01794 0.093453,0.02457 0.031749,0.0065 0.064028,0.01164 0.096816,0.01502 0.032792,0.0033 0.066081,0.0051 0.099758,0.0051 0.033672,0 0.06683,-0.0018 0.09962,-0.0051 0.032792,-0.0033 0.065212,-0.0083 0.096955,-0.01502 0.03174,-0.0065 0.062914,-0.01489 0.093453,-0.02457 0.03054,-0.0096 0.060367,-0.02086 0.089531,-0.03341 0.029165,-0.01257 0.057557,-0.02643 0.085183,-0.0417 0.027626,-0.01528 0.054494,-0.03198 0.080425,-0.04983 0.025929,-0.01785 0.051034,-0.03687 0.075102,-0.05711 0.024067,-0.02025 0.047171,-0.04164 0.069214,-0.06412 0.02205,-0.02245 0.043048,-0.046 0.062905,-0.07054 0.019858,-0.02453 0.038533,-0.05012 0.056044,-0.07654 0.01751,-0.02643 0.033759,-0.05367 0.048764,-0.08182 0.015004,-0.02815 0.028723,-0.05725 0.041057,-0.08697 0.012325,-0.02973 0.023295,-0.06012 0.032783,-0.09124 0.00949,-0.03112 0.017474,-0.06289 0.023963,-0.09525 0.00652,-0.03235 0.011521,-0.06526 0.014848,-0.09867 0.0033,-0.03342 0.00505,-0.06735 0.00505,-0.101677 0,-0.03432 -0.00174,-0.06826 -0.00505,-0.101677 -0.0033,-0.03342 -0.00835,-0.06632 -0.014848,-0.09867 -0.00653,-0.03236 -0.014474,-0.06412 -0.023964,-0.09525 -0.00949,-0.03113 -0.020458,-0.06166 -0.032783,-0.0914 -0.012325,-0.02972 -0.026051,-0.05865 -0.041057,-0.0868 -0.015004,-0.02816 -0.031244,-0.05554 -0.048764,-0.08197 -0.01751,-0.02643 -0.036184,-0.05187 -0.056044,-0.0764 -0.019858,-0.02453 -0.040864,-0.04806 -0.062905,-0.07054 -0.02205,-0.02248 -0.045144,-0.04388 -0.069214,-0.06412 -0.024067,-0.02025 -0.049172,-0.03942 -0.075102,-0.05726 -0.02593,-0.01785 -0.05279,-0.03439 -0.080425,-0.04969 -0.027626,-0.01528 -0.056026,-0.02928 -0.085183,-0.04184 -0.029165,-0.01257 -0.058992,-0.02375 -0.089531,-0.03341 -0.03054,-0.0096 -0.061704,-0.01778 -0.093453,-0.02442 -0.031749,-0.0065 -0.064167,-0.01164 -0.096955,-0.01502 -0.032792,-0.0033 -0.065942,-0.0052 -0.09962,-0.0052 z"
       inkscape:label="controller"
       inkscape:export-filename="../1c83e62e/96px_white.png"
       inkscape:export-xdpi="96"
       inkscape:export-ydpi="96" />
  </g>
</svg>
