<?xml version="1.0" encoding="UTF-8" standalone="no"?>
<!-- Created with Inkscape (http://www.inkscape.org/) -->

<svg
   width="96"
   height="96"
   viewBox="0 0 25.399999 25.4"
   version="1.1"
   id="svg65476"
   inkscape:version="1.2.2 (732a01da63, 2022-12-09, custom)"
   sodipodi:docname="language.svg"
   xmlns:inkscape="http://www.inkscape.org/namespaces/inkscape"
   xmlns:sodipodi="http://sodipodi.sourceforge.net/DTD/sodipodi-0.dtd"
   xmlns="http://www.w3.org/2000/svg"
   xmlns:svg="http://www.w3.org/2000/svg">
  <sodipodi:namedview
     id="namedview65478"
     pagecolor="#505050"
     bordercolor="#eeeeee"
     borderopacity="1"
     inkscape:showpageshadow="0"
     inkscape:pageopacity="0"
     inkscape:pagecheckerboard="0"
     inkscape:deskcolor="#505050"
     inkscape:document-units="mm"
     showgrid="false"
     inkscape:zoom="2.587745"
     inkscape:cx="76.900931"
     inkscape:cy="178.53382"
     inkscape:window-width="1504"
     inkscape:window-height="1282"
     inkscape:window-x="26"
     inkscape:window-y="23"
     inkscape:window-maximized="0"
     inkscape:current-layer="layer1" />
  <defs
     id="defs65473" />
  <g
     inkscape:label="language"
     inkscape:groupmode="layer"
     id="layer1">
    <g
       id="g11159"
       inkscape:label="language"
       inkscape:export-filename="../f4252cfc/96px_white.png"
       inkscape:export-xdpi="96"
       inkscape:export-ydpi="96"
       transform="matrix(0.33067649,0,0,0.44069313,-18.92561,-21.25208)">
      <path
         id="rect66334"
         style="fill:#ffffff;stroke:#000000;stroke-width:1.9307"
         transform="matrix(0.90584317,-0.4236132,0.32919272,0.94426276,0,0)"
         d="m 60.26186,93.631622 h 24.671199 c 0.157328,0 0.283986,0.126658 0.283986,0.283986 v 25.517952 c 0,0.15733 -0.126658,0.28399 -0.283986,0.28399 H 60.26186 c -0.157328,0 -0.283985,-0.12666 -0.283985,-0.28399 V 93.915608 c 0,-0.157328 0.126657,-0.283986 0.283985,-0.283986 z"
         inkscape:label="back pane" />
      <path
         id="rect65597"
         style="stroke-width:0.600001"
         transform="rotate(15)"
         d="m 87.216054,32.125031 h 60.150586 c 0.1587,0 0.28646,0.12776 0.28646,0.286458 v 29.788837 c 0,0.158698 -0.12776,0.286458 -0.28646,0.286458 H 87.216054 c -0.158698,0 -0.286458,-0.12776 -0.286458,-0.286458 V 32.411489 c 0,-0.158698 0.12776,-0.286458 0.286458,-0.286458 z"
         inkscape:label="right pane" />
      <text
         xml:space="preserve"
         style="font-style:normal;font-variant:normal;font-weight:normal;font-stretch:normal;font-size:26.0682px;font-family:'Liberation Serif';-inkscape-font-specification:'Liberation Serif, Normal';font-variant-ligatures:normal;font-variant-caps:normal;font-variant-numeric:normal;font-variant-east-asian:normal;text-align:center;text-anchor:middle;fill:#000000;stroke-width:3.83844"
         x="132.22078"
         y="58.250164"
         id="text65653"
         transform="matrix(0.99160086,0.25211757,-0.26569865,0.94091558,0,0)"
         inkscape:label="letter"><tspan
           sodipodi:role="line"
           id="tspan65651"
           style="font-style:normal;font-variant:normal;font-weight:normal;font-stretch:normal;font-size:26.0682px;font-family:'Liberation Serif';-inkscape-font-specification:'Liberation Serif, Normal';font-variant-ligatures:normal;font-variant-caps:normal;font-variant-numeric:normal;font-variant-east-asian:normal;fill:#ffffff;stroke-width:3.83844"
           x="132.22078"
           y="58.250164">J</tspan></text>
      <path
         id="rect66332"
         style="fill:#ffffff;stroke:#000000;stroke-width:2.58978"
         transform="matrix(0.91953599,-0.39300581,0.35640559,0.93433134,0,0)"
         d="m 29.116748,90.234451 h 34.2255 c 0.204345,0 0.368854,0.164509 0.368854,0.368854 V 123.7472 c 0,0.20434 -0.164509,0.36885 -0.368854,0.36885 h -34.2255 c -0.204345,0 -0.368854,-0.16451 -0.368854,-0.36885 V 90.603305 c 0,-0.204345 0.164509,-0.368854 0.368854,-0.368854 z"
         inkscape:label="left pane" />
      <g
         id="g66481"
         transform="matrix(0.71229858,-0.29252748,0.30828536,0.67588973,-58.238895,2.1790888)"
         inkscape:label="sign">
        <path
           id="rect66339"
           style="stroke-width:1.44205"
           d="m 109.24931,160.50706 h 22.67309 c 0.0664,0 0.11978,0.0534 0.11978,0.11979 v 2.78116 c 0,0.0664 -0.0534,0.11978 -0.11978,0.11978 h -22.67309 c -0.0664,0 -0.11978,-0.0534 -0.11978,-0.11978 v -2.78116 c 0,-0.0664 0.0534,-0.11979 0.11978,-0.11979 z" />
        <path
           style="fill:#000000;stroke:none;stroke-width:1.88604;stroke-dasharray:none"
           d="m 118.02055,160.58138 -1.20735,-3.31082 2.35405,-0.99864 1.65826,4.54732 z"
           id="path66341" />
        <path
           id="path66464"
           style="fill:none;stroke:#000000;stroke-width:2.80001;stroke-dasharray:none"
           d="M 128.8457,181.0848 A 20.534315,20.534315 0 0 1 117.12128,163.28177" />
        <path
           id="path66470"
           style="fill:none;stroke:#000000;stroke-width:2.80001;stroke-dasharray:none"
           d="m 127.48894,163.08048 c -0.28057,7.65699 -10.52018,14.52086 -17.44374,17.80303"
           sodipodi:nodetypes="cc" />
      </g>
    </g>
  </g>
</svg>
