<?xml version="1.0" encoding="UTF-8" standalone="no"?>
<!-- Created with Inkscape (http://www.inkscape.org/) -->

<svg
   width="96"
   height="96"
   viewBox="0 0 25.399999 25.4"
   version="1.1"
   id="svg6793"
   inkscape:version="1.2.2 (732a01da63, 2022-12-09, custom)"
   sodipodi:docname="cog.svg"
   inkscape:export-filename="../d534339c/96px_black.png"
   inkscape:export-xdpi="96"
   inkscape:export-ydpi="96"
   xmlns:inkscape="http://www.inkscape.org/namespaces/inkscape"
   xmlns:sodipodi="http://sodipodi.sourceforge.net/DTD/sodipodi-0.dtd"
   xmlns="http://www.w3.org/2000/svg"
   xmlns:svg="http://www.w3.org/2000/svg">
  <sodipodi:namedview
     id="namedview6795"
     pagecolor="#505050"
     bordercolor="#eeeeee"
     borderopacity="1"
     inkscape:showpageshadow="0"
     inkscape:pageopacity="0"
     inkscape:pagecheckerboard="0"
     inkscape:deskcolor="#505050"
     inkscape:document-units="mm"
     showgrid="false"
     inkscape:zoom="3.6277384"
     inkscape:cx="5.5130767"
     inkscape:cy="62.849074"
     inkscape:window-width="1504"
     inkscape:window-height="1282"
     inkscape:window-x="26"
     inkscape:window-y="23"
     inkscape:window-maximized="0"
     inkscape:current-layer="layer1" />
  <defs
     id="defs6790" />
  <g
     inkscape:label="Cog"
     inkscape:groupmode="layer"
     id="layer1">
    <path
       id="path15119"
       style="fill:#000000;stroke-width:266.45"
       d="M 19.716447,13.666289 A 7.1261762,6.696635 0 0 1 12.590269,20.362928 7.1261762,6.696635 0 0 1 5.4640909,13.666289 7.1261762,6.696635 0 0 1 12.590269,6.9696499 7.1261762,6.696635 0 0 1 19.716447,13.666289 Z M 0,13.503061 C 6.4242258e-4,13.451664 0.00214164,13.399844 0.00214164,13.349354 0.00428329,11.870172 0.19143991,10.365519 0.81801919,9.0192742 0.86138294,8.9261248 1.023035,9.0324436 1.1257572,9.0326579 3.1430249,9.0326793 4.778356,7.3973482 4.778324,5.3800801 4.7776815,4.893847 4.1948293,4.3506639 4.490597,3.9647334 5.6273177,2.4814297 7.6518343,0.90526508 9.460821,1.4477737 c 1.303406,0.3908879 1.877051,1.9632088 3.237813,1.9634871 v 3.7792726 c -0.154211,2.569e-4 -0.308348,0.00535 -0.462122,0.017024 -0.0086,6.424e-4 -0.0182,0.00107 -0.0273,0.00214 -0.146224,0.010921 -0.29202,0.026874 -0.437109,0.047646 -0.01071,0.00107 -0.02045,0.00214 -0.03062,0.00428 -0.149769,0.022164 -0.298681,0.049465 -0.446436,0.082014 -0.0075,0.00214 -0.01552,0.00428 -0.02334,0.00535 -0.144555,0.032334 -0.287908,0.069594 -0.429774,0.1116945 -0.0096,0.00214 -0.01895,0.00535 -0.02838,0.00856 -0.144105,0.043363 -0.286561,0.091866 -0.42711,0.1450465 l -0.01071,0.00428 c -0.141514,0.054176 -0.280961,0.1128295 -0.4180944,0.1767069 -0.01082,0.00535 -0.021518,0.010706 -0.032337,0.015633 -0.1307745,0.061565 -0.259332,0.1275409 -0.3854384,0.1977139 -0.00856,0.00535 -0.017781,0.00964 -0.026657,0.014347 C 9.3800126,8.0978177 9.2496666,8.17767 9.1224363,8.2617085 8.9958164,8.345544 8.8723658,8.4338864 8.7523412,8.526437 l -0.025055,0.01938 C 8.6127551,8.6350056 8.5014353,8.7279307 8.3935418,8.8245607 8.3871209,8.8299097 8.380158,8.8367664 8.3735197,8.8425493 8.2613971,8.9436221 8.1530753,9.0486248 8.0487685,9.1573 c -0.00428,0.00428 -0.0075,0.0075 -0.010706,0.01135 -0.101074,0.106213 -0.1982816,0.215884 -0.2914103,0.3287348 -0.00642,0.00856 -0.013812,0.016488 -0.020664,0.024733 C 7.6305928,9.6384879 7.5396805,9.7581483 7.4532544,9.8808822 7.366635,10.004407 7.2846632,10.130985 7.2075307,10.260314 c -0.00535,0.0086 -0.010706,0.01713 -0.015311,0.02569 -0.072914,0.123557 -0.141449,0.249577 -0.20538,0.377761 -0.00428,0.0086 -0.00856,0.01617 -0.012634,0.02431 -0.066705,0.134704 -0.1283223,0.27171 -0.1847049,0.410771 l -0.00107,0.0032 c -0.05482,0.135827 -0.1046066,0.273496 -0.1493722,0.412773 -0.00428,0.0136 -0.00856,0.02708 -0.012635,0.04068 -0.043257,0.137252 -0.081481,0.275918 -0.1146924,0.41577 -0.00107,0.0042 -0.00214,0.0086 -0.00322,0.01305 -0.034156,0.145978 -0.06285,0.293112 -0.085976,0.441103 -6.425e-4,0.0055 -0.00214,0.01188 -0.00214,0.01766 -0.02195,0.143645 -0.038545,0.287997 -0.050002,0.432775 -6.53e-4,0.0086 -0.00107,0.01755 -0.00214,0.02634 -0.011242,0.149018 -0.017345,0.29838 -0.017666,0.447784 0,0.05129 6.423e-4,0.102463 0.00214,0.153709 z m 19.047062,0 c 0.0011,-0.05118 0.0021,-0.102461 0.0021,-0.153707 -2.89e-4,-0.149426 -0.0064,-0.298788 -0.01766,-0.447785 l -0.0021,-0.02634 c -0.01146,-0.144778 -0.02806,-0.289129 -0.05,-0.432772 -6.43e-4,-0.0055 -0.0021,-0.01178 -0.0021,-0.01766 -0.02313,-0.148001 -0.05182,-0.295136 -0.08598,-0.441114 -0.0011,-0.0042 -0.0021,-0.0086 -0.0032,-0.01305 -0.03319,-0.139843 -0.07152,-0.278518 -0.114693,-0.415771 -0.0042,-0.01349 -0.0086,-0.02708 -0.01264,-0.04068 -0.04475,-0.139265 -0.09453,-0.276933 -0.149382,-0.412773 l -0.0011,-0.0032 c -0.05642,-0.13905 -0.118034,-0.276055 -0.184716,-0.41077 -0.0042,-0.0086 -0.0086,-0.01617 -0.01263,-0.02431 -0.06393,-0.128174 -0.132446,-0.254183 -0.205381,-0.377763 -0.0055,-0.0086 -0.01071,-0.01713 -0.01531,-0.02569 C 18.11516,10.130343 18.033136,10.003775 17.946517,9.8802286 17.860127,9.7574955 17.769124,9.637835 17.67378,9.5214829 c -0.0064,-0.00856 -0.01339,-0.016489 -0.02035,-0.024734 -0.09316,-0.1128615 -0.190314,-0.222511 -0.291399,-0.328745 -0.0042,-0.00428 -0.0075,-0.0075 -0.01071,-0.01135 -0.104285,-0.1086751 -0.212618,-0.2136565 -0.32474,-0.3147404 -0.0064,-0.00535 -0.01328,-0.011991 -0.02002,-0.017989 -0.107894,-0.096576 -0.219213,-0.189598 -0.333756,-0.2787331 -0.0086,-0.00642 -0.0166,-0.012956 -0.02506,-0.01938 -0.119946,-0.092466 -0.243396,-0.1808078 -0.370016,-0.2646965 -0.127231,-0.08405 -0.257566,-0.16388 -0.39076,-0.2387321 -0.0086,-0.00535 -0.01779,-0.00964 -0.02665,-0.014347 C 15.734212,7.9379058 15.605655,7.8719295 15.474891,7.810322 15.464071,7.804972 15.453371,7.799616 15.442551,7.794689 15.305412,7.730769 15.165965,7.6721269 15.024452,7.6179821 l -0.01071,-0.00428 c -0.14055,-0.053217 -0.283016,-0.1016114 -0.427108,-0.1450389 -0.0096,-0.00214 -0.01895,-0.00535 -0.02838,-0.00856 -0.141866,-0.042079 -0.285209,-0.079338 -0.429776,-0.1116944 -0.0075,-0.00214 -0.01552,-0.00428 -0.02334,-0.00535 -0.147755,-0.032548 -0.296668,-0.059852 -0.446436,-0.082015 -0.01071,-0.00107 -0.02046,-0.00214 -0.03062,-0.00428 -0.14509,-0.020772 -0.290874,-0.036724 -0.43711,-0.047646 -0.0086,-6.531e-4 -0.0182,-0.00107 -0.02741,-0.00214 C 13.0098,7.1958408 12.855663,7.1902738 12.701463,7.1899518 V 3.4106147 c 1.360762,-2.677e-4 1.934396,-1.5725993 3.237801,-1.9634874 1.808986,-0.54250848 3.833504,1.0336562 4.970235,2.5169598 0.295767,0.3859414 -0.286988,0.9291244 -0.287737,1.4153575 -3.3e-5,2.0172573 1.635309,3.652599 3.652578,3.652567 0.102678,-1.072e-4 0.264396,-0.1064268 0.307737,-0.013384 0.626547,1.3462574 0.814111,2.8509094 0.815867,4.3300794 0,0.05054 0.0011,0.102246 0.0021,0.153708 z M 0,13.503255 c 6.4242258e-4,0.0514 0.00214164,0.103217 0.00214164,0.153697 0.00214165,1.479182 0.18929827,2.983835 0.81587755,4.33008 0.0433638,0.09315 0.20501581,-0.01317 0.30773801,-0.01339 2.017268,-3.2e-5 3.6525991,1.63531 3.6525671,3.652567 -6.425e-4,0.486232 -0.5834947,1.029427 -0.2877269,1.415368 1.1367207,1.483283 3.1612373,3.059458 4.970224,2.516949 1.3034056,-0.390888 1.8770506,-1.963208 3.2378126,-1.963476 v -3.779294 c -0.154211,-2.47e-4 -0.308348,-0.0055 -0.462122,-0.01703 -0.0086,-6.42e-4 -0.0182,-0.0011 -0.0273,-0.0021 -0.146224,-0.01092 -0.29202,-0.02688 -0.437109,-0.04765 -0.01071,-0.0011 -0.02045,-0.0021 -0.03062,-0.0042 -0.149769,-0.02216 -0.298681,-0.04946 -0.446436,-0.08202 -0.0075,-0.0021 -0.01552,-0.0042 -0.02334,-0.0055 -0.144555,-0.03234 -0.287908,-0.0696 -0.429774,-0.111694 -0.0096,-0.0021 -0.01895,-0.0055 -0.02838,-0.0086 -0.144105,-0.04336 -0.286561,-0.09176 -0.42711,-0.145046 l -0.01071,-0.0042 c -0.141514,-0.05418 -0.28096,-0.112818 -0.4180944,-0.176708 -0.01082,-0.0055 -0.021518,-0.01071 -0.032337,-0.01563 -0.1307741,-0.06156 -0.2593316,-0.127541 -0.385438,-0.197714 -0.00856,-0.0042 -0.017781,-0.0096 -0.026657,-0.01435 -0.1331929,-0.07478 -0.2635389,-0.154628 -0.3907691,-0.238677 -0.12662,-0.08384 -0.2500706,-0.172178 -0.3700951,-0.264729 l -0.025055,-0.01937 C 8.6127573,18.371338 8.5014375,18.278431 8.393544,18.181802 8.387124,18.176302 8.38016,18.169602 8.373522,18.163812 8.2613991,18.062736 8.1530773,17.957747 8.0487705,17.849061 c -0.00428,-0.0042 -0.0075,-0.0075 -0.010706,-0.01135 -0.1010739,-0.106208 -0.1982812,-0.215877 -0.29141,-0.32873 -0.00642,-0.0086 -0.013812,-0.01648 -0.020664,-0.02473 C 7.630593,17.367824 7.53968,17.248174 7.4532538,17.12543 7.3666355,17.001893 7.2846627,16.875325 7.2075302,16.745998 c -0.00535,-0.0086 -0.010706,-0.01712 -0.015311,-0.0257 -0.072914,-0.123567 -0.141449,-0.249578 -0.20538,-0.377762 -0.00428,-0.0086 -0.00856,-0.01617 -0.012634,-0.02431 -0.066705,-0.134697 -0.1283221,-0.271703 -0.1847047,-0.410753 l -0.00107,-0.0032 c -0.054822,-0.135804 -0.1046094,-0.273474 -0.149375,-0.412738 -0.00428,-0.01348 -0.00856,-0.02708 -0.012634,-0.04068 -0.043257,-0.137262 -0.081481,-0.275928 -0.1146925,-0.415781 -0.00107,-0.0042 -0.00214,-0.0086 -0.00322,-0.01305 -0.034156,-0.145979 -0.06285,-0.293101 -0.085976,-0.441103 -6.425e-4,-0.0055 -0.00214,-0.01188 -0.00214,-0.01766 -0.02195,-0.143644 -0.038545,-0.287996 -0.050002,-0.432774 -6.531e-4,-0.0086 -0.00107,-0.01755 -0.00214,-0.02634 -0.011242,-0.149009 -0.017345,-0.29837 -0.017666,-0.447785 0,-0.05128 6.424e-4,-0.102463 0.00214,-0.153709 z m 19.047062,0 c 0.0011,0.05129 0.0021,0.102462 0.0021,0.153697 -2.89e-4,0.149426 -0.0064,0.298787 -0.01766,0.447784 l -0.0021,0.02634 c -0.01146,0.144778 -0.02806,0.28913 -0.05,0.432774 -6.43e-4,0.0055 -0.0021,0.01178 -0.0021,0.01767 -0.02313,0.148002 -0.05182,0.295135 -0.08598,0.441114 -0.0011,0.0042 -0.0021,0.0086 -0.0032,0.01305 -0.03319,0.139842 -0.07152,0.278519 -0.114693,0.41577 -0.0042,0.01349 -0.0086,0.02709 -0.01264,0.04068 -0.04475,0.139265 -0.09453,0.276934 -0.149382,0.412784 l -0.0011,0.0032 c -0.05642,0.13905 -0.118034,0.276067 -0.184716,0.410771 -0.0042,0.0086 -0.0086,0.01617 -0.01263,0.02431 -0.06393,0.128172 -0.132446,0.254181 -0.205381,0.37776 -0.0055,0.0086 -0.01071,0.01713 -0.01531,0.02569 -0.07709,0.129319 -0.159115,0.255885 -0.245734,0.379431 -0.08639,0.122734 -0.177392,0.242394 -0.272737,0.358747 -0.0064,0.0086 -0.01339,0.01648 -0.02034,0.02473 -0.09316,0.112861 -0.190314,0.222511 -0.291399,0.328745 -0.0042,0.0042 -0.0075,0.0075 -0.01071,0.01134 -0.104284,0.108674 -0.212617,0.213656 -0.32474,0.314739 -0.0064,0.0055 -0.01328,0.01199 -0.02002,0.01799 -0.107893,0.09658 -0.219212,0.189598 -0.333756,0.278733 -0.0086,0.0064 -0.0166,0.01296 -0.02506,0.01937 -0.120024,0.0925 -0.243474,0.18085 -0.370094,0.26474 -0.12723,0.08405 -0.257565,0.16388 -0.39076,0.238731 -0.0086,0.0055 -0.01779,0.0096 -0.02665,0.01435 -0.126106,0.07012 -0.254664,0.136107 -0.385427,0.197714 -0.01082,0.0055 -0.02152,0.01071 -0.03234,0.01563 -0.137135,0.06393 -0.276583,0.122572 -0.418095,0.176706 l -0.01071,0.0042 c -0.14055,0.05322 -0.283017,0.101603 -0.42711,0.145036 -0.0096,0.0021 -0.01895,0.0055 -0.02838,0.0086 -0.141867,0.04207 -0.28521,0.07935 -0.429776,0.111694 -0.0075,0.0021 -0.01552,0.0042 -0.02334,0.0055 -0.147755,0.03255 -0.296667,0.05986 -0.446436,0.08202 -0.01071,0.0011 -0.02046,0.0021 -0.03063,0.0042 -0.14509,0.02077 -0.290874,0.03672 -0.43711,0.04763 -0.0086,6.55e-4 -0.0182,0.0011 -0.02741,0.0021 -0.153773,0.01114 -0.30791,0.0167 -0.46211,0.01703 v 3.779284 c 1.360762,2.78e-4 1.934396,1.572609 3.237801,1.963497 1.808987,0.54251 3.833504,-1.033656 4.970236,-2.51696 0.295766,-0.385931 -0.286989,-0.929114 -0.287738,-1.415347 -3.1e-5,-2.017268 1.635309,-3.652609 3.652578,-3.652577 0.102679,1.18e-4 0.264396,0.106426 0.307737,0.01338 0.626548,-1.346255 0.814111,-2.850897 0.815867,-4.330078 0,-0.05054 0.0011,-0.102257 0.0021,-0.153721 z"
       inkscape:label="Cog"
       inkscape:export-filename="../8c856265/96px_white.png"
       inkscape:export-xdpi="96"
       inkscape:export-ydpi="96" />
  </g>
</svg>
