<?xml version="1.0" encoding="UTF-8" standalone="no"?>
<!-- Created with Inkscape (http://www.inkscape.org/) -->

<svg
   width="96"
   height="78.533592"
   viewBox="0 0 25.399999 20.77868"
   version="1.1"
   id="svg28137"
   inkscape:version="1.2.2 (732a01da63, 2022-12-09, custom)"
   sodipodi:docname="tool.svg"
   xmlns:inkscape="http://www.inkscape.org/namespaces/inkscape"
   xmlns:sodipodi="http://sodipodi.sourceforge.net/DTD/sodipodi-0.dtd"
   xmlns="http://www.w3.org/2000/svg"
   xmlns:svg="http://www.w3.org/2000/svg">
  <sodipodi:namedview
     id="namedview28139"
     pagecolor="#505050"
     bordercolor="#eeeeee"
     borderopacity="1"
     inkscape:showpageshadow="0"
     inkscape:pageopacity="0"
     inkscape:pagecheckerboard="0"
     inkscape:deskcolor="#505050"
     inkscape:document-units="px"
     showgrid="false"
     inkscape:zoom="3.659624"
     inkscape:cx="95.911493"
     inkscape:cy="71.865306"
     inkscape:window-width="1504"
     inkscape:window-height="1282"
     inkscape:window-x="26"
     inkscape:window-y="23"
     inkscape:window-maximized="0"
     inkscape:current-layer="layer1" />
  <defs
     id="defs28134" />
  <g
     inkscape:label="Layer 1"
     inkscape:groupmode="layer"
     id="layer1"
     transform="translate(-4.9158599e-7,-4.6252774)">
    <g
       id="g10397"
       transform="matrix(0.24401155,0,0,0.25033923,-14.856428,-5.3263567)"
       inkscape:label="Tool"
       inkscape:export-filename="../3801e02a/96px_white.png"
       inkscape:export-xdpi="96"
       inkscape:export-ydpi="96"
       style="fill:#000000">
      <path
         id="rect28727"
         style="fill:#000000;stroke-width:0.541998"
         transform="matrix(0.81278931,0.58255776,-0.73830627,0.6744656,0,0)"
         d="m 100.79384,-6.6837583 h 77.22939 V 9.3726726 h -77.22939 z"
         inkscape:label="Middle" />
      <path
         id="path28781"
         style="fill:#000000;stroke-width:0.425586"
         d="m 75.346822,39.752612 a 14.462979,14.462979 0 0 0 -0.01395,5.17e-4 l 6.517949,6.98407 a 12.367257,12.367257 0 0 1 0.194303,0.798401 12.367257,12.367257 0 0 1 0.143144,0.83199 12.367257,12.367257 0 0 1 0.0863,0.840259 12.367257,12.367257 0 0 1 0.02842,0.843876 12.367257,12.367257 0 0 1 -0.02894,0.843876 12.367257,12.367257 0 0 1 -0.08682,0.840259 12.367257,12.367257 0 0 1 -0.144177,0.831991 12.367257,12.367257 0 0 1 -0.199988,0.820105 12.367257,12.367257 0 0 1 -0.255798,0.805119 12.367257,12.367257 0 0 1 -0.310059,0.785481 12.367257,12.367257 0 0 1 -0.362768,0.762228 12.367257,12.367257 0 0 1 -0.413928,0.735872 12.367257,12.367257 0 0 1 -0.463538,0.706417 12.367257,12.367257 0 0 1 -0.510563,0.672827 12.367257,12.367257 0 0 1 -0.555522,0.636137 12.367257,12.367257 0 0 1 -0.597379,0.596863 12.367257,12.367257 0 0 1 -0.21084,0.192236 12.367257,12.367257 0 0 1 -0.215491,0.188102 12.367257,12.367257 0 0 1 -0.219625,0.182418 12.367257,12.367257 0 0 1 -0.223759,0.17725 12.367257,12.367257 0 0 1 -0.227893,0.172083 12.367257,12.367257 0 0 1 -0.232027,0.166915 12.367257,12.367257 0 0 1 -0.235644,0.161747 12.367257,12.367257 0 0 1 -0.239262,0.155546 12.367257,12.367257 0 0 1 -0.24288,0.150378 12.367257,12.367257 0 0 1 -0.246496,0.144694 12.367257,12.367257 0 0 1 -0.249597,0.139527 12.367257,12.367257 0 0 1 -0.252698,0.133325 12.367257,12.367257 0 0 1 -0.255798,0.127124 12.367257,12.367257 0 0 1 -0.258383,0.12144 12.367257,12.367257 0 0 1 -0.261482,0.115238 12.367257,12.367257 0 0 1 -0.26355,0.109554 12.367257,12.367257 0 0 1 -0.26665,0.103353 12.367257,12.367257 0 0 1 -0.268718,0.09715 12.367257,12.367257 0 0 1 -0.270784,0.09043 12.367257,12.367257 0 0 1 -0.272852,0.08475 12.367257,12.367257 0 0 1 -0.274402,0.07803 12.367257,12.367257 0 0 1 -0.276986,0.07183 12.367257,12.367257 0 0 1 -0.278019,0.06563 12.367257,12.367257 0 0 1 -0.279569,0.05891 12.367257,12.367257 0 0 1 -0.280603,0.05271 12.367257,12.367257 0 0 1 -0.281637,0.04599 12.367257,12.367257 0 0 1 -0.283187,0.03927 12.367257,12.367257 0 0 1 -0.283703,0.03307 12.367257,12.367257 0 0 1 -0.284737,0.02635 12.367257,12.367257 0 0 1 -0.284738,0.01964 12.367257,12.367257 0 0 1 -0.28577,0.01344 12.367257,12.367257 0 0 1 -0.285254,0.0067 12.367257,12.367257 0 0 1 -0.285771,0 12.367257,12.367257 0 0 1 -0.28577,-0.0067 12.367257,12.367257 0 0 1 -0.285254,-0.01292 12.367257,12.367257 0 0 1 -0.284738,-0.01964 12.367257,12.367257 0 0 1 -0.284737,-0.02636 12.367257,12.367257 0 0 1 -0.121956,-0.01395 L 60.88672,54.141895 a 14.462979,14.462979 0 0 0 -0.0026,0.0739 14.462979,14.462979 0 0 0 14.462683,14.462683 14.462979,14.462979 0 0 0 14.4632,-14.462683 14.462979,14.462979 0 0 0 -14.4632,-14.4632 z"
         inkscape:label="Left" />
      <path
         id="path28848"
         style="fill:#000000;stroke-width:0.425586"
         d="m 150.51444,122.75444 a 14.462979,14.462979 0 0 0 0.014,-5.2e-4 l -6.51795,-6.98407 a 12.367257,12.367257 0 0 1 -0.1943,-0.7984 12.367257,12.367257 0 0 1 -0.14315,-0.83199 12.367257,12.367257 0 0 1 -0.0863,-0.84026 12.367257,12.367257 0 0 1 -0.0284,-0.84388 12.367257,12.367257 0 0 1 0.0289,-0.84387 12.367257,12.367257 0 0 1 0.0868,-0.84026 12.367257,12.367257 0 0 1 0.14418,-0.83199 12.367257,12.367257 0 0 1 0.19999,-0.82011 12.367257,12.367257 0 0 1 0.2558,-0.80512 12.367257,12.367257 0 0 1 0.31006,-0.78548 12.367257,12.367257 0 0 1 0.36276,-0.76223 12.367257,12.367257 0 0 1 0.41393,-0.73587 12.367257,12.367257 0 0 1 0.46354,-0.70641 12.367257,12.367257 0 0 1 0.51056,-0.67283 12.367257,12.367257 0 0 1 0.55552,-0.63614 12.367257,12.367257 0 0 1 0.59738,-0.59686 12.367257,12.367257 0 0 1 0.21084,-0.19224 12.367257,12.367257 0 0 1 0.21549,-0.1881 12.367257,12.367257 0 0 1 0.21963,-0.18242 12.367257,12.367257 0 0 1 0.22376,-0.17725 12.367257,12.367257 0 0 1 0.22789,-0.17208 12.367257,12.367257 0 0 1 0.23203,-0.16692 12.367257,12.367257 0 0 1 0.23564,-0.16174 12.367257,12.367257 0 0 1 0.23926,-0.15555 12.367257,12.367257 0 0 1 0.24288,-0.15038 12.367257,12.367257 0 0 1 0.2465,-0.14469 12.367257,12.367257 0 0 1 0.2496,-0.13953 12.367257,12.367257 0 0 1 0.2527,-0.13332 12.367257,12.367257 0 0 1 0.25579,-0.12713 12.367257,12.367257 0 0 1 0.25839,-0.12144 12.367257,12.367257 0 0 1 0.26148,-0.11523 12.367257,12.367257 0 0 1 0.26355,-0.10956 12.367257,12.367257 0 0 1 0.26665,-0.10335 12.367257,12.367257 0 0 1 0.26872,-0.0971 12.367257,12.367257 0 0 1 0.27078,-0.0904 12.367257,12.367257 0 0 1 0.27285,-0.0847 12.367257,12.367257 0 0 1 0.2744,-0.078 12.367257,12.367257 0 0 1 0.27699,-0.0718 12.367257,12.367257 0 0 1 0.27802,-0.0656 12.367257,12.367257 0 0 1 0.27957,-0.0589 12.367257,12.367257 0 0 1 0.2806,-0.0527 12.367257,12.367257 0 0 1 0.28164,-0.046 12.367257,12.367257 0 0 1 0.28319,-0.0393 12.367257,12.367257 0 0 1 0.2837,-0.0331 12.367257,12.367257 0 0 1 0.28474,-0.0263 12.367257,12.367257 0 0 1 0.28473,-0.0196 12.367257,12.367257 0 0 1 0.28577,-0.0134 12.367257,12.367257 0 0 1 0.28526,-0.007 12.367257,12.367257 0 0 1 0.28577,0 12.367257,12.367257 0 0 1 0.28577,0.007 12.367257,12.367257 0 0 1 0.28525,0.0129 12.367257,12.367257 0 0 1 0.28474,0.0196 12.367257,12.367257 0 0 1 0.28474,0.0264 12.367257,12.367257 0 0 1 0.12195,0.0139 l 7.64553,8.19226 a 14.462979,14.462979 0 0 0 0.003,-0.0739 14.462979,14.462979 0 0 0 -14.46268,-14.462683 14.462979,14.462979 0 0 0 -14.4632,14.462683 14.462979,14.462979 0 0 0 14.4632,14.4632 z"
         inkscape:label="Right" />
    </g>
  </g>
</svg>
